<svg width="100" height="90" viewBox="0 0 100 90" fill="none" xmlns="http://www.w3.org/2000/svg">
<rect x="0.5" y="0.5" width="99" height="89" rx="4.5" fill="#F5F5F5"/>
<rect x="0.5" y="0.5" width="99" height="89" rx="4.5" stroke="#9747FF" stroke-dasharray="10 5"/>
<rect x="21" y="57" width="14" height="14" rx="7" fill="black" fill-opacity="0.15"/>
<rect x="21.25" y="57.25" width="13.5" height="13.5" rx="6.75" stroke="black" stroke-opacity="0.1" stroke-width="0.5"/>
<rect x="44" y="57" width="14" height="14" rx="7" fill="black" fill-opacity="0.15"/>
<rect x="44.25" y="57.25" width="13.5" height="13.5" rx="6.75" stroke="black" stroke-opacity="0.1" stroke-width="0.5"/>
<rect x="67" y="57" width="14" height="14" rx="7" fill="black" fill-opacity="0.15"/>
<rect x="67.25" y="57.25" width="13.5" height="13.5" rx="6.75" stroke="black" stroke-opacity="0.1" stroke-width="0.5"/>
<rect x="21" y="21" width="14" height="14" rx="7" fill="#FF736A"/>
<rect x="21.25" y="21.25" width="13.5" height="13.5" rx="6.75" stroke="black" stroke-opacity="0.1" stroke-width="0.5"/>
<rect x="44" y="21" width="14" height="14" rx="7" fill="#FEBC2E"/>
<rect x="44.25" y="21.25" width="13.5" height="13.5" rx="6.75" stroke="black" stroke-opacity="0.1" stroke-width="0.5"/>
<rect x="67" y="21" width="14" height="14" rx="7" fill="#19C332"/>
<rect x="67.25" y="21.25" width="13.5" height="13.5" rx="6.75" stroke="black" stroke-opacity="0.1" stroke-width="0.5"/>
</svg>
