<svg width="140" height="480" viewBox="0 0 140 480" fill="none" xmlns="http://www.w3.org/2000/svg">
<rect x="0.5" y="0.5" width="139" height="479" rx="4.5" stroke="#9747FF" stroke-dasharray="10 5"/>
<g clip-path="url(#clip0_121_12208)">
<g opacity="0.05">
<rect width="100" height="10" transform="translate(20 20)" fill="black"/>
</g>
</g>
<g clip-path="url(#clip1_121_12208)">
<rect width="10" height="10" transform="translate(20 20)" fill="#0D6FFF"/>
</g>
<g clip-path="url(#clip2_121_12208)">
<g opacity="0.05">
<rect width="100" height="10" transform="translate(20 40)" fill="black"/>
</g>
</g>
<g clip-path="url(#clip3_121_12208)">
<rect width="19" height="10" transform="translate(20 40)" fill="#0D6FFF"/>
</g>
<g clip-path="url(#clip4_121_12208)">
<g opacity="0.05">
<rect width="100" height="10" transform="translate(20 60)" fill="black"/>
</g>
</g>
<g clip-path="url(#clip5_121_12208)">
<rect width="28" height="10" transform="translate(20 60)" fill="#0D6FFF"/>
</g>
<g clip-path="url(#clip6_121_12208)">
<g opacity="0.05">
<rect width="100" height="10" transform="translate(20 80)" fill="black"/>
</g>
</g>
<g clip-path="url(#clip7_121_12208)">
<rect width="37" height="10" transform="translate(20 80)" fill="#0D6FFF"/>
</g>
<g clip-path="url(#clip8_121_12208)">
<g opacity="0.05">
<rect width="100" height="10" transform="translate(20 100)" fill="black"/>
</g>
</g>
<g clip-path="url(#clip9_121_12208)">
<rect width="46" height="10" transform="translate(20 100)" fill="#0D6FFF"/>
</g>
<g clip-path="url(#clip10_121_12208)">
<g opacity="0.05">
<rect width="100" height="10" transform="translate(20 120)" fill="black"/>
</g>
</g>
<g clip-path="url(#clip11_121_12208)">
<rect width="55" height="10" transform="translate(20 120)" fill="#0D6FFF"/>
</g>
<g clip-path="url(#clip12_121_12208)">
<g opacity="0.05">
<rect width="100" height="10" transform="translate(20 140)" fill="black"/>
</g>
</g>
<g clip-path="url(#clip13_121_12208)">
<rect width="64" height="10" transform="translate(20 140)" fill="#0D6FFF"/>
</g>
<g clip-path="url(#clip14_121_12208)">
<g opacity="0.05">
<rect width="100" height="10" transform="translate(20 160)" fill="black"/>
</g>
</g>
<g clip-path="url(#clip15_121_12208)">
<rect width="73" height="10" transform="translate(20 160)" fill="#0D6FFF"/>
</g>
<g clip-path="url(#clip16_121_12208)">
<g opacity="0.05">
<rect width="100" height="10" transform="translate(20 180)" fill="black"/>
</g>
</g>
<g clip-path="url(#clip17_121_12208)">
<rect width="82" height="10" transform="translate(20 180)" fill="#0D6FFF"/>
</g>
<g clip-path="url(#clip18_121_12208)">
<g opacity="0.05">
<rect width="100" height="10" transform="translate(20 200)" fill="black"/>
</g>
</g>
<g clip-path="url(#clip19_121_12208)">
<rect width="91" height="10" transform="translate(20 200)" fill="#0D6FFF"/>
</g>
<g clip-path="url(#clip20_121_12208)">
<g opacity="0.05">
<rect width="100" height="10" transform="translate(20 220)" fill="black"/>
</g>
</g>
<g clip-path="url(#clip21_121_12208)">
<rect width="100" height="10" transform="translate(20 220)" fill="#0D6FFF"/>
</g>
<g clip-path="url(#clip22_121_12208)">
<g opacity="0.05">
<rect width="100" height="6" transform="translate(20 250)" fill="black"/>
</g>
</g>
<g clip-path="url(#clip23_121_12208)">
<rect width="6" height="6" transform="translate(20 250)" fill="#0D6FFF"/>
</g>
<g clip-path="url(#clip24_121_12208)">
<g opacity="0.05">
<rect width="100" height="6" transform="translate(20 270)" fill="black"/>
</g>
</g>
<g clip-path="url(#clip25_121_12208)">
<rect width="15" height="6" transform="translate(20 270)" fill="#0D6FFF"/>
</g>
<g clip-path="url(#clip26_121_12208)">
<g opacity="0.05">
<rect width="100" height="6" transform="translate(20 290)" fill="black"/>
</g>
</g>
<g clip-path="url(#clip27_121_12208)">
<rect width="26" height="6" transform="translate(20 290)" fill="#0D6FFF"/>
</g>
<g clip-path="url(#clip28_121_12208)">
<g opacity="0.05">
<rect width="100" height="6" transform="translate(20 310)" fill="black"/>
</g>
</g>
<g clip-path="url(#clip29_121_12208)">
<rect width="35" height="6" transform="translate(20 310)" fill="#0D6FFF"/>
</g>
<g clip-path="url(#clip30_121_12208)">
<g opacity="0.05">
<rect width="100" height="6" transform="translate(20 330)" fill="black"/>
</g>
</g>
<g clip-path="url(#clip31_121_12208)">
<rect width="44" height="6" transform="translate(20 330)" fill="#0D6FFF"/>
</g>
<g clip-path="url(#clip32_121_12208)">
<g opacity="0.05">
<rect width="100" height="6" transform="translate(20 350)" fill="black"/>
</g>
</g>
<g clip-path="url(#clip33_121_12208)">
<rect width="54" height="6" transform="translate(20 350)" fill="#0D6FFF"/>
</g>
<g clip-path="url(#clip34_121_12208)">
<g opacity="0.05">
<rect width="100" height="6" transform="translate(20 370)" fill="black"/>
</g>
</g>
<g clip-path="url(#clip35_121_12208)">
<rect width="63" height="6" transform="translate(20 370)" fill="#0D6FFF"/>
</g>
<g clip-path="url(#clip36_121_12208)">
<g opacity="0.05">
<rect width="100" height="6" transform="translate(20 390)" fill="black"/>
</g>
</g>
<g clip-path="url(#clip37_121_12208)">
<rect width="73" height="6" transform="translate(20 390)" fill="#0D6FFF"/>
</g>
<g clip-path="url(#clip38_121_12208)">
<g opacity="0.05">
<rect width="100" height="6" transform="translate(20 410)" fill="black"/>
</g>
</g>
<g clip-path="url(#clip39_121_12208)">
<rect width="82" height="6" transform="translate(20 410)" fill="#0D6FFF"/>
</g>
<g clip-path="url(#clip40_121_12208)">
<g opacity="0.05">
<rect width="100" height="6" transform="translate(20 430)" fill="black"/>
</g>
</g>
<g clip-path="url(#clip41_121_12208)">
<rect width="91" height="6" transform="translate(20 430)" fill="#0D6FFF"/>
</g>
<g clip-path="url(#clip42_121_12208)">
<g opacity="0.05">
<rect width="100" height="6" transform="translate(20 450)" fill="black"/>
</g>
</g>
<g clip-path="url(#clip43_121_12208)">
<rect width="100" height="6" transform="translate(20 450)" fill="#0D6FFF"/>
</g>
<defs>
<clipPath id="clip0_121_12208">
<rect x="20" y="20" width="100" height="10" rx="5" fill="white"/>
</clipPath>
<clipPath id="clip1_121_12208">
<rect x="20" y="20" width="10" height="10" rx="5" fill="white"/>
</clipPath>
<clipPath id="clip2_121_12208">
<rect x="20" y="40" width="100" height="10" rx="5" fill="white"/>
</clipPath>
<clipPath id="clip3_121_12208">
<rect x="20" y="40" width="19" height="10" rx="5" fill="white"/>
</clipPath>
<clipPath id="clip4_121_12208">
<rect x="20" y="60" width="100" height="10" rx="5" fill="white"/>
</clipPath>
<clipPath id="clip5_121_12208">
<rect x="20" y="60" width="28" height="10" rx="5" fill="white"/>
</clipPath>
<clipPath id="clip6_121_12208">
<rect x="20" y="80" width="100" height="10" rx="5" fill="white"/>
</clipPath>
<clipPath id="clip7_121_12208">
<rect x="20" y="80" width="37" height="10" rx="5" fill="white"/>
</clipPath>
<clipPath id="clip8_121_12208">
<rect x="20" y="100" width="100" height="10" rx="5" fill="white"/>
</clipPath>
<clipPath id="clip9_121_12208">
<rect x="20" y="100" width="46" height="10" rx="5" fill="white"/>
</clipPath>
<clipPath id="clip10_121_12208">
<rect x="20" y="120" width="100" height="10" rx="5" fill="white"/>
</clipPath>
<clipPath id="clip11_121_12208">
<rect x="20" y="120" width="55" height="10" rx="5" fill="white"/>
</clipPath>
<clipPath id="clip12_121_12208">
<rect x="20" y="140" width="100" height="10" rx="5" fill="white"/>
</clipPath>
<clipPath id="clip13_121_12208">
<rect x="20" y="140" width="64" height="10" rx="5" fill="white"/>
</clipPath>
<clipPath id="clip14_121_12208">
<rect x="20" y="160" width="100" height="10" rx="5" fill="white"/>
</clipPath>
<clipPath id="clip15_121_12208">
<rect x="20" y="160" width="73" height="10" rx="5" fill="white"/>
</clipPath>
<clipPath id="clip16_121_12208">
<rect x="20" y="180" width="100" height="10" rx="5" fill="white"/>
</clipPath>
<clipPath id="clip17_121_12208">
<rect x="20" y="180" width="82" height="10" rx="5" fill="white"/>
</clipPath>
<clipPath id="clip18_121_12208">
<rect x="20" y="200" width="100" height="10" rx="5" fill="white"/>
</clipPath>
<clipPath id="clip19_121_12208">
<rect x="20" y="200" width="91" height="10" rx="5" fill="white"/>
</clipPath>
<clipPath id="clip20_121_12208">
<rect x="20" y="220" width="100" height="10" rx="5" fill="white"/>
</clipPath>
<clipPath id="clip21_121_12208">
<rect x="20" y="220" width="100" height="10" rx="5" fill="white"/>
</clipPath>
<clipPath id="clip22_121_12208">
<rect x="20" y="250" width="100" height="6" rx="3" fill="white"/>
</clipPath>
<clipPath id="clip23_121_12208">
<rect x="20" y="250" width="6" height="6" rx="3" fill="white"/>
</clipPath>
<clipPath id="clip24_121_12208">
<rect x="20" y="270" width="100" height="6" rx="3" fill="white"/>
</clipPath>
<clipPath id="clip25_121_12208">
<rect x="20" y="270" width="15" height="6" rx="3" fill="white"/>
</clipPath>
<clipPath id="clip26_121_12208">
<rect x="20" y="290" width="100" height="6" rx="3" fill="white"/>
</clipPath>
<clipPath id="clip27_121_12208">
<rect x="20" y="290" width="26" height="6" rx="3" fill="white"/>
</clipPath>
<clipPath id="clip28_121_12208">
<rect x="20" y="310" width="100" height="6" rx="3" fill="white"/>
</clipPath>
<clipPath id="clip29_121_12208">
<rect x="20" y="310" width="35" height="6" rx="3" fill="white"/>
</clipPath>
<clipPath id="clip30_121_12208">
<rect x="20" y="330" width="100" height="6" rx="3" fill="white"/>
</clipPath>
<clipPath id="clip31_121_12208">
<rect x="20" y="330" width="44" height="6" rx="3" fill="white"/>
</clipPath>
<clipPath id="clip32_121_12208">
<rect x="20" y="350" width="100" height="6" rx="3" fill="white"/>
</clipPath>
<clipPath id="clip33_121_12208">
<rect x="20" y="350" width="54" height="6" rx="3" fill="white"/>
</clipPath>
<clipPath id="clip34_121_12208">
<rect x="20" y="370" width="100" height="6" rx="3" fill="white"/>
</clipPath>
<clipPath id="clip35_121_12208">
<rect x="20" y="370" width="63" height="6" rx="3" fill="white"/>
</clipPath>
<clipPath id="clip36_121_12208">
<rect x="20" y="390" width="100" height="6" rx="3" fill="white"/>
</clipPath>
<clipPath id="clip37_121_12208">
<rect x="20" y="390" width="73" height="6" rx="3" fill="white"/>
</clipPath>
<clipPath id="clip38_121_12208">
<rect x="20" y="410" width="100" height="6" rx="3" fill="white"/>
</clipPath>
<clipPath id="clip39_121_12208">
<rect x="20" y="410" width="82" height="6" rx="3" fill="white"/>
</clipPath>
<clipPath id="clip40_121_12208">
<rect x="20" y="430" width="100" height="6" rx="3" fill="white"/>
</clipPath>
<clipPath id="clip41_121_12208">
<rect x="20" y="430" width="91" height="6" rx="3" fill="white"/>
</clipPath>
<clipPath id="clip42_121_12208">
<rect x="20" y="450" width="100" height="6" rx="3" fill="white"/>
</clipPath>
<clipPath id="clip43_121_12208">
<rect x="20" y="450" width="100" height="6" rx="3" fill="white"/>
</clipPath>
</defs>
</svg>
