<svg width="140" height="400" viewBox="0 0 140 400" fill="none" xmlns="http://www.w3.org/2000/svg">
<rect x="0.5" y="0.5" width="139" height="399" rx="4.5" stroke="#9747FF" stroke-dasharray="10 5"/>
<g clip-path="url(#clip0_488_144)">
<g opacity="0.05">
<rect width="100" height="6" transform="translate(20 370)" fill="black"/>
</g>
</g>
<mask id="mask0_488_144" style="mask-type:alpha" maskUnits="userSpaceOnUse" x="20" y="370" width="48" height="6">
<rect x="20" y="370" width="48" height="6" rx="3" fill="url(#paint0_linear_488_144)"/>
</mask>
<g mask="url(#mask0_488_144)">
<rect width="100" height="6" transform="translate(20 370)" fill="#0D6FFF"/>
</g>
<g clip-path="url(#clip1_488_144)">
<g opacity="0.05">
<rect width="100" height="6" transform="translate(20 350)" fill="black"/>
</g>
</g>
<mask id="mask1_488_144" style="mask-type:alpha" maskUnits="userSpaceOnUse" x="46" y="350" width="48" height="6">
<rect x="46" y="350" width="48" height="6" rx="3" fill="url(#paint1_linear_488_144)"/>
</mask>
<g mask="url(#mask1_488_144)">
<rect width="100" height="6" transform="translate(20 350)" fill="#0D6FFF"/>
</g>
<g clip-path="url(#clip2_488_144)">
<g opacity="0.05">
<rect width="100" height="6" transform="translate(20 330)" fill="black"/>
</g>
</g>
<mask id="mask2_488_144" style="mask-type:alpha" maskUnits="userSpaceOnUse" x="72" y="330" width="48" height="6">
<rect x="72" y="330" width="48" height="6" rx="3" fill="url(#paint2_linear_488_144)"/>
</mask>
<g mask="url(#mask2_488_144)">
<rect width="100" height="6" transform="translate(20 330)" fill="#0D6FFF"/>
</g>
<g clip-path="url(#clip3_488_144)">
<g opacity="0.05">
<rect width="100" height="6" transform="translate(20 310)" fill="black"/>
</g>
</g>
<mask id="mask3_488_144" style="mask-type:alpha" maskUnits="userSpaceOnUse" x="72" y="310" width="48" height="6">
<rect x="72" y="310" width="48" height="6" rx="3" fill="url(#paint3_linear_488_144)"/>
</mask>
<g mask="url(#mask3_488_144)">
<rect width="100" height="6" transform="translate(20 310)" fill="#0D6FFF"/>
</g>
<g clip-path="url(#clip4_488_144)">
<g opacity="0.05">
<rect width="100" height="6" transform="translate(20 290)" fill="black"/>
</g>
</g>
<mask id="mask4_488_144" style="mask-type:alpha" maskUnits="userSpaceOnUse" x="46" y="290" width="48" height="6">
<rect x="46" y="290" width="48" height="6" rx="3" fill="url(#paint4_linear_488_144)"/>
</mask>
<g mask="url(#mask4_488_144)">
<rect width="100" height="6" transform="translate(20 290)" fill="#0D6FFF"/>
</g>
<g clip-path="url(#clip5_488_144)">
<g opacity="0.05">
<rect width="100" height="6" transform="translate(20 270)" fill="black"/>
</g>
</g>
<mask id="mask5_488_144" style="mask-type:alpha" maskUnits="userSpaceOnUse" x="20" y="270" width="48" height="6">
<rect x="20" y="270" width="48" height="6" rx="3" fill="url(#paint5_linear_488_144)"/>
</mask>
<g mask="url(#mask5_488_144)">
<rect width="100" height="6" transform="translate(20 270)" fill="#0D6FFF"/>
</g>
<g clip-path="url(#clip6_488_144)">
<g opacity="0.05">
<rect width="100" height="6" transform="translate(20 250)" fill="black"/>
</g>
</g>
<g clip-path="url(#clip7_488_144)">
<rect width="8" height="6" transform="translate(20 250)" fill="#0D6FFF"/>
</g>
<g clip-path="url(#clip8_488_144)">
<g opacity="0.05">
<rect width="100" height="10" transform="translate(20 140)" fill="black"/>
</g>
</g>
<mask id="mask6_488_144" style="mask-type:alpha" maskUnits="userSpaceOnUse" x="20" y="140" width="48" height="10">
<rect x="20" y="140" width="48" height="10" rx="5" fill="url(#paint6_linear_488_144)"/>
</mask>
<g mask="url(#mask6_488_144)">
<rect width="100" height="10" transform="translate(20 140)" fill="#0D6FFF"/>
</g>
<g clip-path="url(#clip9_488_144)">
<g opacity="0.05">
<rect width="100" height="10" transform="translate(20 120)" fill="black"/>
</g>
</g>
<mask id="mask7_488_144" style="mask-type:alpha" maskUnits="userSpaceOnUse" x="46" y="120" width="48" height="10">
<rect x="46" y="120" width="48" height="10" rx="5" fill="url(#paint7_linear_488_144)"/>
</mask>
<g mask="url(#mask7_488_144)">
<rect width="100" height="10" transform="translate(20 120)" fill="#0D6FFF"/>
</g>
<g clip-path="url(#clip10_488_144)">
<g opacity="0.05">
<rect width="100" height="10" transform="translate(20 100)" fill="black"/>
</g>
</g>
<mask id="mask8_488_144" style="mask-type:alpha" maskUnits="userSpaceOnUse" x="72" y="100" width="48" height="10">
<rect x="72" y="100" width="48" height="10" rx="5" fill="url(#paint8_linear_488_144)"/>
</mask>
<g mask="url(#mask8_488_144)">
<rect width="100" height="10" transform="translate(20 100)" fill="#0D6FFF"/>
</g>
<g clip-path="url(#clip11_488_144)">
<g opacity="0.05">
<rect width="100" height="10" transform="translate(20 80)" fill="black"/>
</g>
</g>
<mask id="mask9_488_144" style="mask-type:alpha" maskUnits="userSpaceOnUse" x="72" y="80" width="48" height="10">
<rect x="72" y="80" width="48" height="10" rx="5" fill="url(#paint9_linear_488_144)"/>
</mask>
<g mask="url(#mask9_488_144)">
<rect width="100" height="10" transform="translate(20 80)" fill="#0D6FFF"/>
</g>
<g clip-path="url(#clip12_488_144)">
<g opacity="0.05">
<rect width="100" height="10" transform="translate(20 60)" fill="black"/>
</g>
</g>
<mask id="mask10_488_144" style="mask-type:alpha" maskUnits="userSpaceOnUse" x="46" y="60" width="48" height="10">
<rect x="46" y="60" width="48" height="10" rx="5" fill="url(#paint10_linear_488_144)"/>
</mask>
<g mask="url(#mask10_488_144)">
<rect width="100" height="10" transform="translate(20 60)" fill="#0D6FFF"/>
</g>
<g clip-path="url(#clip13_488_144)">
<g opacity="0.05">
<rect width="100" height="10" transform="translate(20 40)" fill="black"/>
</g>
</g>
<mask id="mask11_488_144" style="mask-type:alpha" maskUnits="userSpaceOnUse" x="20" y="40" width="48" height="10">
<rect x="20" y="40" width="48" height="10" rx="5" fill="url(#paint11_linear_488_144)"/>
</mask>
<g mask="url(#mask11_488_144)">
<rect width="100" height="10" transform="translate(20 40)" fill="#0D6FFF"/>
</g>
<g clip-path="url(#clip14_488_144)">
<g opacity="0.05">
<rect width="100" height="10" transform="translate(20 20)" fill="black"/>
</g>
</g>
<g clip-path="url(#clip15_488_144)">
<rect width="10" height="10" transform="translate(20 20)" fill="#0D6FFF"/>
</g>
<defs>
<linearGradient id="paint0_linear_488_144" x1="20" y1="373" x2="68" y2="373" gradientUnits="userSpaceOnUse">
<stop/>
<stop offset="1" stop-opacity="0"/>
</linearGradient>
<linearGradient id="paint1_linear_488_144" x1="46" y1="353" x2="94" y2="353" gradientUnits="userSpaceOnUse">
<stop/>
<stop offset="1" stop-opacity="0"/>
</linearGradient>
<linearGradient id="paint2_linear_488_144" x1="72" y1="333" x2="120" y2="333" gradientUnits="userSpaceOnUse">
<stop/>
<stop offset="1" stop-opacity="0"/>
</linearGradient>
<linearGradient id="paint3_linear_488_144" x1="72" y1="313" x2="120" y2="313" gradientUnits="userSpaceOnUse">
<stop stop-opacity="0"/>
<stop offset="1"/>
</linearGradient>
<linearGradient id="paint4_linear_488_144" x1="46" y1="293" x2="94" y2="293" gradientUnits="userSpaceOnUse">
<stop stop-opacity="0"/>
<stop offset="1"/>
</linearGradient>
<linearGradient id="paint5_linear_488_144" x1="20" y1="273" x2="68" y2="273" gradientUnits="userSpaceOnUse">
<stop stop-opacity="0"/>
<stop offset="1"/>
</linearGradient>
<linearGradient id="paint6_linear_488_144" x1="20" y1="145" x2="68" y2="145" gradientUnits="userSpaceOnUse">
<stop/>
<stop offset="1" stop-opacity="0"/>
</linearGradient>
<linearGradient id="paint7_linear_488_144" x1="46" y1="125" x2="94" y2="125" gradientUnits="userSpaceOnUse">
<stop/>
<stop offset="1" stop-opacity="0"/>
</linearGradient>
<linearGradient id="paint8_linear_488_144" x1="72" y1="105" x2="120" y2="105" gradientUnits="userSpaceOnUse">
<stop/>
<stop offset="1" stop-opacity="0"/>
</linearGradient>
<linearGradient id="paint9_linear_488_144" x1="72" y1="85" x2="120" y2="85" gradientUnits="userSpaceOnUse">
<stop stop-opacity="0"/>
<stop offset="1"/>
</linearGradient>
<linearGradient id="paint10_linear_488_144" x1="46" y1="65" x2="94" y2="65" gradientUnits="userSpaceOnUse">
<stop stop-opacity="0"/>
<stop offset="1"/>
</linearGradient>
<linearGradient id="paint11_linear_488_144" x1="20" y1="45" x2="68" y2="45" gradientUnits="userSpaceOnUse">
<stop stop-opacity="0"/>
<stop offset="1"/>
</linearGradient>
<clipPath id="clip0_488_144">
<rect x="20" y="370" width="100" height="6" rx="3" fill="white"/>
</clipPath>
<clipPath id="clip1_488_144">
<rect x="20" y="350" width="100" height="6" rx="3" fill="white"/>
</clipPath>
<clipPath id="clip2_488_144">
<rect x="20" y="330" width="100" height="6" rx="3" fill="white"/>
</clipPath>
<clipPath id="clip3_488_144">
<rect x="20" y="310" width="100" height="6" rx="3" fill="white"/>
</clipPath>
<clipPath id="clip4_488_144">
<rect x="20" y="290" width="100" height="6" rx="3" fill="white"/>
</clipPath>
<clipPath id="clip5_488_144">
<rect x="20" y="270" width="100" height="6" rx="3" fill="white"/>
</clipPath>
<clipPath id="clip6_488_144">
<rect x="20" y="250" width="100" height="6" rx="3" fill="white"/>
</clipPath>
<clipPath id="clip7_488_144">
<rect x="20" y="250" width="8" height="6" rx="3" fill="white"/>
</clipPath>
<clipPath id="clip8_488_144">
<rect x="20" y="140" width="100" height="10" rx="5" fill="white"/>
</clipPath>
<clipPath id="clip9_488_144">
<rect x="20" y="120" width="100" height="10" rx="5" fill="white"/>
</clipPath>
<clipPath id="clip10_488_144">
<rect x="20" y="100" width="100" height="10" rx="5" fill="white"/>
</clipPath>
<clipPath id="clip11_488_144">
<rect x="20" y="80" width="100" height="10" rx="5" fill="white"/>
</clipPath>
<clipPath id="clip12_488_144">
<rect x="20" y="60" width="100" height="10" rx="5" fill="white"/>
</clipPath>
<clipPath id="clip13_488_144">
<rect x="20" y="40" width="100" height="10" rx="5" fill="white"/>
</clipPath>
<clipPath id="clip14_488_144">
<rect x="20" y="20" width="100" height="10" rx="5" fill="white"/>
</clipPath>
<clipPath id="clip15_488_144">
<rect x="20" y="20" width="10" height="10" rx="5" fill="white"/>
</clipPath>
</defs>
</svg>
