<svg width="170" height="170" viewBox="0 0 170 170" fill="none" xmlns="http://www.w3.org/2000/svg">
<g clip-path="url(#clip0_483_9263)">
<path d="M0 5C0 2.23858 2.23858 0 5 0H165C167.761 0 170 2.23858 170 5V165C170 167.761 167.761 170 165 170H5C2.23858 170 0 167.761 0 165V5Z" fill="#F5F5F5"/>
<g filter="url(#filter0_d_483_9263)">
<path d="M100 124C100 110.745 110.745 100 124 100C137.255 100 148 110.745 148 124C148 137.255 137.255 148 124 148C110.745 148 100 137.255 100 124Z" fill="white" fill-opacity="0.5" shape-rendering="crispEdges"/>
<path d="M100 124C100 110.745 110.745 100 124 100C137.255 100 148 110.745 148 124C148 137.255 137.255 148 124 148C110.745 148 100 137.255 100 124Z" fill="white" style="mix-blend-mode:saturation" shape-rendering="crispEdges"/>
<path d="M100 124C100 110.745 110.745 100 124 100C137.255 100 148 110.745 148 124C148 137.255 137.255 148 124 148C110.745 148 100 137.255 100 124Z" fill="#999999" style="mix-blend-mode:overlay" shape-rendering="crispEdges"/>
<path d="M100 124C100 110.745 110.745 100 124 100C137.255 100 148 110.745 148 124C148 137.255 137.255 148 124 148C110.745 148 100 137.255 100 124Z" fill="#0091FF" style="mix-blend-mode:plus-darker" shape-rendering="crispEdges"/>
</g>
<path d="M100 124C100 110.745 110.745 100 124 100C137.255 100 148 110.745 148 124C148 137.255 137.255 148 124 148C110.745 148 100 137.255 100 124Z" fill="black" fill-opacity="0.2" style="mix-blend-mode:screen"/>
<g filter="url(#filter2_d_483_9263)">
<path d="M20 124C20 110.745 30.7452 100 44 100C57.2548 100 68 110.745 68 124C68 137.255 57.2548 148 44 148C30.7452 148 20 137.255 20 124Z" fill="white" fill-opacity="0.5" shape-rendering="crispEdges"/>
<path d="M20 124C20 110.745 30.7452 100 44 100C57.2548 100 68 110.745 68 124C68 137.255 57.2548 148 44 148C30.7452 148 20 137.255 20 124Z" fill="white" style="mix-blend-mode:saturation" shape-rendering="crispEdges"/>
<path d="M20 124C20 110.745 30.7452 100 44 100C57.2548 100 68 110.745 68 124C68 137.255 57.2548 148 44 148C30.7452 148 20 137.255 20 124Z" fill="#999999" style="mix-blend-mode:overlay" shape-rendering="crispEdges"/>
<path d="M20 124C20 110.745 30.7452 100 44 100C57.2548 100 68 110.745 68 124C68 137.255 57.2548 148 44 148C30.7452 148 20 137.255 20 124Z" fill="#0091FF" style="mix-blend-mode:plus-darker" shape-rendering="crispEdges"/>
</g>
<path d="M20 124C20 110.745 30.7452 100 44 100C57.2548 100 68 110.745 68 124C68 137.255 57.2548 148 44 148C30.7452 148 20 137.255 20 124Z" fill="black" fill-opacity="0.2" style="mix-blend-mode:screen"/>
<g opacity="0.67" filter="url(#filter4_d_483_9263)">
<path d="M100 44C100 30.7452 110.745 20 124 20C137.255 20 148 30.7452 148 44C148 57.2548 137.255 68 124 68C110.745 68 100 57.2548 100 44Z" fill="#CCCCCC" fill-opacity="0.5" style="mix-blend-mode:color-burn" shape-rendering="crispEdges"/>
<path d="M100 44C100 30.7452 110.745 20 124 20C137.255 20 148 30.7452 148 44C148 57.2548 137.255 68 124 68C110.745 68 100 57.2548 100 44Z" fill="black" fill-opacity="0.6" shape-rendering="crispEdges"/>
<path d="M100 44C100 30.7452 110.745 20 124 20C137.255 20 148 30.7452 148 44C148 57.2548 137.255 68 124 68C110.745 68 100 57.2548 100 44Z" fill="white" fill-opacity="0.06" shape-rendering="crispEdges"/>
</g>
<rect x="100" y="20" width="48" height="48" rx="24" fill="black" fill-opacity="0.2" style="mix-blend-mode:screen"/>
<g filter="url(#filter6_d_483_9263)">
<path d="M20 44C20 30.7452 30.7452 20 44 20C57.2548 20 68 30.7452 68 44C68 57.2548 57.2548 68 44 68C30.7452 68 20 57.2548 20 44Z" fill="#333333" style="mix-blend-mode:color-dodge" shape-rendering="crispEdges"/>
<path d="M20 44C20 30.7452 30.7452 20 44 20C57.2548 20 68 30.7452 68 44C68 57.2548 57.2548 68 44 68C30.7452 68 20 57.2548 20 44Z" fill="white" fill-opacity="0.5" shape-rendering="crispEdges"/>
<path d="M20 44C20 30.7452 30.7452 20 44 20C57.2548 20 68 30.7452 68 44C68 57.2548 57.2548 68 44 68C30.7452 68 20 57.2548 20 44Z" fill="#F7F7F7" style="mix-blend-mode:plus-darker" shape-rendering="crispEdges"/>
</g>
<path d="M20 44C20 30.7452 30.7452 20 44 20C57.2548 20 68 30.7452 68 44C68 57.2548 57.2548 68 44 68C30.7452 68 20 57.2548 20 44Z" fill="black" fill-opacity="0.2" style="mix-blend-mode:screen"/>
</g>
<path d="M160.151 0V0.5H165C167.485 0.5 169.5 2.51472 169.5 5V9.84863H170V14.6973H169.5V24.3936H170V29.2422H169.5V38.9395H170V43.7881H169.5V53.4844H170V58.333H169.5V68.0303H170V72.8789H169.5V82.5762H170V87.4238H169.5V97.1211H170V101.97H169.5V111.667H170V116.516H169.5V126.212H170V131.061H169.5V140.758H170V145.606H169.5V155.303H170V160.151H169.5V165C169.5 167.485 167.485 169.5 165 169.5H160.151V170H155.303V169.5H145.606V170H140.758V169.5H131.061V170H126.212V169.5H116.516V170H111.667V169.5H101.97V170H97.1211V169.5H87.4238V170H82.5762V169.5H72.8789V170H68.0303V169.5H58.333V170H53.4844V169.5H43.7881V170H38.9395V169.5H29.2422V170H24.3936V169.5H14.6973V170H9.84863V169.5H5C2.51472 169.5 0.5 167.485 0.5 165V160.151H0V155.303H0.5V145.606H0V140.758H0.5V131.061H0V126.212H0.5V116.516H0V111.667H0.5V101.97H0V97.1211H0.5V87.4238H0V82.5762H0.5V72.8789H0V68.0303H0.5V58.333H0V53.4844H0.5V43.7881H0V38.9395H0.5V29.2422H0V24.3936H0.5V14.6973H0V9.84863H0.5V5C0.500003 2.51472 2.51472 0.5 5 0.5H9.84863V0H14.6973V0.5H24.3936V0H29.2422V0.5H38.9395V0H43.7881V0.5H53.4844V0H58.333V0.5H68.0303V0H72.8789V0.5H82.5762V0H87.4238V0.5H97.1211V0H101.97V0.5H111.667V0H116.516V0.5H126.212V0H131.061V0.5H140.758V0H145.606V0.5H155.303V0H160.151Z" stroke="black" stroke-opacity="0.4" stroke-dasharray="10 5"/>
<defs>
<filter id="filter0_d_483_9263" x="60" y="68" width="128" height="128" filterUnits="userSpaceOnUse" color-interpolation-filters="sRGB">
<feFlood flood-opacity="0" result="BackgroundImageFix"/>
<feColorMatrix in="SourceAlpha" type="matrix" values="0 0 0 0 0 0 0 0 0 0 0 0 0 0 0 0 0 0 127 0" result="hardAlpha"/>
<feOffset dy="8"/>
<feGaussianBlur stdDeviation="20"/>
<feComposite in2="hardAlpha" operator="out"/>
<feColorMatrix type="matrix" values="0 0 0 0 0 0 0 0 0 0 0 0 0 0 0 0 0 0 0.12 0"/>
<feBlend mode="normal" in2="BackgroundImageFix" result="effect1_dropShadow_483_9263"/>
<feBlend mode="normal" in="SourceGraphic" in2="effect1_dropShadow_483_9263" result="shape"/>
</filter>
<filter id="filter2_d_483_9263" x="-20" y="68" width="128" height="128" filterUnits="userSpaceOnUse" color-interpolation-filters="sRGB">
<feFlood flood-opacity="0" result="BackgroundImageFix"/>
<feColorMatrix in="SourceAlpha" type="matrix" values="0 0 0 0 0 0 0 0 0 0 0 0 0 0 0 0 0 0 127 0" result="hardAlpha"/>
<feOffset dy="8"/>
<feGaussianBlur stdDeviation="20"/>
<feComposite in2="hardAlpha" operator="out"/>
<feColorMatrix type="matrix" values="0 0 0 0 0 0 0 0 0 0 0 0 0 0 0 0 0 0 0.12 0"/>
<feBlend mode="normal" in2="BackgroundImageFix" result="effect1_dropShadow_483_9263"/>
<feBlend mode="normal" in="SourceGraphic" in2="effect1_dropShadow_483_9263" result="shape"/>
</filter>
<filter id="filter4_d_483_9263" x="60" y="-12" width="128" height="128" filterUnits="userSpaceOnUse" color-interpolation-filters="sRGB">
<feFlood flood-opacity="0" result="BackgroundImageFix"/>
<feColorMatrix in="SourceAlpha" type="matrix" values="0 0 0 0 0 0 0 0 0 0 0 0 0 0 0 0 0 0 127 0" result="hardAlpha"/>
<feOffset dy="8"/>
<feGaussianBlur stdDeviation="20"/>
<feComposite in2="hardAlpha" operator="out"/>
<feColorMatrix type="matrix" values="0 0 0 0 0 0 0 0 0 0 0 0 0 0 0 0 0 0 0.12 0"/>
<feBlend mode="normal" in2="BackgroundImageFix" result="effect1_dropShadow_483_9263"/>
<feBlend mode="normal" in="SourceGraphic" in2="effect1_dropShadow_483_9263" result="shape"/>
</filter>
<filter id="filter6_d_483_9263" x="-20" y="-12" width="128" height="128" filterUnits="userSpaceOnUse" color-interpolation-filters="sRGB">
<feFlood flood-opacity="0" result="BackgroundImageFix"/>
<feColorMatrix in="SourceAlpha" type="matrix" values="0 0 0 0 0 0 0 0 0 0 0 0 0 0 0 0 0 0 127 0" result="hardAlpha"/>
<feOffset dy="8"/>
<feGaussianBlur stdDeviation="20"/>
<feComposite in2="hardAlpha" operator="out"/>
<feColorMatrix type="matrix" values="0 0 0 0 0 0 0 0 0 0 0 0 0 0 0 0 0 0 0.12 0"/>
<feBlend mode="normal" in2="BackgroundImageFix" result="effect1_dropShadow_483_9263"/>
<feBlend mode="normal" in="SourceGraphic" in2="effect1_dropShadow_483_9263" result="shape"/>
</filter>
<clipPath id="clip0_483_9263">
<path d="M0 5C0 2.23858 2.23858 0 5 0H165C167.761 0 170 2.23858 170 5V165C170 167.761 167.761 170 165 170H5C2.23858 170 0 167.761 0 165V5Z" fill="white"/>
</clipPath>
</defs>
</svg>
