<svg width="400" height="200" viewBox="0 0 400 200" fill="none" xmlns="http://www.w3.org/2000/svg">
<g clip-path="url(#clip0_483_9237)">
<path d="M0 0H400V200H0V0Z" fill="#AAAAAA"/>
<g opacity="0.67" filter="url(#filter0_d_483_9237)">
<path d="M210 74.4C210 55.3582 210 45.8373 213.706 38.5643C216.965 32.1668 222.167 26.9655 228.564 23.7058C235.837 20 245.358 20 264.4 20H315.6C334.642 20 344.163 20 351.436 23.7058C357.833 26.9655 363.035 32.1668 366.294 38.5643C370 45.8373 370 55.3582 370 74.4V125.6C370 144.642 370 154.163 366.294 161.436C363.035 167.833 357.833 173.035 351.436 176.294C344.163 180 334.642 180 315.6 180H264.4C245.358 180 235.837 180 228.564 176.294C222.167 173.035 216.965 167.833 213.706 161.436C210 154.163 210 144.642 210 125.6V74.4Z" fill="#CCCCCC" style="mix-blend-mode:color-burn" shape-rendering="crispEdges"/>
<path d="M210 74.4C210 55.3582 210 45.8373 213.706 38.5643C216.965 32.1668 222.167 26.9655 228.564 23.7058C235.837 20 245.358 20 264.4 20H315.6C334.642 20 344.163 20 351.436 23.7058C357.833 26.9655 363.035 32.1668 366.294 38.5643C370 45.8373 370 55.3582 370 74.4V125.6C370 144.642 370 154.163 366.294 161.436C363.035 167.833 357.833 173.035 351.436 176.294C344.163 180 334.642 180 315.6 180H264.4C245.358 180 235.837 180 228.564 176.294C222.167 173.035 216.965 167.833 213.706 161.436C210 154.163 210 144.642 210 125.6V74.4Z" fill="black" fill-opacity="0.85" shape-rendering="crispEdges"/>
<path d="M210 74.4C210 55.3582 210 45.8373 213.706 38.5643C216.965 32.1668 222.167 26.9655 228.564 23.7058C235.837 20 245.358 20 264.4 20H315.6C334.642 20 344.163 20 351.436 23.7058C357.833 26.9655 363.035 32.1668 366.294 38.5643C370 45.8373 370 55.3582 370 74.4V125.6C370 144.642 370 154.163 366.294 161.436C363.035 167.833 357.833 173.035 351.436 176.294C344.163 180 334.642 180 315.6 180H264.4C245.358 180 235.837 180 228.564 176.294C222.167 173.035 216.965 167.833 213.706 161.436C210 154.163 210 144.642 210 125.6V74.4Z" fill="white" fill-opacity="0.03" shape-rendering="crispEdges"/>
</g>
<path d="M210 74.4C210 55.3582 210 45.8373 213.706 38.5643C216.965 32.1668 222.167 26.9655 228.564 23.7058C235.837 20 245.358 20 264.4 20H315.6C334.642 20 344.163 20 351.436 23.7058C357.833 26.9655 363.035 32.1668 366.294 38.5643C370 45.8373 370 55.3582 370 74.4V125.6C370 144.642 370 154.163 366.294 161.436C363.035 167.833 357.833 173.035 351.436 176.294C344.163 180 334.642 180 315.6 180H264.4C245.358 180 235.837 180 228.564 176.294C222.167 173.035 216.965 167.833 213.706 161.436C210 154.163 210 144.642 210 125.6V74.4Z" fill="black" fill-opacity="0.2" style="mix-blend-mode:screen"/>
<g filter="url(#filter2_d_483_9237)">
<path d="M20 74.4C20 55.3582 20 45.8373 23.7058 38.5643C26.9655 32.1668 32.1668 26.9655 38.5643 23.7058C45.8373 20 55.3582 20 74.4 20H125.6C144.642 20 154.163 20 161.436 23.7058C167.833 26.9655 173.035 32.1668 176.294 38.5643C180 45.8373 180 55.3582 180 74.4V125.6C180 144.642 180 154.163 176.294 161.436C173.035 167.833 167.833 173.035 161.436 176.294C154.163 180 144.642 180 125.6 180H74.4C55.3582 180 45.8373 180 38.5643 176.294C32.1668 173.035 26.9655 167.833 23.7058 161.436C20 154.163 20 144.642 20 125.6V74.4Z" fill="#262626" style="mix-blend-mode:color-dodge" shape-rendering="crispEdges"/>
<path d="M20 74.4C20 55.3582 20 45.8373 23.7058 38.5643C26.9655 32.1668 32.1668 26.9655 38.5643 23.7058C45.8373 20 55.3582 20 74.4 20H125.6C144.642 20 154.163 20 161.436 23.7058C167.833 26.9655 173.035 32.1668 176.294 38.5643C180 45.8373 180 55.3582 180 74.4V125.6C180 144.642 180 154.163 176.294 161.436C173.035 167.833 167.833 173.035 161.436 176.294C154.163 180 144.642 180 125.6 180H74.4C55.3582 180 45.8373 180 38.5643 176.294C32.1668 173.035 26.9655 167.833 23.7058 161.436C20 154.163 20 144.642 20 125.6V74.4Z" fill="#FAFAFA" fill-opacity="0.8" shape-rendering="crispEdges"/>
</g>
<path d="M20 74.4C20 55.3582 20 45.8373 23.7058 38.5643C26.9655 32.1668 32.1668 26.9655 38.5643 23.7058C45.8373 20 55.3582 20 74.4 20H125.6C144.642 20 154.163 20 161.436 23.7058C167.833 26.9655 173.035 32.1668 176.294 38.5643C180 45.8373 180 55.3582 180 74.4V125.6C180 144.642 180 154.163 176.294 161.436C173.035 167.833 167.833 173.035 161.436 176.294C154.163 180 144.642 180 125.6 180H74.4C55.3582 180 45.8373 180 38.5643 176.294C32.1668 173.035 26.9655 167.833 23.7058 161.436C20 154.163 20 144.642 20 125.6V74.4Z" fill="black" fill-opacity="0.2" style="mix-blend-mode:screen"/>
</g>
<path d="M395.062 0V0.5H399.5V5.12793H400V10.2568H399.5V20.5127H400V25.6406H399.5V35.8975H400V41.0254H399.5V51.2822H400V56.4102H399.5V66.667H400V71.7949H399.5V82.0518H400V87.1797H399.5V97.4355H400V102.564H399.5V112.82H400V117.948H399.5V128.205H400V133.333H399.5V143.59H400V148.718H399.5V158.975H400V164.103H399.5V174.359H400V179.487H399.5V189.743H400V194.872H399.5V199.5H395.062V200H390.123V199.5H380.247V200H375.309V199.5H365.433V200H360.494V199.5H350.617V200H345.679V199.5H335.803V200H330.864V199.5H320.987V200H316.05V199.5H306.173V200H301.234V199.5H291.358V200H286.42V199.5H276.543V200H271.605V199.5H261.729V200H256.79V199.5H246.914V200H241.976V199.5H232.099V200H227.16V199.5H217.284V200H212.346V199.5H202.469V200H197.531V199.5H187.654V200H182.716V199.5H172.84V200H167.901V199.5H158.024V200H153.086V199.5H143.21V200H138.271V199.5H128.396V200H123.457V199.5H113.58V200H108.642V199.5H98.7656V200H93.8271V199.5H83.9502V200H79.0127V199.5H69.1357V200H64.1973V199.5H54.3213V200H49.3828V199.5H39.5059V200H34.5684V199.5H24.6914V200H19.7529V199.5H9.87695V200H4.93848V199.5H0.5V194.872H0V189.743H0.5V179.487H0V174.359H0.5V164.103H0V158.975H0.5V148.718H0V143.59H0.5V133.333H0V128.205H0.5V117.948H0V112.82H0.5V102.564H0V97.4355H0.5V87.1797H0V82.0518H0.5V71.7949H0V66.667H0.5V56.4102H0V51.2822H0.5V41.0254H0V35.8975H0.5V25.6406H0V20.5127H0.5V10.2568H0V5.12793H0.5V0.5H4.93848V0H9.87695V0.5H19.7529V0H24.6914V0.5H34.5674V0H39.5059V0.5H49.3828V0H54.3213V0.5H64.1973V0H69.1357V0.5H79.0127V0H83.9502V0.5H93.8271V0H98.7656V0.5H108.642V0H113.58V0.5H123.457V0H128.395V0.5H138.271V0H143.21V0.5H153.086V0H158.024V0.5H167.901V0H172.84V0.5H182.716V0H187.654V0.5H197.531V0H202.469V0.5H212.346V0H217.284V0.5H227.16V0H232.099V0.5H241.976V0H246.914V0.5H256.79V0H261.729V0.5H271.604V0H276.543V0.5H286.42V0H291.358V0.5H301.234V0H306.173V0.5H316.05V0H320.987V0.5H330.864V0H335.803V0.5H345.679V0H350.617V0.5H360.494V0H365.432V0.5H375.309V0H380.247V0.5H390.123V0H395.062Z" stroke="black" stroke-opacity="0.4" stroke-dasharray="10 5"/>
<defs>
<filter id="filter0_d_483_9237" x="170" y="-12" width="240" height="240" filterUnits="userSpaceOnUse" color-interpolation-filters="sRGB">
<feFlood flood-opacity="0" result="BackgroundImageFix"/>
<feColorMatrix in="SourceAlpha" type="matrix" values="0 0 0 0 0 0 0 0 0 0 0 0 0 0 0 0 0 0 127 0" result="hardAlpha"/>
<feOffset dy="8"/>
<feGaussianBlur stdDeviation="20"/>
<feComposite in2="hardAlpha" operator="out"/>
<feColorMatrix type="matrix" values="0 0 0 0 0 0 0 0 0 0 0 0 0 0 0 0 0 0 0.12 0"/>
<feBlend mode="normal" in2="BackgroundImageFix" result="effect1_dropShadow_483_9237"/>
<feBlend mode="normal" in="SourceGraphic" in2="effect1_dropShadow_483_9237" result="shape"/>
</filter>
<filter id="filter2_d_483_9237" x="-20" y="-12" width="240" height="240" filterUnits="userSpaceOnUse" color-interpolation-filters="sRGB">
<feFlood flood-opacity="0" result="BackgroundImageFix"/>
<feColorMatrix in="SourceAlpha" type="matrix" values="0 0 0 0 0 0 0 0 0 0 0 0 0 0 0 0 0 0 127 0" result="hardAlpha"/>
<feOffset dy="8"/>
<feGaussianBlur stdDeviation="20"/>
<feComposite in2="hardAlpha" operator="out"/>
<feColorMatrix type="matrix" values="0 0 0 0 0 0 0 0 0 0 0 0 0 0 0 0 0 0 0.12 0"/>
<feBlend mode="normal" in2="BackgroundImageFix" result="effect1_dropShadow_483_9237"/>
<feBlend mode="normal" in="SourceGraphic" in2="effect1_dropShadow_483_9237" result="shape"/>
</filter>
<clipPath id="clip0_483_9237">
<path d="M0 0H400V200H0V0Z" fill="white"/>
</clipPath>
</defs>
</svg>
