<svg width="380" height="390" viewBox="0 0 380 390" fill="none" xmlns="http://www.w3.org/2000/svg">
<path d="M40 42C40 40.8954 40.8954 40 42 40H338C339.105 40 340 40.8954 340 42V348C340 349.105 339.105 350 338 350H42C40.8954 350 40 349.105 40 348V42Z" fill="#F5F5F5"/>
<path d="M42 40V41H338V40V39H42V40ZM340 42H339V348H340H341V42H340ZM338 350V349H42V350V351H338V350ZM40 348H41V42H40H39V348H40ZM42 350V349C41.4477 349 41 348.552 41 348H40H39C39 349.657 40.3431 351 42 351V350ZM340 348H339C339 348.552 338.552 349 338 349V350V351C339.657 351 341 349.657 341 348H340ZM338 40V41C338.552 41 339 41.4477 339 42H340H341C341 40.3431 339.657 39 338 39V40ZM42 40V39C40.3431 39 39 40.3431 39 42H40H41C41 41.4477 41.4477 41 42 41V40Z" fill="black" fill-opacity="0.4"/>
<g opacity="0.5">
<rect x="90" y="90" width="200" height="200" rx="12" fill="black" fill-opacity="0.03"/>
</g>
<rect x="40" y="4" width="78.1406" height="30" rx="3" fill="#F5F5F5"/>
<rect x="40.5" y="4.5" width="77.1406" height="29" rx="2.5" stroke="black" stroke-opacity="0.2"/>
<path d="M52.4375 16.5C52.3516 16.237 52.2383 16.0013 52.0977 15.793C51.9596 15.582 51.7943 15.4023 51.6016 15.2539C51.4115 15.1055 51.1953 14.9922 50.9531 14.9141C50.7109 14.8359 50.4453 14.7969 50.1562 14.7969C49.6823 14.7969 49.2513 14.9193 48.8633 15.1641C48.4753 15.4089 48.1667 15.7695 47.9375 16.2461C47.7083 16.7227 47.5938 17.3073 47.5938 18C47.5938 18.6927 47.7096 19.2773 47.9414 19.7539C48.1732 20.2305 48.487 20.5911 48.8828 20.8359C49.2786 21.0807 49.724 21.2031 50.2188 21.2031C50.6771 21.2031 51.0807 21.1055 51.4297 20.9102C51.7813 20.7122 52.0547 20.4336 52.25 20.0742C52.4479 19.7122 52.5469 19.2865 52.5469 18.7969L52.8438 18.8594H50.4375V18H53.4844V18.8594C53.4844 19.5182 53.3438 20.0911 53.0625 20.5781C52.7839 21.0651 52.3984 21.4427 51.9062 21.7109C51.4167 21.9766 50.8542 22.1094 50.2188 22.1094C49.5104 22.1094 48.888 21.9427 48.3516 21.6094C47.8177 21.276 47.401 20.8021 47.1016 20.1875C46.8047 19.5729 46.6563 18.8437 46.6563 18C46.6563 17.3672 46.7409 16.7982 46.9102 16.293C47.082 15.7852 47.3242 15.3529 47.6367 14.9961C47.9492 14.6393 48.319 14.3659 48.7461 14.1758C49.1732 13.9857 49.6432 13.8906 50.1562 13.8906C50.5781 13.8906 50.9714 13.9544 51.3359 14.082C51.7031 14.207 52.0299 14.3854 52.3164 14.6172C52.6055 14.8464 52.8464 15.1211 53.0391 15.4414C53.2318 15.7591 53.3646 16.112 53.4375 16.5H52.4375ZM55.0186 22V16H55.9092V16.9062H55.9717C56.0811 16.6094 56.279 16.3685 56.5654 16.1836C56.8519 15.9987 57.1748 15.9062 57.5342 15.9062C57.6019 15.9062 57.6865 15.9076 57.7881 15.9102C57.8896 15.9128 57.9665 15.9167 58.0186 15.9219V16.8594C57.9873 16.8516 57.9157 16.8398 57.8037 16.8242C57.6943 16.806 57.5785 16.7969 57.4561 16.7969C57.1644 16.7969 56.904 16.8581 56.6748 16.9805C56.4482 17.1003 56.2686 17.2669 56.1357 17.4805C56.0055 17.6914 55.9404 17.9323 55.9404 18.2031V22H55.0186ZM61.3662 22.125C60.8245 22.125 60.3493 21.9961 59.9404 21.7383C59.5342 21.4805 59.2165 21.1198 58.9873 20.6562C58.7607 20.1927 58.6475 19.651 58.6475 19.0312C58.6475 18.4062 58.7607 17.8607 58.9873 17.3945C59.2165 16.9284 59.5342 16.5664 59.9404 16.3086C60.3493 16.0508 60.8245 15.9219 61.3662 15.9219C61.9079 15.9219 62.3818 16.0508 62.7881 16.3086C63.1969 16.5664 63.5146 16.9284 63.7412 17.3945C63.9704 17.8607 64.085 18.4062 64.085 19.0312C64.085 19.651 63.9704 20.1927 63.7412 20.6562C63.5146 21.1198 63.1969 21.4805 62.7881 21.7383C62.3818 21.9961 61.9079 22.125 61.3662 22.125ZM61.3662 21.2969C61.7777 21.2969 62.1162 21.1914 62.3818 20.9805C62.6475 20.7695 62.8441 20.4922 62.9717 20.1484C63.0993 19.8047 63.1631 19.4323 63.1631 19.0312C63.1631 18.6302 63.0993 18.2565 62.9717 17.9102C62.8441 17.5638 62.6475 17.2839 62.3818 17.0703C62.1162 16.8568 61.7777 16.75 61.3662 16.75C60.9548 16.75 60.6162 16.8568 60.3506 17.0703C60.085 17.2839 59.8883 17.5638 59.7607 17.9102C59.6331 18.2565 59.5693 18.6302 59.5693 19.0312C59.5693 19.4323 59.6331 19.8047 59.7607 20.1484C59.8883 20.4922 60.085 20.7695 60.3506 20.9805C60.6162 21.1914 60.9548 21.2969 61.3662 21.2969ZM69.2734 19.5469V16H70.1953V22H69.2734V20.9844H69.2109C69.0703 21.2891 68.8516 21.5482 68.5547 21.7617C68.2578 21.9727 67.8828 22.0781 67.4297 22.0781C67.0547 22.0781 66.7214 21.9961 66.4297 21.832C66.138 21.6654 65.9089 21.4154 65.7422 21.082C65.5755 20.7461 65.4922 20.3229 65.4922 19.8125V16H66.4141V19.75C66.4141 20.1875 66.5365 20.5365 66.7813 20.7969C67.0286 21.0573 67.3438 21.1875 67.7266 21.1875C67.9557 21.1875 68.1888 21.1289 68.4258 21.0117C68.6654 20.8945 68.8659 20.7148 69.0273 20.4727C69.1914 20.2305 69.2734 19.9219 69.2734 19.5469ZM71.8838 24.25V16H72.7744V16.9531H72.8838C72.9515 16.849 73.0452 16.7161 73.165 16.5547C73.2874 16.3906 73.4619 16.2448 73.6885 16.1172C73.9176 15.987 74.2275 15.9219 74.6182 15.9219C75.1234 15.9219 75.5687 16.0482 75.9541 16.3008C76.3395 16.5534 76.6403 16.9115 76.8564 17.375C77.0726 17.8385 77.1807 18.3854 77.1807 19.0156C77.1807 19.651 77.0726 20.2018 76.8564 20.668C76.6403 21.1315 76.3408 21.4909 75.958 21.7461C75.5752 21.9987 75.1338 22.125 74.6338 22.125C74.2484 22.125 73.9398 22.0612 73.708 21.9336C73.4762 21.8034 73.2979 21.6562 73.1729 21.4922C73.0479 21.3255 72.9515 21.1875 72.8838 21.0781H72.8057V24.25H71.8838ZM72.79 19C72.79 19.4531 72.8564 19.8529 72.9893 20.1992C73.1221 20.543 73.3161 20.8125 73.5713 21.0078C73.8265 21.2005 74.139 21.2969 74.5088 21.2969C74.8942 21.2969 75.2158 21.1953 75.4736 20.9922C75.734 20.7865 75.9294 20.5104 76.0596 20.1641C76.1924 19.8151 76.2588 19.4271 76.2588 19C76.2588 18.5781 76.1937 18.1979 76.0635 17.8594C75.9359 17.5182 75.7419 17.2487 75.4814 17.0508C75.2236 16.8503 74.8994 16.75 74.5088 16.75C74.1338 16.75 73.8187 16.8451 73.5635 17.0352C73.3083 17.2227 73.1156 17.4857 72.9854 17.8242C72.8551 18.1602 72.79 18.5521 72.79 19ZM81.8057 22V14H84.6025C85.1598 14 85.6195 14.0964 85.9814 14.2891C86.3434 14.4792 86.613 14.7357 86.79 15.0586C86.9671 15.3789 87.0557 15.7344 87.0557 16.125C87.0557 16.4687 86.9945 16.7526 86.8721 16.9766C86.7523 17.2005 86.5934 17.3776 86.3955 17.5078C86.2002 17.638 85.988 17.7344 85.7588 17.7969V17.875C86.0036 17.8906 86.2497 17.9766 86.4971 18.1328C86.7445 18.2891 86.9515 18.513 87.1182 18.8047C87.2848 19.0964 87.3682 19.4531 87.3682 19.875C87.3682 20.276 87.277 20.6367 87.0947 20.957C86.9124 21.2773 86.6247 21.5312 86.2314 21.7187C85.8382 21.9062 85.3265 22 84.6963 22H81.8057ZM82.7744 21.1406H84.6963C85.3291 21.1406 85.7783 21.0182 86.0439 20.7734C86.3122 20.526 86.4463 20.2266 86.4463 19.875C86.4463 19.6042 86.3773 19.3542 86.2393 19.125C86.1012 18.8932 85.9046 18.7083 85.6494 18.5703C85.3942 18.4297 85.0921 18.3594 84.7432 18.3594H82.7744V21.1406ZM82.7744 17.5156H84.5713C84.863 17.5156 85.126 17.4583 85.3604 17.3437C85.5973 17.2292 85.7848 17.0677 85.9229 16.8594C86.0635 16.651 86.1338 16.4062 86.1338 16.125C86.1338 15.7734 86.0114 15.4753 85.7666 15.2305C85.5218 14.9831 85.1338 14.8594 84.6025 14.8594H82.7744V17.5156ZM91.2725 22.125C90.7308 22.125 90.2555 21.9961 89.8467 21.7383C89.4404 21.4805 89.1227 21.1198 88.8936 20.6562C88.667 20.1927 88.5537 19.651 88.5537 19.0312C88.5537 18.4062 88.667 17.8607 88.8936 17.3945C89.1227 16.9284 89.4404 16.5664 89.8467 16.3086C90.2555 16.0508 90.7308 15.9219 91.2725 15.9219C91.8141 15.9219 92.2881 16.0508 92.6943 16.3086C93.1032 16.5664 93.4209 16.9284 93.6475 17.3945C93.8766 17.8607 93.9912 18.4062 93.9912 19.0312C93.9912 19.651 93.8766 20.1927 93.6475 20.6562C93.4209 21.1198 93.1032 21.4805 92.6943 21.7383C92.2881 21.9961 91.8141 22.125 91.2725 22.125ZM91.2725 21.2969C91.6839 21.2969 92.0225 21.1914 92.2881 20.9805C92.5537 20.7695 92.7503 20.4922 92.8779 20.1484C93.0055 19.8047 93.0693 19.4323 93.0693 19.0312C93.0693 18.6302 93.0055 18.2565 92.8779 17.9102C92.7503 17.5638 92.5537 17.2839 92.2881 17.0703C92.0225 16.8568 91.6839 16.75 91.2725 16.75C90.861 16.75 90.5225 16.8568 90.2568 17.0703C89.9912 17.2839 89.7946 17.5638 89.667 17.9102C89.5394 18.2565 89.4756 18.6302 89.4756 19.0312C89.4756 19.4323 89.5394 19.8047 89.667 20.1484C89.7946 20.4922 89.9912 20.7695 90.2568 20.9805C90.5225 21.1914 90.861 21.2969 91.2725 21.2969ZM95.8389 16L97.2764 18.4531L98.7139 16H99.7764L97.8389 19L99.7764 22H98.7139L97.2764 19.6719L95.8389 22H94.7764L96.6826 19L94.7764 16H95.8389ZM103.36 22.125C102.782 22.125 102.284 21.9974 101.864 21.7422C101.448 21.4844 101.126 21.125 100.899 20.6641C100.675 20.2005 100.563 19.6615 100.563 19.0469C100.563 18.4323 100.675 17.8906 100.899 17.4219C101.126 16.9505 101.441 16.5833 101.845 16.3203C102.251 16.0547 102.725 15.9219 103.267 15.9219C103.579 15.9219 103.888 15.974 104.192 16.0781C104.497 16.1823 104.774 16.3516 105.024 16.5859C105.274 16.8177 105.474 17.125 105.622 17.5078C105.771 17.8906 105.845 18.362 105.845 18.9219V19.3125H101.22V18.5156H104.907C104.907 18.1771 104.84 17.875 104.704 17.6094C104.571 17.3437 104.381 17.1341 104.134 16.9805C103.889 16.8268 103.6 16.75 103.267 16.75C102.899 16.75 102.582 16.8411 102.313 17.0234C102.048 17.2031 101.843 17.4375 101.7 17.7266C101.557 18.0156 101.485 18.3255 101.485 18.6562V19.1875C101.485 19.6406 101.563 20.0247 101.72 20.3398C101.879 20.6523 102.099 20.8906 102.38 21.0547C102.661 21.2161 102.988 21.2969 103.36 21.2969C103.603 21.2969 103.821 21.263 104.017 21.1953C104.215 21.125 104.385 21.0208 104.528 20.8828C104.672 20.7422 104.782 20.5677 104.86 20.3594L105.751 20.6094C105.657 20.9115 105.5 21.1771 105.278 21.4062C105.057 21.6328 104.784 21.8099 104.458 21.9375C104.132 22.0625 103.767 22.125 103.36 22.125ZM111.497 17.3437L110.669 17.5781C110.617 17.4401 110.54 17.306 110.438 17.1758C110.34 17.043 110.204 16.9336 110.032 16.8477C109.86 16.7617 109.64 16.7187 109.372 16.7187C109.005 16.7187 108.699 16.8034 108.454 16.9727C108.212 17.1393 108.091 17.3516 108.091 17.6094C108.091 17.8385 108.174 18.0195 108.341 18.1523C108.507 18.2852 108.768 18.3958 109.122 18.4844L110.013 18.7031C110.549 18.8333 110.949 19.0326 111.212 19.3008C111.475 19.5664 111.606 19.9089 111.606 20.3281C111.606 20.6719 111.507 20.9792 111.31 21.25C111.114 21.5208 110.841 21.7344 110.489 21.8906C110.138 22.0469 109.729 22.125 109.263 22.125C108.651 22.125 108.144 21.9922 107.743 21.7266C107.342 21.4609 107.088 21.0729 106.981 20.5625L107.856 20.3437C107.94 20.6667 108.097 20.9089 108.329 21.0703C108.563 21.2318 108.869 21.3125 109.247 21.3125C109.677 21.3125 110.018 21.2214 110.271 21.0391C110.526 20.8542 110.653 20.6328 110.653 20.375C110.653 20.1667 110.58 19.9922 110.435 19.8516C110.289 19.7083 110.065 19.6016 109.763 19.5312L108.763 19.2969C108.213 19.1667 107.81 18.9648 107.552 18.6914C107.297 18.4154 107.169 18.0703 107.169 17.6562C107.169 17.3177 107.264 17.0182 107.454 16.7578C107.647 16.4974 107.909 16.293 108.239 16.1445C108.573 15.9961 108.95 15.9219 109.372 15.9219C109.966 15.9219 110.432 16.0521 110.771 16.3125C111.112 16.5729 111.354 16.9167 111.497 17.3437Z" fill="black"/>
</svg>
