<svg width="420" height="390" viewBox="0 0 420 390" fill="none" xmlns="http://www.w3.org/2000/svg">
<path d="M40 42C40 40.8954 40.8954 40 42 40H378C379.105 40 380 40.8954 380 42V348C380 349.105 379.105 350 378 350H42C40.8954 350 40 349.105 40 348V42Z" fill="#ECEBEB"/>
<path d="M42 40V41H378V40V39H42V40ZM380 42H379V348H380H381V42H380ZM378 350V349H42V350V351H378V350ZM40 348H41V42H40H39V348H40ZM42 350V349C41.4477 349 41 348.552 41 348H40H39C39 349.657 40.3432 351 42 351V350ZM380 348H379C379 348.552 378.552 349 378 349V350V351C379.657 351 381 349.657 381 348H380ZM378 40V41C378.552 41 379 41.4477 379 42H380H381C381 40.3431 379.657 39 378 39V40ZM42 40V39C40.3431 39 39 40.3431 39 42H40H41C41 41.4477 41.4477 41 42 41V40Z" fill="black" fill-opacity="0.1"/>
<g clip-path="url(#clip0_207_14470)">
<g clip-path="url(#clip1_207_14470)">
<g opacity="0.05">
<rect width="16" height="16" transform="translate(250 210)" fill="black"/>
</g>
</g>
</g>
<path d="M270.149 223V213.84H271.571V221.769H275.868V223H270.149ZM279.397 223.114C278.962 223.114 278.57 223.032 278.223 222.867C277.88 222.697 277.61 222.458 277.411 222.149C277.212 221.84 277.112 221.479 277.112 221.064V221.051C277.112 220.637 277.212 220.283 277.411 219.991C277.614 219.699 277.906 219.471 278.287 219.306C278.672 219.136 279.137 219.035 279.683 219.001L282.229 218.849V219.82L279.874 219.972C279.4 220.002 279.05 220.103 278.826 220.277C278.602 220.446 278.49 220.685 278.49 220.994V221.007C278.49 221.32 278.61 221.568 278.852 221.75C279.093 221.927 279.397 222.016 279.766 222.016C280.108 222.016 280.413 221.948 280.68 221.813C280.951 221.673 281.162 221.487 281.314 221.254C281.467 221.017 281.543 220.751 281.543 220.455V218.284C281.543 217.903 281.424 217.613 281.188 217.414C280.955 217.211 280.608 217.109 280.146 217.109C279.761 217.109 279.446 217.177 279.201 217.312C278.959 217.448 278.799 217.638 278.718 217.884L278.706 217.903H277.379L277.385 217.858C277.44 217.478 277.59 217.147 277.836 216.868C278.086 216.585 278.411 216.365 278.813 216.208C279.22 216.051 279.683 215.973 280.204 215.973C280.783 215.973 281.274 216.066 281.676 216.252C282.083 216.434 282.389 216.699 282.597 217.046C282.808 217.389 282.914 217.801 282.914 218.284V223H281.543V222.022H281.441C281.306 222.255 281.137 222.454 280.934 222.619C280.73 222.78 280.5 222.903 280.242 222.987C279.984 223.072 279.702 223.114 279.397 223.114ZM288.525 223.114C288.204 223.114 287.908 223.068 287.637 222.975C287.366 222.877 287.125 222.74 286.913 222.562C286.706 222.38 286.536 222.164 286.405 221.915H286.297V223H284.92V213.402H286.297V217.198H286.405C286.528 216.949 286.695 216.735 286.907 216.557C287.118 216.375 287.362 216.236 287.637 216.138C287.912 216.037 288.208 215.986 288.525 215.986C289.109 215.986 289.615 216.132 290.042 216.424C290.47 216.712 290.8 217.122 291.033 217.655C291.265 218.188 291.382 218.819 291.382 219.547V219.56C291.382 220.283 291.263 220.912 291.026 221.445C290.794 221.978 290.464 222.391 290.036 222.683C289.609 222.97 289.105 223.114 288.525 223.114ZM288.132 221.934C288.517 221.934 288.847 221.838 289.122 221.648C289.397 221.458 289.607 221.185 289.75 220.829C289.899 220.474 289.973 220.05 289.973 219.56V219.547C289.973 219.052 289.899 218.629 289.75 218.277C289.607 217.922 289.397 217.649 289.122 217.458C288.847 217.264 288.517 217.167 288.132 217.167C287.751 217.167 287.421 217.264 287.142 217.458C286.862 217.649 286.649 217.922 286.5 218.277C286.352 218.633 286.278 219.056 286.278 219.547V219.56C286.278 220.046 286.352 220.469 286.5 220.829C286.649 221.185 286.862 221.458 287.142 221.648C287.421 221.838 287.751 221.934 288.132 221.934ZM295.914 223.133C295.241 223.133 294.664 222.989 294.181 222.702C293.699 222.41 293.326 221.997 293.064 221.464C292.806 220.931 292.677 220.3 292.677 219.572V219.566C292.677 218.847 292.806 218.218 293.064 217.681C293.326 217.143 293.694 216.724 294.168 216.424C294.647 216.123 295.205 215.973 295.844 215.973C296.487 215.973 297.04 216.117 297.501 216.405C297.966 216.693 298.324 217.097 298.574 217.617C298.823 218.133 298.948 218.739 298.948 219.433V219.915H293.375V218.931H298.263L297.603 219.845V219.293C297.603 218.802 297.526 218.396 297.374 218.074C297.226 217.748 297.021 217.505 296.758 217.344C296.496 217.183 296.193 217.103 295.851 217.103C295.508 217.103 295.201 217.188 294.93 217.357C294.664 217.522 294.452 217.767 294.295 218.093C294.143 218.419 294.067 218.819 294.067 219.293V219.845C294.067 220.298 294.143 220.685 294.295 221.007C294.448 221.328 294.664 221.574 294.943 221.743C295.226 221.912 295.561 221.997 295.946 221.997C296.242 221.997 296.496 221.957 296.708 221.876C296.923 221.792 297.099 221.688 297.234 221.565C297.374 221.443 297.469 221.322 297.52 221.204L297.545 221.153H298.878L298.866 221.21C298.806 221.438 298.703 221.667 298.555 221.896C298.407 222.12 298.21 222.325 297.964 222.511C297.723 222.697 297.431 222.848 297.088 222.962C296.75 223.076 296.358 223.133 295.914 223.133ZM300.649 223V213.402H302.027V223H300.649Z" fill="#1A1A1A"/>
<g clip-path="url(#clip2_207_14470)">
<g clip-path="url(#clip3_207_14470)">
<g opacity="0.15">
<rect width="16" height="16" transform="translate(250 240)" fill="black"/>
</g>
</g>
</g>
<path d="M270.149 253V243.84H271.571V251.769H275.868V253H270.149ZM279.397 253.114C278.962 253.114 278.57 253.032 278.223 252.867C277.88 252.697 277.61 252.458 277.411 252.149C277.212 251.84 277.112 251.479 277.112 251.064V251.051C277.112 250.637 277.212 250.283 277.411 249.991C277.614 249.699 277.906 249.471 278.287 249.306C278.672 249.136 279.137 249.035 279.683 249.001L282.229 248.849V249.82L279.874 249.972C279.4 250.002 279.05 250.103 278.826 250.277C278.602 250.446 278.49 250.685 278.49 250.994V251.007C278.49 251.32 278.61 251.568 278.852 251.75C279.093 251.927 279.397 252.016 279.766 252.016C280.108 252.016 280.413 251.948 280.68 251.813C280.951 251.673 281.162 251.487 281.314 251.254C281.467 251.017 281.543 250.751 281.543 250.455V248.284C281.543 247.903 281.424 247.613 281.188 247.414C280.955 247.211 280.608 247.109 280.146 247.109C279.761 247.109 279.446 247.177 279.201 247.312C278.959 247.448 278.799 247.638 278.718 247.884L278.706 247.903H277.379L277.385 247.858C277.44 247.478 277.59 247.147 277.836 246.868C278.086 246.585 278.411 246.365 278.813 246.208C279.22 246.051 279.683 245.973 280.204 245.973C280.783 245.973 281.274 246.066 281.676 246.252C282.083 246.434 282.389 246.699 282.597 247.046C282.808 247.389 282.914 247.801 282.914 248.284V253H281.543V252.022H281.441C281.306 252.255 281.137 252.454 280.934 252.619C280.73 252.78 280.5 252.903 280.242 252.987C279.984 253.072 279.702 253.114 279.397 253.114ZM288.525 253.114C288.204 253.114 287.908 253.068 287.637 252.975C287.366 252.877 287.125 252.74 286.913 252.562C286.706 252.38 286.536 252.164 286.405 251.915H286.297V253H284.92V243.402H286.297V247.198H286.405C286.528 246.949 286.695 246.735 286.907 246.557C287.118 246.375 287.362 246.236 287.637 246.138C287.912 246.037 288.208 245.986 288.525 245.986C289.109 245.986 289.615 246.132 290.042 246.424C290.47 246.712 290.8 247.122 291.033 247.655C291.265 248.188 291.382 248.819 291.382 249.547V249.56C291.382 250.283 291.263 250.912 291.026 251.445C290.794 251.978 290.464 252.391 290.036 252.683C289.609 252.97 289.105 253.114 288.525 253.114ZM288.132 251.934C288.517 251.934 288.847 251.838 289.122 251.648C289.397 251.458 289.607 251.185 289.75 250.829C289.899 250.474 289.973 250.05 289.973 249.56V249.547C289.973 249.052 289.899 248.629 289.75 248.277C289.607 247.922 289.397 247.649 289.122 247.458C288.847 247.264 288.517 247.167 288.132 247.167C287.751 247.167 287.421 247.264 287.142 247.458C286.862 247.649 286.649 247.922 286.5 248.277C286.352 248.633 286.278 249.056 286.278 249.547V249.56C286.278 250.046 286.352 250.469 286.5 250.829C286.649 251.185 286.862 251.458 287.142 251.648C287.421 251.838 287.751 251.934 288.132 251.934ZM295.914 253.133C295.241 253.133 294.664 252.989 294.181 252.702C293.699 252.41 293.326 251.997 293.064 251.464C292.806 250.931 292.677 250.3 292.677 249.572V249.566C292.677 248.847 292.806 248.218 293.064 247.681C293.326 247.143 293.694 246.724 294.168 246.424C294.647 246.123 295.205 245.973 295.844 245.973C296.487 245.973 297.04 246.117 297.501 246.405C297.966 246.693 298.324 247.097 298.574 247.617C298.823 248.133 298.948 248.739 298.948 249.433V249.915H293.375V248.931H298.263L297.603 249.845V249.293C297.603 248.802 297.526 248.396 297.374 248.074C297.226 247.748 297.021 247.505 296.758 247.344C296.496 247.183 296.193 247.103 295.851 247.103C295.508 247.103 295.201 247.188 294.93 247.357C294.664 247.522 294.452 247.767 294.295 248.093C294.143 248.419 294.067 248.819 294.067 249.293V249.845C294.067 250.298 294.143 250.685 294.295 251.007C294.448 251.328 294.664 251.574 294.943 251.743C295.226 251.912 295.561 251.997 295.946 251.997C296.242 251.997 296.496 251.957 296.708 251.876C296.923 251.792 297.099 251.688 297.234 251.565C297.374 251.443 297.469 251.322 297.52 251.204L297.545 251.153H298.878L298.866 251.21C298.806 251.438 298.703 251.667 298.555 251.896C298.407 252.12 298.21 252.325 297.964 252.511C297.723 252.697 297.431 252.848 297.088 252.962C296.75 253.076 296.358 253.133 295.914 253.133ZM300.649 253V243.402H302.027V253H300.649Z" fill="#1A1A1A"/>
<g clip-path="url(#clip4_207_14470)">
<g opacity="0.5" clip-path="url(#clip5_207_14470)">
<g opacity="0.05">
<rect width="16" height="16" transform="translate(250 270)" fill="black"/>
</g>
</g>
</g>
<path d="M270.149 283V273.84H271.571V281.769H275.868V283H270.149ZM279.397 283.114C278.962 283.114 278.57 283.032 278.223 282.867C277.88 282.697 277.61 282.458 277.411 282.149C277.212 281.84 277.112 281.479 277.112 281.064V281.051C277.112 280.637 277.212 280.283 277.411 279.991C277.614 279.699 277.906 279.471 278.287 279.306C278.672 279.136 279.137 279.035 279.683 279.001L282.229 278.849V279.82L279.874 279.972C279.4 280.002 279.05 280.103 278.826 280.277C278.602 280.446 278.49 280.685 278.49 280.994V281.007C278.49 281.32 278.61 281.568 278.852 281.75C279.093 281.927 279.397 282.016 279.766 282.016C280.108 282.016 280.413 281.948 280.68 281.813C280.951 281.673 281.162 281.487 281.314 281.254C281.467 281.017 281.543 280.751 281.543 280.455V278.284C281.543 277.903 281.424 277.613 281.188 277.414C280.955 277.211 280.608 277.109 280.146 277.109C279.761 277.109 279.446 277.177 279.201 277.312C278.959 277.448 278.799 277.638 278.718 277.884L278.706 277.903H277.379L277.385 277.858C277.44 277.478 277.59 277.147 277.836 276.868C278.086 276.585 278.411 276.365 278.813 276.208C279.22 276.051 279.683 275.973 280.204 275.973C280.783 275.973 281.274 276.066 281.676 276.252C282.083 276.434 282.389 276.699 282.597 277.046C282.808 277.389 282.914 277.801 282.914 278.284V283H281.543V282.022H281.441C281.306 282.255 281.137 282.454 280.934 282.619C280.73 282.78 280.5 282.903 280.242 282.987C279.984 283.072 279.702 283.114 279.397 283.114ZM288.525 283.114C288.204 283.114 287.908 283.068 287.637 282.975C287.366 282.877 287.125 282.74 286.913 282.562C286.706 282.38 286.536 282.164 286.405 281.915H286.297V283H284.92V273.402H286.297V277.198H286.405C286.528 276.949 286.695 276.735 286.907 276.557C287.118 276.375 287.362 276.236 287.637 276.138C287.912 276.037 288.208 275.986 288.525 275.986C289.109 275.986 289.615 276.132 290.042 276.424C290.47 276.712 290.8 277.122 291.033 277.655C291.265 278.188 291.382 278.819 291.382 279.547V279.56C291.382 280.283 291.263 280.912 291.026 281.445C290.794 281.978 290.464 282.391 290.036 282.683C289.609 282.97 289.105 283.114 288.525 283.114ZM288.132 281.934C288.517 281.934 288.847 281.838 289.122 281.648C289.397 281.458 289.607 281.185 289.75 280.829C289.899 280.474 289.973 280.05 289.973 279.56V279.547C289.973 279.052 289.899 278.629 289.75 278.277C289.607 277.922 289.397 277.649 289.122 277.458C288.847 277.264 288.517 277.167 288.132 277.167C287.751 277.167 287.421 277.264 287.142 277.458C286.862 277.649 286.649 277.922 286.5 278.277C286.352 278.633 286.278 279.056 286.278 279.547V279.56C286.278 280.046 286.352 280.469 286.5 280.829C286.649 281.185 286.862 281.458 287.142 281.648C287.421 281.838 287.751 281.934 288.132 281.934ZM295.914 283.133C295.241 283.133 294.664 282.989 294.181 282.702C293.699 282.41 293.326 281.997 293.064 281.464C292.806 280.931 292.677 280.3 292.677 279.572V279.566C292.677 278.847 292.806 278.218 293.064 277.681C293.326 277.143 293.694 276.724 294.168 276.424C294.647 276.123 295.205 275.973 295.844 275.973C296.487 275.973 297.04 276.117 297.501 276.405C297.966 276.693 298.324 277.097 298.574 277.617C298.823 278.133 298.948 278.739 298.948 279.433V279.915H293.375V278.931H298.263L297.603 279.845V279.293C297.603 278.802 297.526 278.396 297.374 278.074C297.226 277.748 297.021 277.505 296.758 277.344C296.496 277.183 296.193 277.103 295.851 277.103C295.508 277.103 295.201 277.188 294.93 277.357C294.664 277.522 294.452 277.767 294.295 278.093C294.143 278.419 294.067 278.819 294.067 279.293V279.845C294.067 280.298 294.143 280.685 294.295 281.007C294.448 281.328 294.664 281.574 294.943 281.743C295.226 281.912 295.561 281.997 295.946 281.997C296.242 281.997 296.496 281.957 296.708 281.876C296.923 281.792 297.099 281.688 297.234 281.565C297.374 281.443 297.469 281.322 297.52 281.204L297.545 281.153H298.878L298.866 281.21C298.806 281.438 298.703 281.667 298.555 281.896C298.407 282.12 298.21 282.325 297.964 282.511C297.723 282.697 297.431 282.848 297.088 282.962C296.75 283.076 296.358 283.133 295.914 283.133ZM300.649 283V273.402H302.027V283H300.649Z" fill="#BFBFBF"/>
<g clip-path="url(#clip6_207_14470)">
<g clip-path="url(#clip7_207_14470)">
<g opacity="0.05">
<rect width="16" height="16" transform="translate(180 210)" fill="black"/>
</g>
</g>
<rect x="184.75" y="217" width="6.5" height="2" rx="1" fill="#1A1A1A"/>
</g>
<path d="M200.149 223V213.84H201.571V221.769H205.868V223H200.149ZM209.397 223.114C208.962 223.114 208.57 223.032 208.223 222.867C207.88 222.697 207.61 222.458 207.411 222.149C207.212 221.84 207.112 221.479 207.112 221.064V221.051C207.112 220.637 207.212 220.283 207.411 219.991C207.614 219.699 207.906 219.471 208.287 219.306C208.672 219.136 209.137 219.035 209.683 219.001L212.229 218.849V219.82L209.874 219.972C209.4 220.002 209.05 220.103 208.826 220.277C208.602 220.446 208.49 220.685 208.49 220.994V221.007C208.49 221.32 208.61 221.568 208.852 221.75C209.093 221.927 209.397 222.016 209.766 222.016C210.108 222.016 210.413 221.948 210.68 221.813C210.951 221.673 211.162 221.487 211.314 221.254C211.467 221.017 211.543 220.751 211.543 220.455V218.284C211.543 217.903 211.424 217.613 211.188 217.414C210.955 217.211 210.608 217.109 210.146 217.109C209.761 217.109 209.446 217.177 209.201 217.312C208.959 217.448 208.799 217.638 208.718 217.884L208.706 217.903H207.379L207.385 217.858C207.44 217.478 207.59 217.147 207.836 216.868C208.086 216.585 208.411 216.365 208.813 216.208C209.22 216.051 209.683 215.973 210.204 215.973C210.783 215.973 211.274 216.066 211.676 216.252C212.083 216.434 212.389 216.699 212.597 217.046C212.808 217.389 212.914 217.801 212.914 218.284V223H211.543V222.022H211.441C211.306 222.255 211.137 222.454 210.934 222.619C210.73 222.78 210.5 222.903 210.242 222.987C209.984 223.072 209.702 223.114 209.397 223.114ZM218.525 223.114C218.204 223.114 217.908 223.068 217.637 222.975C217.366 222.877 217.125 222.74 216.913 222.562C216.706 222.38 216.536 222.164 216.405 221.915H216.297V223H214.92V213.402H216.297V217.198H216.405C216.528 216.949 216.695 216.735 216.907 216.557C217.118 216.375 217.362 216.236 217.637 216.138C217.912 216.037 218.208 215.986 218.525 215.986C219.109 215.986 219.615 216.132 220.042 216.424C220.47 216.712 220.8 217.122 221.033 217.655C221.265 218.188 221.382 218.819 221.382 219.547V219.56C221.382 220.283 221.263 220.912 221.026 221.445C220.794 221.978 220.464 222.391 220.036 222.683C219.609 222.97 219.105 223.114 218.525 223.114ZM218.132 221.934C218.517 221.934 218.847 221.838 219.122 221.648C219.397 221.458 219.607 221.185 219.75 220.829C219.899 220.474 219.973 220.05 219.973 219.56V219.547C219.973 219.052 219.899 218.629 219.75 218.277C219.607 217.922 219.397 217.649 219.122 217.458C218.847 217.264 218.517 217.167 218.132 217.167C217.751 217.167 217.421 217.264 217.142 217.458C216.862 217.649 216.649 217.922 216.5 218.277C216.352 218.633 216.278 219.056 216.278 219.547V219.56C216.278 220.046 216.352 220.469 216.5 220.829C216.649 221.185 216.862 221.458 217.142 221.648C217.421 221.838 217.751 221.934 218.132 221.934ZM225.914 223.133C225.241 223.133 224.664 222.989 224.181 222.702C223.699 222.41 223.326 221.997 223.064 221.464C222.806 220.931 222.677 220.3 222.677 219.572V219.566C222.677 218.847 222.806 218.218 223.064 217.681C223.326 217.143 223.694 216.724 224.168 216.424C224.647 216.123 225.205 215.973 225.844 215.973C226.487 215.973 227.04 216.117 227.501 216.405C227.966 216.693 228.324 217.097 228.574 217.617C228.823 218.133 228.948 218.739 228.948 219.433V219.915H223.375V218.931H228.263L227.603 219.845V219.293C227.603 218.802 227.526 218.396 227.374 218.074C227.226 217.748 227.021 217.505 226.758 217.344C226.496 217.183 226.193 217.103 225.851 217.103C225.508 217.103 225.201 217.188 224.93 217.357C224.664 217.522 224.452 217.767 224.295 218.093C224.143 218.419 224.067 218.819 224.067 219.293V219.845C224.067 220.298 224.143 220.685 224.295 221.007C224.448 221.328 224.664 221.574 224.943 221.743C225.226 221.912 225.561 221.997 225.946 221.997C226.242 221.997 226.496 221.957 226.708 221.876C226.923 221.792 227.099 221.688 227.234 221.565C227.374 221.443 227.469 221.322 227.52 221.204L227.545 221.153H228.878L228.866 221.21C228.806 221.438 228.703 221.667 228.555 221.896C228.407 222.12 228.21 222.325 227.964 222.511C227.723 222.697 227.431 222.848 227.088 222.962C226.75 223.076 226.358 223.133 225.914 223.133ZM230.649 223V213.402H232.027V223H230.649Z" fill="#1A1A1A"/>
<g clip-path="url(#clip8_207_14470)">
<g clip-path="url(#clip9_207_14470)">
<g style="mix-blend-mode:plus-darker" opacity="0.13">
<rect width="16" height="16" transform="translate(180 240)" fill="black"/>
</g>
</g>
<rect x="184.75" y="247" width="6.5" height="2" rx="1" fill="#1A1A1A"/>
</g>
<path d="M200.149 253V243.84H201.571V251.769H205.868V253H200.149ZM209.397 253.114C208.962 253.114 208.57 253.032 208.223 252.867C207.88 252.697 207.61 252.458 207.411 252.149C207.212 251.84 207.112 251.479 207.112 251.064V251.051C207.112 250.637 207.212 250.283 207.411 249.991C207.614 249.699 207.906 249.471 208.287 249.306C208.672 249.136 209.137 249.035 209.683 249.001L212.229 248.849V249.82L209.874 249.972C209.4 250.002 209.05 250.103 208.826 250.277C208.602 250.446 208.49 250.685 208.49 250.994V251.007C208.49 251.32 208.61 251.568 208.852 251.75C209.093 251.927 209.397 252.016 209.766 252.016C210.108 252.016 210.413 251.948 210.68 251.813C210.951 251.673 211.162 251.487 211.314 251.254C211.467 251.017 211.543 250.751 211.543 250.455V248.284C211.543 247.903 211.424 247.613 211.188 247.414C210.955 247.211 210.608 247.109 210.146 247.109C209.761 247.109 209.446 247.177 209.201 247.312C208.959 247.448 208.799 247.638 208.718 247.884L208.706 247.903H207.379L207.385 247.858C207.44 247.478 207.59 247.147 207.836 246.868C208.086 246.585 208.411 246.365 208.813 246.208C209.22 246.051 209.683 245.973 210.204 245.973C210.783 245.973 211.274 246.066 211.676 246.252C212.083 246.434 212.389 246.699 212.597 247.046C212.808 247.389 212.914 247.801 212.914 248.284V253H211.543V252.022H211.441C211.306 252.255 211.137 252.454 210.934 252.619C210.73 252.78 210.5 252.903 210.242 252.987C209.984 253.072 209.702 253.114 209.397 253.114ZM218.525 253.114C218.204 253.114 217.908 253.068 217.637 252.975C217.366 252.877 217.125 252.74 216.913 252.562C216.706 252.38 216.536 252.164 216.405 251.915H216.297V253H214.92V243.402H216.297V247.198H216.405C216.528 246.949 216.695 246.735 216.907 246.557C217.118 246.375 217.362 246.236 217.637 246.138C217.912 246.037 218.208 245.986 218.525 245.986C219.109 245.986 219.615 246.132 220.042 246.424C220.47 246.712 220.8 247.122 221.033 247.655C221.265 248.188 221.382 248.819 221.382 249.547V249.56C221.382 250.283 221.263 250.912 221.026 251.445C220.794 251.978 220.464 252.391 220.036 252.683C219.609 252.97 219.105 253.114 218.525 253.114ZM218.132 251.934C218.517 251.934 218.847 251.838 219.122 251.648C219.397 251.458 219.607 251.185 219.75 250.829C219.899 250.474 219.973 250.05 219.973 249.56V249.547C219.973 249.052 219.899 248.629 219.75 248.277C219.607 247.922 219.397 247.649 219.122 247.458C218.847 247.264 218.517 247.167 218.132 247.167C217.751 247.167 217.421 247.264 217.142 247.458C216.862 247.649 216.649 247.922 216.5 248.277C216.352 248.633 216.278 249.056 216.278 249.547V249.56C216.278 250.046 216.352 250.469 216.5 250.829C216.649 251.185 216.862 251.458 217.142 251.648C217.421 251.838 217.751 251.934 218.132 251.934ZM225.914 253.133C225.241 253.133 224.664 252.989 224.181 252.702C223.699 252.41 223.326 251.997 223.064 251.464C222.806 250.931 222.677 250.3 222.677 249.572V249.566C222.677 248.847 222.806 248.218 223.064 247.681C223.326 247.143 223.694 246.724 224.168 246.424C224.647 246.123 225.205 245.973 225.844 245.973C226.487 245.973 227.04 246.117 227.501 246.405C227.966 246.693 228.324 247.097 228.574 247.617C228.823 248.133 228.948 248.739 228.948 249.433V249.915H223.375V248.931H228.263L227.603 249.845V249.293C227.603 248.802 227.526 248.396 227.374 248.074C227.226 247.748 227.021 247.505 226.758 247.344C226.496 247.183 226.193 247.103 225.851 247.103C225.508 247.103 225.201 247.188 224.93 247.357C224.664 247.522 224.452 247.767 224.295 248.093C224.143 248.419 224.067 248.819 224.067 249.293V249.845C224.067 250.298 224.143 250.685 224.295 251.007C224.448 251.328 224.664 251.574 224.943 251.743C225.226 251.912 225.561 251.997 225.946 251.997C226.242 251.997 226.496 251.957 226.708 251.876C226.923 251.792 227.099 251.688 227.234 251.565C227.374 251.443 227.469 251.322 227.52 251.204L227.545 251.153H228.878L228.866 251.21C228.806 251.438 228.703 251.667 228.555 251.896C228.407 252.12 228.21 252.325 227.964 252.511C227.723 252.697 227.431 252.848 227.088 252.962C226.75 253.076 226.358 253.133 225.914 253.133ZM230.649 253V243.402H232.027V253H230.649Z" fill="#1A1A1A"/>
<g clip-path="url(#clip10_207_14470)">
<g opacity="0.5" clip-path="url(#clip11_207_14470)">
<g opacity="0.05">
<rect width="16" height="16" transform="translate(180 270)" fill="black"/>
</g>
</g>
<rect x="184.75" y="277" width="6.5" height="2" rx="1" fill="#BFBFBF"/>
</g>
<path d="M200.149 283V273.84H201.571V281.769H205.868V283H200.149ZM209.397 283.114C208.962 283.114 208.57 283.032 208.223 282.867C207.88 282.697 207.61 282.458 207.411 282.149C207.212 281.84 207.112 281.479 207.112 281.064V281.051C207.112 280.637 207.212 280.283 207.411 279.991C207.614 279.699 207.906 279.471 208.287 279.306C208.672 279.136 209.137 279.035 209.683 279.001L212.229 278.849V279.82L209.874 279.972C209.4 280.002 209.05 280.103 208.826 280.277C208.602 280.446 208.49 280.685 208.49 280.994V281.007C208.49 281.32 208.61 281.568 208.852 281.75C209.093 281.927 209.397 282.016 209.766 282.016C210.108 282.016 210.413 281.948 210.68 281.813C210.951 281.673 211.162 281.487 211.314 281.254C211.467 281.017 211.543 280.751 211.543 280.455V278.284C211.543 277.903 211.424 277.613 211.188 277.414C210.955 277.211 210.608 277.109 210.146 277.109C209.761 277.109 209.446 277.177 209.201 277.312C208.959 277.448 208.799 277.638 208.718 277.884L208.706 277.903H207.379L207.385 277.858C207.44 277.478 207.59 277.147 207.836 276.868C208.086 276.585 208.411 276.365 208.813 276.208C209.22 276.051 209.683 275.973 210.204 275.973C210.783 275.973 211.274 276.066 211.676 276.252C212.083 276.434 212.389 276.699 212.597 277.046C212.808 277.389 212.914 277.801 212.914 278.284V283H211.543V282.022H211.441C211.306 282.255 211.137 282.454 210.934 282.619C210.73 282.78 210.5 282.903 210.242 282.987C209.984 283.072 209.702 283.114 209.397 283.114ZM218.525 283.114C218.204 283.114 217.908 283.068 217.637 282.975C217.366 282.877 217.125 282.74 216.913 282.562C216.706 282.38 216.536 282.164 216.405 281.915H216.297V283H214.92V273.402H216.297V277.198H216.405C216.528 276.949 216.695 276.735 216.907 276.557C217.118 276.375 217.362 276.236 217.637 276.138C217.912 276.037 218.208 275.986 218.525 275.986C219.109 275.986 219.615 276.132 220.042 276.424C220.47 276.712 220.8 277.122 221.033 277.655C221.265 278.188 221.382 278.819 221.382 279.547V279.56C221.382 280.283 221.263 280.912 221.026 281.445C220.794 281.978 220.464 282.391 220.036 282.683C219.609 282.97 219.105 283.114 218.525 283.114ZM218.132 281.934C218.517 281.934 218.847 281.838 219.122 281.648C219.397 281.458 219.607 281.185 219.75 280.829C219.899 280.474 219.973 280.05 219.973 279.56V279.547C219.973 279.052 219.899 278.629 219.75 278.277C219.607 277.922 219.397 277.649 219.122 277.458C218.847 277.264 218.517 277.167 218.132 277.167C217.751 277.167 217.421 277.264 217.142 277.458C216.862 277.649 216.649 277.922 216.5 278.277C216.352 278.633 216.278 279.056 216.278 279.547V279.56C216.278 280.046 216.352 280.469 216.5 280.829C216.649 281.185 216.862 281.458 217.142 281.648C217.421 281.838 217.751 281.934 218.132 281.934ZM225.914 283.133C225.241 283.133 224.664 282.989 224.181 282.702C223.699 282.41 223.326 281.997 223.064 281.464C222.806 280.931 222.677 280.3 222.677 279.572V279.566C222.677 278.847 222.806 278.218 223.064 277.681C223.326 277.143 223.694 276.724 224.168 276.424C224.647 276.123 225.205 275.973 225.844 275.973C226.487 275.973 227.04 276.117 227.501 276.405C227.966 276.693 228.324 277.097 228.574 277.617C228.823 278.133 228.948 278.739 228.948 279.433V279.915H223.375V278.931H228.263L227.603 279.845V279.293C227.603 278.802 227.526 278.396 227.374 278.074C227.226 277.748 227.021 277.505 226.758 277.344C226.496 277.183 226.193 277.103 225.851 277.103C225.508 277.103 225.201 277.188 224.93 277.357C224.664 277.522 224.452 277.767 224.295 278.093C224.143 278.419 224.067 278.819 224.067 279.293V279.845C224.067 280.298 224.143 280.685 224.295 281.007C224.448 281.328 224.664 281.574 224.943 281.743C225.226 281.912 225.561 281.997 225.946 281.997C226.242 281.997 226.496 281.957 226.708 281.876C226.923 281.792 227.099 281.688 227.234 281.565C227.374 281.443 227.469 281.322 227.52 281.204L227.545 281.153H228.878L228.866 281.21C228.806 281.438 228.703 281.667 228.555 281.896C228.407 282.12 228.21 282.325 227.964 282.511C227.723 282.697 227.431 282.848 227.088 282.962C226.75 283.076 226.358 283.133 225.914 283.133ZM230.649 283V273.402H232.027V283H230.649Z" fill="#BFBFBF"/>
<g clip-path="url(#clip12_207_14470)">
<g clip-path="url(#clip13_207_14470)">
<g opacity="0.05">
<rect width="16" height="16" transform="translate(110 210)" fill="black"/>
</g>
</g>
<rect x="115.6" y="215.6" width="4.8" height="4.8" rx="2.4" fill="#1A1A1A"/>
</g>
<path d="M130.149 223V213.84H131.571V221.769H135.868V223H130.149ZM139.397 223.114C138.962 223.114 138.57 223.032 138.223 222.867C137.88 222.697 137.61 222.458 137.411 222.149C137.212 221.84 137.112 221.479 137.112 221.064V221.051C137.112 220.637 137.212 220.283 137.411 219.991C137.614 219.699 137.906 219.471 138.287 219.306C138.672 219.136 139.137 219.035 139.683 219.001L142.229 218.849V219.82L139.874 219.972C139.4 220.002 139.05 220.103 138.826 220.277C138.602 220.446 138.49 220.685 138.49 220.994V221.007C138.49 221.32 138.61 221.568 138.852 221.75C139.093 221.927 139.397 222.016 139.766 222.016C140.108 222.016 140.413 221.948 140.68 221.813C140.951 221.673 141.162 221.487 141.314 221.254C141.467 221.017 141.543 220.751 141.543 220.455V218.284C141.543 217.903 141.424 217.613 141.188 217.414C140.955 217.211 140.608 217.109 140.146 217.109C139.761 217.109 139.446 217.177 139.201 217.312C138.959 217.448 138.799 217.638 138.718 217.884L138.706 217.903H137.379L137.385 217.858C137.44 217.478 137.59 217.147 137.836 216.868C138.086 216.585 138.411 216.365 138.813 216.208C139.22 216.051 139.683 215.973 140.204 215.973C140.783 215.973 141.274 216.066 141.676 216.252C142.083 216.434 142.389 216.699 142.597 217.046C142.808 217.389 142.914 217.801 142.914 218.284V223H141.543V222.022H141.441C141.306 222.255 141.137 222.454 140.934 222.619C140.73 222.78 140.5 222.903 140.242 222.987C139.984 223.072 139.702 223.114 139.397 223.114ZM148.525 223.114C148.204 223.114 147.908 223.068 147.637 222.975C147.366 222.877 147.125 222.74 146.913 222.562C146.706 222.38 146.536 222.164 146.405 221.915H146.297V223H144.92V213.402H146.297V217.198H146.405C146.528 216.949 146.695 216.735 146.907 216.557C147.118 216.375 147.362 216.236 147.637 216.138C147.912 216.037 148.208 215.986 148.525 215.986C149.109 215.986 149.615 216.132 150.042 216.424C150.47 216.712 150.8 217.122 151.033 217.655C151.265 218.188 151.382 218.819 151.382 219.547V219.56C151.382 220.283 151.263 220.912 151.026 221.445C150.794 221.978 150.464 222.391 150.036 222.683C149.609 222.97 149.105 223.114 148.525 223.114ZM148.132 221.934C148.517 221.934 148.847 221.838 149.122 221.648C149.397 221.458 149.607 221.185 149.75 220.829C149.899 220.474 149.973 220.05 149.973 219.56V219.547C149.973 219.052 149.899 218.629 149.75 218.277C149.607 217.922 149.397 217.649 149.122 217.458C148.847 217.264 148.517 217.167 148.132 217.167C147.751 217.167 147.421 217.264 147.142 217.458C146.862 217.649 146.649 217.922 146.5 218.277C146.352 218.633 146.278 219.056 146.278 219.547V219.56C146.278 220.046 146.352 220.469 146.5 220.829C146.649 221.185 146.862 221.458 147.142 221.648C147.421 221.838 147.751 221.934 148.132 221.934ZM155.914 223.133C155.241 223.133 154.664 222.989 154.181 222.702C153.699 222.41 153.326 221.997 153.064 221.464C152.806 220.931 152.677 220.3 152.677 219.572V219.566C152.677 218.847 152.806 218.218 153.064 217.681C153.326 217.143 153.694 216.724 154.168 216.424C154.647 216.123 155.205 215.973 155.844 215.973C156.487 215.973 157.04 216.117 157.501 216.405C157.966 216.693 158.324 217.097 158.574 217.617C158.823 218.133 158.948 218.739 158.948 219.433V219.915H153.375V218.931H158.263L157.603 219.845V219.293C157.603 218.802 157.526 218.396 157.374 218.074C157.226 217.748 157.021 217.505 156.758 217.344C156.496 217.183 156.193 217.103 155.851 217.103C155.508 217.103 155.201 217.188 154.93 217.357C154.664 217.522 154.452 217.767 154.295 218.093C154.143 218.419 154.067 218.819 154.067 219.293V219.845C154.067 220.298 154.143 220.685 154.295 221.007C154.448 221.328 154.664 221.574 154.943 221.743C155.226 221.912 155.561 221.997 155.946 221.997C156.242 221.997 156.496 221.957 156.708 221.876C156.923 221.792 157.099 221.688 157.234 221.565C157.374 221.443 157.469 221.322 157.52 221.204L157.545 221.153H158.878L158.866 221.21C158.806 221.438 158.703 221.667 158.555 221.896C158.407 222.12 158.21 222.325 157.964 222.511C157.723 222.697 157.431 222.848 157.088 222.962C156.75 223.076 156.358 223.133 155.914 223.133ZM160.649 223V213.402H162.027V223H160.649Z" fill="#1A1A1A"/>
<g clip-path="url(#clip14_207_14470)">
<g clip-path="url(#clip15_207_14470)">
<g style="mix-blend-mode:plus-darker" opacity="0.13">
<rect width="16" height="16" transform="translate(110 240)" fill="black"/>
</g>
</g>
<rect x="115.6" y="245.6" width="4.8" height="4.8" rx="2.4" fill="#1A1A1A"/>
</g>
<path d="M130.149 253V243.84H131.571V251.769H135.868V253H130.149ZM139.397 253.114C138.962 253.114 138.57 253.032 138.223 252.867C137.88 252.697 137.61 252.458 137.411 252.149C137.212 251.84 137.112 251.479 137.112 251.064V251.051C137.112 250.637 137.212 250.283 137.411 249.991C137.614 249.699 137.906 249.471 138.287 249.306C138.672 249.136 139.137 249.035 139.683 249.001L142.229 248.849V249.82L139.874 249.972C139.4 250.002 139.05 250.103 138.826 250.277C138.602 250.446 138.49 250.685 138.49 250.994V251.007C138.49 251.32 138.61 251.568 138.852 251.75C139.093 251.927 139.397 252.016 139.766 252.016C140.108 252.016 140.413 251.948 140.68 251.813C140.951 251.673 141.162 251.487 141.314 251.254C141.467 251.017 141.543 250.751 141.543 250.455V248.284C141.543 247.903 141.424 247.613 141.188 247.414C140.955 247.211 140.608 247.109 140.146 247.109C139.761 247.109 139.446 247.177 139.201 247.312C138.959 247.448 138.799 247.638 138.718 247.884L138.706 247.903H137.379L137.385 247.858C137.44 247.478 137.59 247.147 137.836 246.868C138.086 246.585 138.411 246.365 138.813 246.208C139.22 246.051 139.683 245.973 140.204 245.973C140.783 245.973 141.274 246.066 141.676 246.252C142.083 246.434 142.389 246.699 142.597 247.046C142.808 247.389 142.914 247.801 142.914 248.284V253H141.543V252.022H141.441C141.306 252.255 141.137 252.454 140.934 252.619C140.73 252.78 140.5 252.903 140.242 252.987C139.984 253.072 139.702 253.114 139.397 253.114ZM148.525 253.114C148.204 253.114 147.908 253.068 147.637 252.975C147.366 252.877 147.125 252.74 146.913 252.562C146.706 252.38 146.536 252.164 146.405 251.915H146.297V253H144.92V243.402H146.297V247.198H146.405C146.528 246.949 146.695 246.735 146.907 246.557C147.118 246.375 147.362 246.236 147.637 246.138C147.912 246.037 148.208 245.986 148.525 245.986C149.109 245.986 149.615 246.132 150.042 246.424C150.47 246.712 150.8 247.122 151.033 247.655C151.265 248.188 151.382 248.819 151.382 249.547V249.56C151.382 250.283 151.263 250.912 151.026 251.445C150.794 251.978 150.464 252.391 150.036 252.683C149.609 252.97 149.105 253.114 148.525 253.114ZM148.132 251.934C148.517 251.934 148.847 251.838 149.122 251.648C149.397 251.458 149.607 251.185 149.75 250.829C149.899 250.474 149.973 250.05 149.973 249.56V249.547C149.973 249.052 149.899 248.629 149.75 248.277C149.607 247.922 149.397 247.649 149.122 247.458C148.847 247.264 148.517 247.167 148.132 247.167C147.751 247.167 147.421 247.264 147.142 247.458C146.862 247.649 146.649 247.922 146.5 248.277C146.352 248.633 146.278 249.056 146.278 249.547V249.56C146.278 250.046 146.352 250.469 146.5 250.829C146.649 251.185 146.862 251.458 147.142 251.648C147.421 251.838 147.751 251.934 148.132 251.934ZM155.914 253.133C155.241 253.133 154.664 252.989 154.181 252.702C153.699 252.41 153.326 251.997 153.064 251.464C152.806 250.931 152.677 250.3 152.677 249.572V249.566C152.677 248.847 152.806 248.218 153.064 247.681C153.326 247.143 153.694 246.724 154.168 246.424C154.647 246.123 155.205 245.973 155.844 245.973C156.487 245.973 157.04 246.117 157.501 246.405C157.966 246.693 158.324 247.097 158.574 247.617C158.823 248.133 158.948 248.739 158.948 249.433V249.915H153.375V248.931H158.263L157.603 249.845V249.293C157.603 248.802 157.526 248.396 157.374 248.074C157.226 247.748 157.021 247.505 156.758 247.344C156.496 247.183 156.193 247.103 155.851 247.103C155.508 247.103 155.201 247.188 154.93 247.357C154.664 247.522 154.452 247.767 154.295 248.093C154.143 248.419 154.067 248.819 154.067 249.293V249.845C154.067 250.298 154.143 250.685 154.295 251.007C154.448 251.328 154.664 251.574 154.943 251.743C155.226 251.912 155.561 251.997 155.946 251.997C156.242 251.997 156.496 251.957 156.708 251.876C156.923 251.792 157.099 251.688 157.234 251.565C157.374 251.443 157.469 251.322 157.52 251.204L157.545 251.153H158.878L158.866 251.21C158.806 251.438 158.703 251.667 158.555 251.896C158.407 252.12 158.21 252.325 157.964 252.511C157.723 252.697 157.431 252.848 157.088 252.962C156.75 253.076 156.358 253.133 155.914 253.133ZM160.649 253V243.402H162.027V253H160.649Z" fill="#1A1A1A"/>
<g clip-path="url(#clip16_207_14470)">
<g opacity="0.5" clip-path="url(#clip17_207_14470)">
<g opacity="0.05">
<rect width="16" height="16" transform="translate(110 270)" fill="black"/>
</g>
</g>
<rect x="115.6" y="275.6" width="4.8" height="4.8" rx="2.4" fill="#BFBFBF"/>
</g>
<path d="M130.149 283V273.84H131.571V281.769H135.868V283H130.149ZM139.397 283.114C138.962 283.114 138.57 283.032 138.223 282.867C137.88 282.697 137.61 282.458 137.411 282.149C137.212 281.84 137.112 281.479 137.112 281.064V281.051C137.112 280.637 137.212 280.283 137.411 279.991C137.614 279.699 137.906 279.471 138.287 279.306C138.672 279.136 139.137 279.035 139.683 279.001L142.229 278.849V279.82L139.874 279.972C139.4 280.002 139.05 280.103 138.826 280.277C138.602 280.446 138.49 280.685 138.49 280.994V281.007C138.49 281.32 138.61 281.568 138.852 281.75C139.093 281.927 139.397 282.016 139.766 282.016C140.108 282.016 140.413 281.948 140.68 281.813C140.951 281.673 141.162 281.487 141.314 281.254C141.467 281.017 141.543 280.751 141.543 280.455V278.284C141.543 277.903 141.424 277.613 141.188 277.414C140.955 277.211 140.608 277.109 140.146 277.109C139.761 277.109 139.446 277.177 139.201 277.312C138.959 277.448 138.799 277.638 138.718 277.884L138.706 277.903H137.379L137.385 277.858C137.44 277.478 137.59 277.147 137.836 276.868C138.086 276.585 138.411 276.365 138.813 276.208C139.22 276.051 139.683 275.973 140.204 275.973C140.783 275.973 141.274 276.066 141.676 276.252C142.083 276.434 142.389 276.699 142.597 277.046C142.808 277.389 142.914 277.801 142.914 278.284V283H141.543V282.022H141.441C141.306 282.255 141.137 282.454 140.934 282.619C140.73 282.78 140.5 282.903 140.242 282.987C139.984 283.072 139.702 283.114 139.397 283.114ZM148.525 283.114C148.204 283.114 147.908 283.068 147.637 282.975C147.366 282.877 147.125 282.74 146.913 282.562C146.706 282.38 146.536 282.164 146.405 281.915H146.297V283H144.92V273.402H146.297V277.198H146.405C146.528 276.949 146.695 276.735 146.907 276.557C147.118 276.375 147.362 276.236 147.637 276.138C147.912 276.037 148.208 275.986 148.525 275.986C149.109 275.986 149.615 276.132 150.042 276.424C150.47 276.712 150.8 277.122 151.033 277.655C151.265 278.188 151.382 278.819 151.382 279.547V279.56C151.382 280.283 151.263 280.912 151.026 281.445C150.794 281.978 150.464 282.391 150.036 282.683C149.609 282.97 149.105 283.114 148.525 283.114ZM148.132 281.934C148.517 281.934 148.847 281.838 149.122 281.648C149.397 281.458 149.607 281.185 149.75 280.829C149.899 280.474 149.973 280.05 149.973 279.56V279.547C149.973 279.052 149.899 278.629 149.75 278.277C149.607 277.922 149.397 277.649 149.122 277.458C148.847 277.264 148.517 277.167 148.132 277.167C147.751 277.167 147.421 277.264 147.142 277.458C146.862 277.649 146.649 277.922 146.5 278.277C146.352 278.633 146.278 279.056 146.278 279.547V279.56C146.278 280.046 146.352 280.469 146.5 280.829C146.649 281.185 146.862 281.458 147.142 281.648C147.421 281.838 147.751 281.934 148.132 281.934ZM155.914 283.133C155.241 283.133 154.664 282.989 154.181 282.702C153.699 282.41 153.326 281.997 153.064 281.464C152.806 280.931 152.677 280.3 152.677 279.572V279.566C152.677 278.847 152.806 278.218 153.064 277.681C153.326 277.143 153.694 276.724 154.168 276.424C154.647 276.123 155.205 275.973 155.844 275.973C156.487 275.973 157.04 276.117 157.501 276.405C157.966 276.693 158.324 277.097 158.574 277.617C158.823 278.133 158.948 278.739 158.948 279.433V279.915H153.375V278.931H158.263L157.603 279.845V279.293C157.603 278.802 157.526 278.396 157.374 278.074C157.226 277.748 157.021 277.505 156.758 277.344C156.496 277.183 156.193 277.103 155.851 277.103C155.508 277.103 155.201 277.188 154.93 277.357C154.664 277.522 154.452 277.767 154.295 278.093C154.143 278.419 154.067 278.819 154.067 279.293V279.845C154.067 280.298 154.143 280.685 154.295 281.007C154.448 281.328 154.664 281.574 154.943 281.743C155.226 281.912 155.561 281.997 155.946 281.997C156.242 281.997 156.496 281.957 156.708 281.876C156.923 281.792 157.099 281.688 157.234 281.565C157.374 281.443 157.469 281.322 157.52 281.204L157.545 281.153H158.878L158.866 281.21C158.806 281.438 158.703 281.667 158.555 281.896C158.407 282.12 158.21 282.325 157.964 282.511C157.723 282.697 157.431 282.848 157.088 282.962C156.75 283.076 156.358 283.133 155.914 283.133ZM160.649 283V273.402H162.027V283H160.649Z" fill="#BFBFBF"/>
<g clip-path="url(#clip18_207_14470)">
<g clip-path="url(#clip19_207_14470)">
<g opacity="0.05">
<rect width="16" height="16" transform="translate(250 110)" fill="black"/>
</g>
</g>
</g>
<path d="M270.149 123V113.84H271.571V121.769H275.868V123H270.149ZM279.397 123.114C278.962 123.114 278.57 123.032 278.223 122.867C277.88 122.697 277.61 122.458 277.411 122.149C277.212 121.84 277.112 121.479 277.112 121.064V121.051C277.112 120.637 277.212 120.283 277.411 119.991C277.614 119.699 277.906 119.471 278.287 119.306C278.672 119.136 279.137 119.035 279.683 119.001L282.229 118.849V119.82L279.874 119.972C279.4 120.002 279.05 120.103 278.826 120.277C278.602 120.446 278.49 120.685 278.49 120.994V121.007C278.49 121.32 278.61 121.568 278.852 121.75C279.093 121.927 279.397 122.016 279.766 122.016C280.108 122.016 280.413 121.948 280.68 121.813C280.951 121.673 281.162 121.487 281.314 121.254C281.467 121.017 281.543 120.751 281.543 120.455V118.284C281.543 117.903 281.424 117.613 281.188 117.414C280.955 117.211 280.608 117.109 280.146 117.109C279.761 117.109 279.446 117.177 279.201 117.312C278.959 117.448 278.799 117.638 278.718 117.884L278.706 117.903H277.379L277.385 117.858C277.44 117.478 277.59 117.147 277.836 116.868C278.086 116.585 278.411 116.365 278.813 116.208C279.22 116.051 279.683 115.973 280.204 115.973C280.783 115.973 281.274 116.066 281.676 116.252C282.083 116.434 282.389 116.699 282.597 117.046C282.808 117.389 282.914 117.801 282.914 118.284V123H281.543V122.022H281.441C281.306 122.255 281.137 122.454 280.934 122.619C280.73 122.78 280.5 122.903 280.242 122.987C279.984 123.072 279.702 123.114 279.397 123.114ZM288.525 123.114C288.204 123.114 287.908 123.068 287.637 122.975C287.366 122.877 287.125 122.74 286.913 122.562C286.706 122.38 286.536 122.164 286.405 121.915H286.297V123H284.92V113.402H286.297V117.198H286.405C286.528 116.949 286.695 116.735 286.907 116.557C287.118 116.375 287.362 116.236 287.637 116.138C287.912 116.037 288.208 115.986 288.525 115.986C289.109 115.986 289.615 116.132 290.042 116.424C290.47 116.712 290.8 117.122 291.033 117.655C291.265 118.188 291.382 118.819 291.382 119.547V119.56C291.382 120.283 291.263 120.912 291.026 121.445C290.794 121.978 290.464 122.391 290.036 122.683C289.609 122.97 289.105 123.114 288.525 123.114ZM288.132 121.934C288.517 121.934 288.847 121.838 289.122 121.648C289.397 121.458 289.607 121.185 289.75 120.829C289.899 120.474 289.973 120.05 289.973 119.56V119.547C289.973 119.052 289.899 118.629 289.75 118.277C289.607 117.922 289.397 117.649 289.122 117.458C288.847 117.264 288.517 117.167 288.132 117.167C287.751 117.167 287.421 117.264 287.142 117.458C286.862 117.649 286.649 117.922 286.5 118.277C286.352 118.633 286.278 119.056 286.278 119.547V119.56C286.278 120.046 286.352 120.469 286.5 120.829C286.649 121.185 286.862 121.458 287.142 121.648C287.421 121.838 287.751 121.934 288.132 121.934ZM295.914 123.133C295.241 123.133 294.664 122.989 294.181 122.702C293.699 122.41 293.326 121.997 293.064 121.464C292.806 120.931 292.677 120.3 292.677 119.572V119.566C292.677 118.847 292.806 118.218 293.064 117.681C293.326 117.143 293.694 116.724 294.168 116.424C294.647 116.123 295.205 115.973 295.844 115.973C296.487 115.973 297.04 116.117 297.501 116.405C297.966 116.693 298.324 117.097 298.574 117.617C298.823 118.133 298.948 118.739 298.948 119.433V119.915H293.375V118.931H298.263L297.603 119.845V119.293C297.603 118.802 297.526 118.396 297.374 118.074C297.226 117.748 297.021 117.505 296.758 117.344C296.496 117.183 296.193 117.103 295.851 117.103C295.508 117.103 295.201 117.188 294.93 117.357C294.664 117.522 294.452 117.767 294.295 118.093C294.143 118.419 294.067 118.819 294.067 119.293V119.845C294.067 120.298 294.143 120.685 294.295 121.007C294.448 121.328 294.664 121.574 294.943 121.743C295.226 121.912 295.561 121.997 295.946 121.997C296.242 121.997 296.496 121.957 296.708 121.876C296.923 121.792 297.099 121.688 297.234 121.565C297.374 121.443 297.469 121.322 297.52 121.204L297.545 121.153H298.878L298.866 121.21C298.806 121.438 298.703 121.667 298.555 121.896C298.407 122.12 298.21 122.325 297.964 122.511C297.723 122.697 297.431 122.848 297.088 122.962C296.75 123.076 296.358 123.133 295.914 123.133ZM300.649 123V113.402H302.027V123H300.649Z" fill="#1A1A1A"/>
<g clip-path="url(#clip20_207_14470)">
<g clip-path="url(#clip21_207_14470)">
<g opacity="0.15">
<rect width="16" height="16" transform="translate(250 140)" fill="black"/>
</g>
</g>
</g>
<path d="M270.149 153V143.84H271.571V151.769H275.868V153H270.149ZM279.397 153.114C278.962 153.114 278.57 153.032 278.223 152.867C277.88 152.697 277.61 152.458 277.411 152.149C277.212 151.84 277.112 151.479 277.112 151.064V151.051C277.112 150.637 277.212 150.283 277.411 149.991C277.614 149.699 277.906 149.471 278.287 149.306C278.672 149.136 279.137 149.035 279.683 149.001L282.229 148.849V149.82L279.874 149.972C279.4 150.002 279.05 150.103 278.826 150.277C278.602 150.446 278.49 150.685 278.49 150.994V151.007C278.49 151.32 278.61 151.568 278.852 151.75C279.093 151.927 279.397 152.016 279.766 152.016C280.108 152.016 280.413 151.948 280.68 151.813C280.951 151.673 281.162 151.487 281.314 151.254C281.467 151.017 281.543 150.751 281.543 150.455V148.284C281.543 147.903 281.424 147.613 281.188 147.414C280.955 147.211 280.608 147.109 280.146 147.109C279.761 147.109 279.446 147.177 279.201 147.312C278.959 147.448 278.799 147.638 278.718 147.884L278.706 147.903H277.379L277.385 147.858C277.44 147.478 277.59 147.147 277.836 146.868C278.086 146.585 278.411 146.365 278.813 146.208C279.22 146.051 279.683 145.973 280.204 145.973C280.783 145.973 281.274 146.066 281.676 146.252C282.083 146.434 282.389 146.699 282.597 147.046C282.808 147.389 282.914 147.801 282.914 148.284V153H281.543V152.022H281.441C281.306 152.255 281.137 152.454 280.934 152.619C280.73 152.78 280.5 152.903 280.242 152.987C279.984 153.072 279.702 153.114 279.397 153.114ZM288.525 153.114C288.204 153.114 287.908 153.068 287.637 152.975C287.366 152.877 287.125 152.74 286.913 152.562C286.706 152.38 286.536 152.164 286.405 151.915H286.297V153H284.92V143.402H286.297V147.198H286.405C286.528 146.949 286.695 146.735 286.907 146.557C287.118 146.375 287.362 146.236 287.637 146.138C287.912 146.037 288.208 145.986 288.525 145.986C289.109 145.986 289.615 146.132 290.042 146.424C290.47 146.712 290.8 147.122 291.033 147.655C291.265 148.188 291.382 148.819 291.382 149.547V149.56C291.382 150.283 291.263 150.912 291.026 151.445C290.794 151.978 290.464 152.391 290.036 152.683C289.609 152.97 289.105 153.114 288.525 153.114ZM288.132 151.934C288.517 151.934 288.847 151.838 289.122 151.648C289.397 151.458 289.607 151.185 289.75 150.829C289.899 150.474 289.973 150.05 289.973 149.56V149.547C289.973 149.052 289.899 148.629 289.75 148.277C289.607 147.922 289.397 147.649 289.122 147.458C288.847 147.264 288.517 147.167 288.132 147.167C287.751 147.167 287.421 147.264 287.142 147.458C286.862 147.649 286.649 147.922 286.5 148.277C286.352 148.633 286.278 149.056 286.278 149.547V149.56C286.278 150.046 286.352 150.469 286.5 150.829C286.649 151.185 286.862 151.458 287.142 151.648C287.421 151.838 287.751 151.934 288.132 151.934ZM295.914 153.133C295.241 153.133 294.664 152.989 294.181 152.702C293.699 152.41 293.326 151.997 293.064 151.464C292.806 150.931 292.677 150.3 292.677 149.572V149.566C292.677 148.847 292.806 148.218 293.064 147.681C293.326 147.143 293.694 146.724 294.168 146.424C294.647 146.123 295.205 145.973 295.844 145.973C296.487 145.973 297.04 146.117 297.501 146.405C297.966 146.693 298.324 147.097 298.574 147.617C298.823 148.133 298.948 148.739 298.948 149.433V149.915H293.375V148.931H298.263L297.603 149.845V149.293C297.603 148.802 297.526 148.396 297.374 148.074C297.226 147.748 297.021 147.505 296.758 147.344C296.496 147.183 296.193 147.103 295.851 147.103C295.508 147.103 295.201 147.188 294.93 147.357C294.664 147.522 294.452 147.767 294.295 148.093C294.143 148.419 294.067 148.819 294.067 149.293V149.845C294.067 150.298 294.143 150.685 294.295 151.007C294.448 151.328 294.664 151.574 294.943 151.743C295.226 151.912 295.561 151.997 295.946 151.997C296.242 151.997 296.496 151.957 296.708 151.876C296.923 151.792 297.099 151.688 297.234 151.565C297.374 151.443 297.469 151.322 297.52 151.204L297.545 151.153H298.878L298.866 151.21C298.806 151.438 298.703 151.667 298.555 151.896C298.407 152.12 298.21 152.325 297.964 152.511C297.723 152.697 297.431 152.848 297.088 152.962C296.75 153.076 296.358 153.133 295.914 153.133ZM300.649 153V143.402H302.027V153H300.649Z" fill="#1A1A1A"/>
<g clip-path="url(#clip22_207_14470)">
<g opacity="0.5" clip-path="url(#clip23_207_14470)">
<g opacity="0.05">
<rect width="16" height="16" transform="translate(250 170)" fill="black"/>
</g>
</g>
</g>
<path d="M270.149 183V173.84H271.571V181.769H275.868V183H270.149ZM279.397 183.114C278.962 183.114 278.57 183.032 278.223 182.867C277.88 182.697 277.61 182.458 277.411 182.149C277.212 181.84 277.112 181.479 277.112 181.064V181.051C277.112 180.637 277.212 180.283 277.411 179.991C277.614 179.699 277.906 179.471 278.287 179.306C278.672 179.136 279.137 179.035 279.683 179.001L282.229 178.849V179.82L279.874 179.972C279.4 180.002 279.05 180.103 278.826 180.277C278.602 180.446 278.49 180.685 278.49 180.994V181.007C278.49 181.32 278.61 181.568 278.852 181.75C279.093 181.927 279.397 182.016 279.766 182.016C280.108 182.016 280.413 181.948 280.68 181.813C280.951 181.673 281.162 181.487 281.314 181.254C281.467 181.017 281.543 180.751 281.543 180.455V178.284C281.543 177.903 281.424 177.613 281.188 177.414C280.955 177.211 280.608 177.109 280.146 177.109C279.761 177.109 279.446 177.177 279.201 177.312C278.959 177.448 278.799 177.638 278.718 177.884L278.706 177.903H277.379L277.385 177.858C277.44 177.478 277.59 177.147 277.836 176.868C278.086 176.585 278.411 176.365 278.813 176.208C279.22 176.051 279.683 175.973 280.204 175.973C280.783 175.973 281.274 176.066 281.676 176.252C282.083 176.434 282.389 176.699 282.597 177.046C282.808 177.389 282.914 177.801 282.914 178.284V183H281.543V182.022H281.441C281.306 182.255 281.137 182.454 280.934 182.619C280.73 182.78 280.5 182.903 280.242 182.987C279.984 183.072 279.702 183.114 279.397 183.114ZM288.525 183.114C288.204 183.114 287.908 183.068 287.637 182.975C287.366 182.877 287.125 182.74 286.913 182.562C286.706 182.38 286.536 182.164 286.405 181.915H286.297V183H284.92V173.402H286.297V177.198H286.405C286.528 176.949 286.695 176.735 286.907 176.557C287.118 176.375 287.362 176.236 287.637 176.138C287.912 176.037 288.208 175.986 288.525 175.986C289.109 175.986 289.615 176.132 290.042 176.424C290.47 176.712 290.8 177.122 291.033 177.655C291.265 178.188 291.382 178.819 291.382 179.547V179.56C291.382 180.283 291.263 180.912 291.026 181.445C290.794 181.978 290.464 182.391 290.036 182.683C289.609 182.97 289.105 183.114 288.525 183.114ZM288.132 181.934C288.517 181.934 288.847 181.838 289.122 181.648C289.397 181.458 289.607 181.185 289.75 180.829C289.899 180.474 289.973 180.05 289.973 179.56V179.547C289.973 179.052 289.899 178.629 289.75 178.277C289.607 177.922 289.397 177.649 289.122 177.458C288.847 177.264 288.517 177.167 288.132 177.167C287.751 177.167 287.421 177.264 287.142 177.458C286.862 177.649 286.649 177.922 286.5 178.277C286.352 178.633 286.278 179.056 286.278 179.547V179.56C286.278 180.046 286.352 180.469 286.5 180.829C286.649 181.185 286.862 181.458 287.142 181.648C287.421 181.838 287.751 181.934 288.132 181.934ZM295.914 183.133C295.241 183.133 294.664 182.989 294.181 182.702C293.699 182.41 293.326 181.997 293.064 181.464C292.806 180.931 292.677 180.3 292.677 179.572V179.566C292.677 178.847 292.806 178.218 293.064 177.681C293.326 177.143 293.694 176.724 294.168 176.424C294.647 176.123 295.205 175.973 295.844 175.973C296.487 175.973 297.04 176.117 297.501 176.405C297.966 176.693 298.324 177.097 298.574 177.617C298.823 178.133 298.948 178.739 298.948 179.433V179.915H293.375V178.931H298.263L297.603 179.845V179.293C297.603 178.802 297.526 178.396 297.374 178.074C297.226 177.748 297.021 177.505 296.758 177.344C296.496 177.183 296.193 177.103 295.851 177.103C295.508 177.103 295.201 177.188 294.93 177.357C294.664 177.522 294.452 177.767 294.295 178.093C294.143 178.419 294.067 178.819 294.067 179.293V179.845C294.067 180.298 294.143 180.685 294.295 181.007C294.448 181.328 294.664 181.574 294.943 181.743C295.226 181.912 295.561 181.997 295.946 181.997C296.242 181.997 296.496 181.957 296.708 181.876C296.923 181.792 297.099 181.688 297.234 181.565C297.374 181.443 297.469 181.322 297.52 181.204L297.545 181.153H298.878L298.866 181.21C298.806 181.438 298.703 181.667 298.555 181.896C298.407 182.12 298.21 182.325 297.964 182.511C297.723 182.697 297.431 182.848 297.088 182.962C296.75 183.076 296.358 183.133 295.914 183.133ZM300.649 183V173.402H302.027V183H300.649Z" fill="#BFBFBF"/>
<g clip-path="url(#clip24_207_14470)">
<g clip-path="url(#clip25_207_14470)">
<rect width="16" height="16" transform="translate(180 110)" fill="#0D6FFF"/>
</g>
<path d="M184.75 118C184.75 117.448 185.198 117 185.75 117H190.25C190.802 117 191.25 117.448 191.25 118C191.25 118.552 190.802 119 190.25 119H185.75C185.198 119 184.75 118.552 184.75 118Z" fill="white"/>
</g>
<path d="M200.149 123V113.84H201.571V121.769H205.868V123H200.149ZM209.397 123.114C208.962 123.114 208.57 123.032 208.223 122.867C207.88 122.697 207.61 122.458 207.411 122.149C207.212 121.84 207.112 121.479 207.112 121.064V121.051C207.112 120.637 207.212 120.283 207.411 119.991C207.614 119.699 207.906 119.471 208.287 119.306C208.672 119.136 209.137 119.035 209.683 119.001L212.229 118.849V119.82L209.874 119.972C209.4 120.002 209.05 120.103 208.826 120.277C208.602 120.446 208.49 120.685 208.49 120.994V121.007C208.49 121.32 208.61 121.568 208.852 121.75C209.093 121.927 209.397 122.016 209.766 122.016C210.108 122.016 210.413 121.948 210.68 121.813C210.951 121.673 211.162 121.487 211.314 121.254C211.467 121.017 211.543 120.751 211.543 120.455V118.284C211.543 117.903 211.424 117.613 211.188 117.414C210.955 117.211 210.608 117.109 210.146 117.109C209.761 117.109 209.446 117.177 209.201 117.312C208.959 117.448 208.799 117.638 208.718 117.884L208.706 117.903H207.379L207.385 117.858C207.44 117.478 207.59 117.147 207.836 116.868C208.086 116.585 208.411 116.365 208.813 116.208C209.22 116.051 209.683 115.973 210.204 115.973C210.783 115.973 211.274 116.066 211.676 116.252C212.083 116.434 212.389 116.699 212.597 117.046C212.808 117.389 212.914 117.801 212.914 118.284V123H211.543V122.022H211.441C211.306 122.255 211.137 122.454 210.934 122.619C210.73 122.78 210.5 122.903 210.242 122.987C209.984 123.072 209.702 123.114 209.397 123.114ZM218.525 123.114C218.204 123.114 217.908 123.068 217.637 122.975C217.366 122.877 217.125 122.74 216.913 122.562C216.706 122.38 216.536 122.164 216.405 121.915H216.297V123H214.92V113.402H216.297V117.198H216.405C216.528 116.949 216.695 116.735 216.907 116.557C217.118 116.375 217.362 116.236 217.637 116.138C217.912 116.037 218.208 115.986 218.525 115.986C219.109 115.986 219.615 116.132 220.042 116.424C220.47 116.712 220.8 117.122 221.033 117.655C221.265 118.188 221.382 118.819 221.382 119.547V119.56C221.382 120.283 221.263 120.912 221.026 121.445C220.794 121.978 220.464 122.391 220.036 122.683C219.609 122.97 219.105 123.114 218.525 123.114ZM218.132 121.934C218.517 121.934 218.847 121.838 219.122 121.648C219.397 121.458 219.607 121.185 219.75 120.829C219.899 120.474 219.973 120.05 219.973 119.56V119.547C219.973 119.052 219.899 118.629 219.75 118.277C219.607 117.922 219.397 117.649 219.122 117.458C218.847 117.264 218.517 117.167 218.132 117.167C217.751 117.167 217.421 117.264 217.142 117.458C216.862 117.649 216.649 117.922 216.5 118.277C216.352 118.633 216.278 119.056 216.278 119.547V119.56C216.278 120.046 216.352 120.469 216.5 120.829C216.649 121.185 216.862 121.458 217.142 121.648C217.421 121.838 217.751 121.934 218.132 121.934ZM225.914 123.133C225.241 123.133 224.664 122.989 224.181 122.702C223.699 122.41 223.326 121.997 223.064 121.464C222.806 120.931 222.677 120.3 222.677 119.572V119.566C222.677 118.847 222.806 118.218 223.064 117.681C223.326 117.143 223.694 116.724 224.168 116.424C224.647 116.123 225.205 115.973 225.844 115.973C226.487 115.973 227.04 116.117 227.501 116.405C227.966 116.693 228.324 117.097 228.574 117.617C228.823 118.133 228.948 118.739 228.948 119.433V119.915H223.375V118.931H228.263L227.603 119.845V119.293C227.603 118.802 227.526 118.396 227.374 118.074C227.226 117.748 227.021 117.505 226.758 117.344C226.496 117.183 226.193 117.103 225.851 117.103C225.508 117.103 225.201 117.188 224.93 117.357C224.664 117.522 224.452 117.767 224.295 118.093C224.143 118.419 224.067 118.819 224.067 119.293V119.845C224.067 120.298 224.143 120.685 224.295 121.007C224.448 121.328 224.664 121.574 224.943 121.743C225.226 121.912 225.561 121.997 225.946 121.997C226.242 121.997 226.496 121.957 226.708 121.876C226.923 121.792 227.099 121.688 227.234 121.565C227.374 121.443 227.469 121.322 227.52 121.204L227.545 121.153H228.878L228.866 121.21C228.806 121.438 228.703 121.667 228.555 121.896C228.407 122.12 228.21 122.325 227.964 122.511C227.723 122.697 227.431 122.848 227.088 122.962C226.75 123.076 226.358 123.133 225.914 123.133ZM230.649 123V113.402H232.027V123H230.649Z" fill="#1A1A1A"/>
<g clip-path="url(#clip26_207_14470)">
<g clip-path="url(#clip27_207_14470)">
<rect width="16" height="16" transform="translate(180 140)" fill="#0D6FFF"/>
<g opacity="0.15">
<rect width="16" height="16" transform="translate(180 140)" fill="black"/>
</g>
</g>
<path d="M184.75 148C184.75 147.448 185.198 147 185.75 147H190.25C190.802 147 191.25 147.448 191.25 148C191.25 148.552 190.802 149 190.25 149H185.75C185.198 149 184.75 148.552 184.75 148Z" fill="white"/>
</g>
<path d="M200.149 153V143.84H201.571V151.769H205.868V153H200.149ZM209.397 153.114C208.962 153.114 208.57 153.032 208.223 152.867C207.88 152.697 207.61 152.458 207.411 152.149C207.212 151.84 207.112 151.479 207.112 151.064V151.051C207.112 150.637 207.212 150.283 207.411 149.991C207.614 149.699 207.906 149.471 208.287 149.306C208.672 149.136 209.137 149.035 209.683 149.001L212.229 148.849V149.82L209.874 149.972C209.4 150.002 209.05 150.103 208.826 150.277C208.602 150.446 208.49 150.685 208.49 150.994V151.007C208.49 151.32 208.61 151.568 208.852 151.75C209.093 151.927 209.397 152.016 209.766 152.016C210.108 152.016 210.413 151.948 210.68 151.813C210.951 151.673 211.162 151.487 211.314 151.254C211.467 151.017 211.543 150.751 211.543 150.455V148.284C211.543 147.903 211.424 147.613 211.188 147.414C210.955 147.211 210.608 147.109 210.146 147.109C209.761 147.109 209.446 147.177 209.201 147.312C208.959 147.448 208.799 147.638 208.718 147.884L208.706 147.903H207.379L207.385 147.858C207.44 147.478 207.59 147.147 207.836 146.868C208.086 146.585 208.411 146.365 208.813 146.208C209.22 146.051 209.683 145.973 210.204 145.973C210.783 145.973 211.274 146.066 211.676 146.252C212.083 146.434 212.389 146.699 212.597 147.046C212.808 147.389 212.914 147.801 212.914 148.284V153H211.543V152.022H211.441C211.306 152.255 211.137 152.454 210.934 152.619C210.73 152.78 210.5 152.903 210.242 152.987C209.984 153.072 209.702 153.114 209.397 153.114ZM218.525 153.114C218.204 153.114 217.908 153.068 217.637 152.975C217.366 152.877 217.125 152.74 216.913 152.562C216.706 152.38 216.536 152.164 216.405 151.915H216.297V153H214.92V143.402H216.297V147.198H216.405C216.528 146.949 216.695 146.735 216.907 146.557C217.118 146.375 217.362 146.236 217.637 146.138C217.912 146.037 218.208 145.986 218.525 145.986C219.109 145.986 219.615 146.132 220.042 146.424C220.47 146.712 220.8 147.122 221.033 147.655C221.265 148.188 221.382 148.819 221.382 149.547V149.56C221.382 150.283 221.263 150.912 221.026 151.445C220.794 151.978 220.464 152.391 220.036 152.683C219.609 152.97 219.105 153.114 218.525 153.114ZM218.132 151.934C218.517 151.934 218.847 151.838 219.122 151.648C219.397 151.458 219.607 151.185 219.75 150.829C219.899 150.474 219.973 150.05 219.973 149.56V149.547C219.973 149.052 219.899 148.629 219.75 148.277C219.607 147.922 219.397 147.649 219.122 147.458C218.847 147.264 218.517 147.167 218.132 147.167C217.751 147.167 217.421 147.264 217.142 147.458C216.862 147.649 216.649 147.922 216.5 148.277C216.352 148.633 216.278 149.056 216.278 149.547V149.56C216.278 150.046 216.352 150.469 216.5 150.829C216.649 151.185 216.862 151.458 217.142 151.648C217.421 151.838 217.751 151.934 218.132 151.934ZM225.914 153.133C225.241 153.133 224.664 152.989 224.181 152.702C223.699 152.41 223.326 151.997 223.064 151.464C222.806 150.931 222.677 150.3 222.677 149.572V149.566C222.677 148.847 222.806 148.218 223.064 147.681C223.326 147.143 223.694 146.724 224.168 146.424C224.647 146.123 225.205 145.973 225.844 145.973C226.487 145.973 227.04 146.117 227.501 146.405C227.966 146.693 228.324 147.097 228.574 147.617C228.823 148.133 228.948 148.739 228.948 149.433V149.915H223.375V148.931H228.263L227.603 149.845V149.293C227.603 148.802 227.526 148.396 227.374 148.074C227.226 147.748 227.021 147.505 226.758 147.344C226.496 147.183 226.193 147.103 225.851 147.103C225.508 147.103 225.201 147.188 224.93 147.357C224.664 147.522 224.452 147.767 224.295 148.093C224.143 148.419 224.067 148.819 224.067 149.293V149.845C224.067 150.298 224.143 150.685 224.295 151.007C224.448 151.328 224.664 151.574 224.943 151.743C225.226 151.912 225.561 151.997 225.946 151.997C226.242 151.997 226.496 151.957 226.708 151.876C226.923 151.792 227.099 151.688 227.234 151.565C227.374 151.443 227.469 151.322 227.52 151.204L227.545 151.153H228.878L228.866 151.21C228.806 151.438 228.703 151.667 228.555 151.896C228.407 152.12 228.21 152.325 227.964 152.511C227.723 152.697 227.431 152.848 227.088 152.962C226.75 153.076 226.358 153.133 225.914 153.133ZM230.649 153V143.402H232.027V153H230.649Z" fill="#1A1A1A"/>
<g clip-path="url(#clip28_207_14470)">
<g opacity="0.5" clip-path="url(#clip29_207_14470)">
<g opacity="0.5">
<rect width="16" height="16" transform="translate(180 170)" fill="#0D6FFF"/>
</g>
</g>
<rect x="184.75" y="177" width="6.5" height="2" rx="1" fill="white" fill-opacity="0.5"/>
</g>
<path d="M200.149 183V173.84H201.571V181.769H205.868V183H200.149ZM209.397 183.114C208.962 183.114 208.57 183.032 208.223 182.867C207.88 182.697 207.61 182.458 207.411 182.149C207.212 181.84 207.112 181.479 207.112 181.064V181.051C207.112 180.637 207.212 180.283 207.411 179.991C207.614 179.699 207.906 179.471 208.287 179.306C208.672 179.136 209.137 179.035 209.683 179.001L212.229 178.849V179.82L209.874 179.972C209.4 180.002 209.05 180.103 208.826 180.277C208.602 180.446 208.49 180.685 208.49 180.994V181.007C208.49 181.32 208.61 181.568 208.852 181.75C209.093 181.927 209.397 182.016 209.766 182.016C210.108 182.016 210.413 181.948 210.68 181.813C210.951 181.673 211.162 181.487 211.314 181.254C211.467 181.017 211.543 180.751 211.543 180.455V178.284C211.543 177.903 211.424 177.613 211.188 177.414C210.955 177.211 210.608 177.109 210.146 177.109C209.761 177.109 209.446 177.177 209.201 177.312C208.959 177.448 208.799 177.638 208.718 177.884L208.706 177.903H207.379L207.385 177.858C207.44 177.478 207.59 177.147 207.836 176.868C208.086 176.585 208.411 176.365 208.813 176.208C209.22 176.051 209.683 175.973 210.204 175.973C210.783 175.973 211.274 176.066 211.676 176.252C212.083 176.434 212.389 176.699 212.597 177.046C212.808 177.389 212.914 177.801 212.914 178.284V183H211.543V182.022H211.441C211.306 182.255 211.137 182.454 210.934 182.619C210.73 182.78 210.5 182.903 210.242 182.987C209.984 183.072 209.702 183.114 209.397 183.114ZM218.525 183.114C218.204 183.114 217.908 183.068 217.637 182.975C217.366 182.877 217.125 182.74 216.913 182.562C216.706 182.38 216.536 182.164 216.405 181.915H216.297V183H214.92V173.402H216.297V177.198H216.405C216.528 176.949 216.695 176.735 216.907 176.557C217.118 176.375 217.362 176.236 217.637 176.138C217.912 176.037 218.208 175.986 218.525 175.986C219.109 175.986 219.615 176.132 220.042 176.424C220.47 176.712 220.8 177.122 221.033 177.655C221.265 178.188 221.382 178.819 221.382 179.547V179.56C221.382 180.283 221.263 180.912 221.026 181.445C220.794 181.978 220.464 182.391 220.036 182.683C219.609 182.97 219.105 183.114 218.525 183.114ZM218.132 181.934C218.517 181.934 218.847 181.838 219.122 181.648C219.397 181.458 219.607 181.185 219.75 180.829C219.899 180.474 219.973 180.05 219.973 179.56V179.547C219.973 179.052 219.899 178.629 219.75 178.277C219.607 177.922 219.397 177.649 219.122 177.458C218.847 177.264 218.517 177.167 218.132 177.167C217.751 177.167 217.421 177.264 217.142 177.458C216.862 177.649 216.649 177.922 216.5 178.277C216.352 178.633 216.278 179.056 216.278 179.547V179.56C216.278 180.046 216.352 180.469 216.5 180.829C216.649 181.185 216.862 181.458 217.142 181.648C217.421 181.838 217.751 181.934 218.132 181.934ZM225.914 183.133C225.241 183.133 224.664 182.989 224.181 182.702C223.699 182.41 223.326 181.997 223.064 181.464C222.806 180.931 222.677 180.3 222.677 179.572V179.566C222.677 178.847 222.806 178.218 223.064 177.681C223.326 177.143 223.694 176.724 224.168 176.424C224.647 176.123 225.205 175.973 225.844 175.973C226.487 175.973 227.04 176.117 227.501 176.405C227.966 176.693 228.324 177.097 228.574 177.617C228.823 178.133 228.948 178.739 228.948 179.433V179.915H223.375V178.931H228.263L227.603 179.845V179.293C227.603 178.802 227.526 178.396 227.374 178.074C227.226 177.748 227.021 177.505 226.758 177.344C226.496 177.183 226.193 177.103 225.851 177.103C225.508 177.103 225.201 177.188 224.93 177.357C224.664 177.522 224.452 177.767 224.295 178.093C224.143 178.419 224.067 178.819 224.067 179.293V179.845C224.067 180.298 224.143 180.685 224.295 181.007C224.448 181.328 224.664 181.574 224.943 181.743C225.226 181.912 225.561 181.997 225.946 181.997C226.242 181.997 226.496 181.957 226.708 181.876C226.923 181.792 227.099 181.688 227.234 181.565C227.374 181.443 227.469 181.322 227.52 181.204L227.545 181.153H228.878L228.866 181.21C228.806 181.438 228.703 181.667 228.555 181.896C228.407 182.12 228.21 182.325 227.964 182.511C227.723 182.697 227.431 182.848 227.088 182.962C226.75 183.076 226.358 183.133 225.914 183.133ZM230.649 183V173.402H232.027V183H230.649Z" fill="#BFBFBF"/>
<g clip-path="url(#clip30_207_14470)">
<g clip-path="url(#clip31_207_14470)">
<rect width="16" height="16" transform="translate(110 110)" fill="#0D6FFF"/>
</g>
<path d="M115.6 118C115.6 116.675 116.675 115.6 118 115.6C119.325 115.6 120.4 116.675 120.4 118C120.4 119.325 119.325 120.4 118 120.4C116.675 120.4 115.6 119.325 115.6 118Z" fill="white"/>
</g>
<path d="M130.149 123V113.84H131.571V121.769H135.868V123H130.149ZM139.397 123.114C138.962 123.114 138.57 123.032 138.223 122.867C137.88 122.697 137.61 122.458 137.411 122.149C137.212 121.84 137.112 121.479 137.112 121.064V121.051C137.112 120.637 137.212 120.283 137.411 119.991C137.614 119.699 137.906 119.471 138.287 119.306C138.672 119.136 139.137 119.035 139.683 119.001L142.229 118.849V119.82L139.874 119.972C139.4 120.002 139.05 120.103 138.826 120.277C138.602 120.446 138.49 120.685 138.49 120.994V121.007C138.49 121.32 138.61 121.568 138.852 121.75C139.093 121.927 139.397 122.016 139.766 122.016C140.108 122.016 140.413 121.948 140.68 121.813C140.951 121.673 141.162 121.487 141.314 121.254C141.467 121.017 141.543 120.751 141.543 120.455V118.284C141.543 117.903 141.424 117.613 141.188 117.414C140.955 117.211 140.608 117.109 140.146 117.109C139.761 117.109 139.446 117.177 139.201 117.312C138.959 117.448 138.799 117.638 138.718 117.884L138.706 117.903H137.379L137.385 117.858C137.44 117.478 137.59 117.147 137.836 116.868C138.086 116.585 138.411 116.365 138.813 116.208C139.22 116.051 139.683 115.973 140.204 115.973C140.783 115.973 141.274 116.066 141.676 116.252C142.083 116.434 142.389 116.699 142.597 117.046C142.808 117.389 142.914 117.801 142.914 118.284V123H141.543V122.022H141.441C141.306 122.255 141.137 122.454 140.934 122.619C140.73 122.78 140.5 122.903 140.242 122.987C139.984 123.072 139.702 123.114 139.397 123.114ZM148.525 123.114C148.204 123.114 147.908 123.068 147.637 122.975C147.366 122.877 147.125 122.74 146.913 122.562C146.706 122.38 146.536 122.164 146.405 121.915H146.297V123H144.92V113.402H146.297V117.198H146.405C146.528 116.949 146.695 116.735 146.907 116.557C147.118 116.375 147.362 116.236 147.637 116.138C147.912 116.037 148.208 115.986 148.525 115.986C149.109 115.986 149.615 116.132 150.042 116.424C150.47 116.712 150.8 117.122 151.033 117.655C151.265 118.188 151.382 118.819 151.382 119.547V119.56C151.382 120.283 151.263 120.912 151.026 121.445C150.794 121.978 150.464 122.391 150.036 122.683C149.609 122.97 149.105 123.114 148.525 123.114ZM148.132 121.934C148.517 121.934 148.847 121.838 149.122 121.648C149.397 121.458 149.607 121.185 149.75 120.829C149.899 120.474 149.973 120.05 149.973 119.56V119.547C149.973 119.052 149.899 118.629 149.75 118.277C149.607 117.922 149.397 117.649 149.122 117.458C148.847 117.264 148.517 117.167 148.132 117.167C147.751 117.167 147.421 117.264 147.142 117.458C146.862 117.649 146.649 117.922 146.5 118.277C146.352 118.633 146.278 119.056 146.278 119.547V119.56C146.278 120.046 146.352 120.469 146.5 120.829C146.649 121.185 146.862 121.458 147.142 121.648C147.421 121.838 147.751 121.934 148.132 121.934ZM155.914 123.133C155.241 123.133 154.664 122.989 154.181 122.702C153.699 122.41 153.326 121.997 153.064 121.464C152.806 120.931 152.677 120.3 152.677 119.572V119.566C152.677 118.847 152.806 118.218 153.064 117.681C153.326 117.143 153.694 116.724 154.168 116.424C154.647 116.123 155.205 115.973 155.844 115.973C156.487 115.973 157.04 116.117 157.501 116.405C157.966 116.693 158.324 117.097 158.574 117.617C158.823 118.133 158.948 118.739 158.948 119.433V119.915H153.375V118.931H158.263L157.603 119.845V119.293C157.603 118.802 157.526 118.396 157.374 118.074C157.226 117.748 157.021 117.505 156.758 117.344C156.496 117.183 156.193 117.103 155.851 117.103C155.508 117.103 155.201 117.188 154.93 117.357C154.664 117.522 154.452 117.767 154.295 118.093C154.143 118.419 154.067 118.819 154.067 119.293V119.845C154.067 120.298 154.143 120.685 154.295 121.007C154.448 121.328 154.664 121.574 154.943 121.743C155.226 121.912 155.561 121.997 155.946 121.997C156.242 121.997 156.496 121.957 156.708 121.876C156.923 121.792 157.099 121.688 157.234 121.565C157.374 121.443 157.469 121.322 157.52 121.204L157.545 121.153H158.878L158.866 121.21C158.806 121.438 158.703 121.667 158.555 121.896C158.407 122.12 158.21 122.325 157.964 122.511C157.723 122.697 157.431 122.848 157.088 122.962C156.75 123.076 156.358 123.133 155.914 123.133ZM160.649 123V113.402H162.027V123H160.649Z" fill="#1A1A1A"/>
<g clip-path="url(#clip32_207_14470)">
<g clip-path="url(#clip33_207_14470)">
<rect width="16" height="16" transform="translate(110 140)" fill="#0D6FFF"/>
<g opacity="0.15">
<rect width="16" height="16" transform="translate(110 140)" fill="black"/>
</g>
</g>
<path d="M115.6 148C115.6 146.675 116.675 145.6 118 145.6C119.325 145.6 120.4 146.675 120.4 148C120.4 149.325 119.325 150.4 118 150.4C116.675 150.4 115.6 149.325 115.6 148Z" fill="white"/>
</g>
<path d="M130.149 153V143.84H131.571V151.769H135.868V153H130.149ZM139.397 153.114C138.962 153.114 138.57 153.032 138.223 152.867C137.88 152.697 137.61 152.458 137.411 152.149C137.212 151.84 137.112 151.479 137.112 151.064V151.051C137.112 150.637 137.212 150.283 137.411 149.991C137.614 149.699 137.906 149.471 138.287 149.306C138.672 149.136 139.137 149.035 139.683 149.001L142.229 148.849V149.82L139.874 149.972C139.4 150.002 139.05 150.103 138.826 150.277C138.602 150.446 138.49 150.685 138.49 150.994V151.007C138.49 151.32 138.61 151.568 138.852 151.75C139.093 151.927 139.397 152.016 139.766 152.016C140.108 152.016 140.413 151.948 140.68 151.813C140.951 151.673 141.162 151.487 141.314 151.254C141.467 151.017 141.543 150.751 141.543 150.455V148.284C141.543 147.903 141.424 147.613 141.188 147.414C140.955 147.211 140.608 147.109 140.146 147.109C139.761 147.109 139.446 147.177 139.201 147.312C138.959 147.448 138.799 147.638 138.718 147.884L138.706 147.903H137.379L137.385 147.858C137.44 147.478 137.59 147.147 137.836 146.868C138.086 146.585 138.411 146.365 138.813 146.208C139.22 146.051 139.683 145.973 140.204 145.973C140.783 145.973 141.274 146.066 141.676 146.252C142.083 146.434 142.389 146.699 142.597 147.046C142.808 147.389 142.914 147.801 142.914 148.284V153H141.543V152.022H141.441C141.306 152.255 141.137 152.454 140.934 152.619C140.73 152.78 140.5 152.903 140.242 152.987C139.984 153.072 139.702 153.114 139.397 153.114ZM148.525 153.114C148.204 153.114 147.908 153.068 147.637 152.975C147.366 152.877 147.125 152.74 146.913 152.562C146.706 152.38 146.536 152.164 146.405 151.915H146.297V153H144.92V143.402H146.297V147.198H146.405C146.528 146.949 146.695 146.735 146.907 146.557C147.118 146.375 147.362 146.236 147.637 146.138C147.912 146.037 148.208 145.986 148.525 145.986C149.109 145.986 149.615 146.132 150.042 146.424C150.47 146.712 150.8 147.122 151.033 147.655C151.265 148.188 151.382 148.819 151.382 149.547V149.56C151.382 150.283 151.263 150.912 151.026 151.445C150.794 151.978 150.464 152.391 150.036 152.683C149.609 152.97 149.105 153.114 148.525 153.114ZM148.132 151.934C148.517 151.934 148.847 151.838 149.122 151.648C149.397 151.458 149.607 151.185 149.75 150.829C149.899 150.474 149.973 150.05 149.973 149.56V149.547C149.973 149.052 149.899 148.629 149.75 148.277C149.607 147.922 149.397 147.649 149.122 147.458C148.847 147.264 148.517 147.167 148.132 147.167C147.751 147.167 147.421 147.264 147.142 147.458C146.862 147.649 146.649 147.922 146.5 148.277C146.352 148.633 146.278 149.056 146.278 149.547V149.56C146.278 150.046 146.352 150.469 146.5 150.829C146.649 151.185 146.862 151.458 147.142 151.648C147.421 151.838 147.751 151.934 148.132 151.934ZM155.914 153.133C155.241 153.133 154.664 152.989 154.181 152.702C153.699 152.41 153.326 151.997 153.064 151.464C152.806 150.931 152.677 150.3 152.677 149.572V149.566C152.677 148.847 152.806 148.218 153.064 147.681C153.326 147.143 153.694 146.724 154.168 146.424C154.647 146.123 155.205 145.973 155.844 145.973C156.487 145.973 157.04 146.117 157.501 146.405C157.966 146.693 158.324 147.097 158.574 147.617C158.823 148.133 158.948 148.739 158.948 149.433V149.915H153.375V148.931H158.263L157.603 149.845V149.293C157.603 148.802 157.526 148.396 157.374 148.074C157.226 147.748 157.021 147.505 156.758 147.344C156.496 147.183 156.193 147.103 155.851 147.103C155.508 147.103 155.201 147.188 154.93 147.357C154.664 147.522 154.452 147.767 154.295 148.093C154.143 148.419 154.067 148.819 154.067 149.293V149.845C154.067 150.298 154.143 150.685 154.295 151.007C154.448 151.328 154.664 151.574 154.943 151.743C155.226 151.912 155.561 151.997 155.946 151.997C156.242 151.997 156.496 151.957 156.708 151.876C156.923 151.792 157.099 151.688 157.234 151.565C157.374 151.443 157.469 151.322 157.52 151.204L157.545 151.153H158.878L158.866 151.21C158.806 151.438 158.703 151.667 158.555 151.896C158.407 152.12 158.21 152.325 157.964 152.511C157.723 152.697 157.431 152.848 157.088 152.962C156.75 153.076 156.358 153.133 155.914 153.133ZM160.649 153V143.402H162.027V153H160.649Z" fill="#1A1A1A"/>
<g clip-path="url(#clip34_207_14470)">
<g opacity="0.5" clip-path="url(#clip35_207_14470)">
<g opacity="0.5">
<rect width="16" height="16" transform="translate(110 170)" fill="#0D6FFF"/>
</g>
</g>
<rect x="115.6" y="175.6" width="4.8" height="4.8" rx="2.4" fill="white" fill-opacity="0.5"/>
</g>
<path d="M130.149 183V173.84H131.571V181.769H135.868V183H130.149ZM139.397 183.114C138.962 183.114 138.57 183.032 138.223 182.867C137.88 182.697 137.61 182.458 137.411 182.149C137.212 181.84 137.112 181.479 137.112 181.064V181.051C137.112 180.637 137.212 180.283 137.411 179.991C137.614 179.699 137.906 179.471 138.287 179.306C138.672 179.136 139.137 179.035 139.683 179.001L142.229 178.849V179.82L139.874 179.972C139.4 180.002 139.05 180.103 138.826 180.277C138.602 180.446 138.49 180.685 138.49 180.994V181.007C138.49 181.32 138.61 181.568 138.852 181.75C139.093 181.927 139.397 182.016 139.766 182.016C140.108 182.016 140.413 181.948 140.68 181.813C140.951 181.673 141.162 181.487 141.314 181.254C141.467 181.017 141.543 180.751 141.543 180.455V178.284C141.543 177.903 141.424 177.613 141.188 177.414C140.955 177.211 140.608 177.109 140.146 177.109C139.761 177.109 139.446 177.177 139.201 177.312C138.959 177.448 138.799 177.638 138.718 177.884L138.706 177.903H137.379L137.385 177.858C137.44 177.478 137.59 177.147 137.836 176.868C138.086 176.585 138.411 176.365 138.813 176.208C139.22 176.051 139.683 175.973 140.204 175.973C140.783 175.973 141.274 176.066 141.676 176.252C142.083 176.434 142.389 176.699 142.597 177.046C142.808 177.389 142.914 177.801 142.914 178.284V183H141.543V182.022H141.441C141.306 182.255 141.137 182.454 140.934 182.619C140.73 182.78 140.5 182.903 140.242 182.987C139.984 183.072 139.702 183.114 139.397 183.114ZM148.525 183.114C148.204 183.114 147.908 183.068 147.637 182.975C147.366 182.877 147.125 182.74 146.913 182.562C146.706 182.38 146.536 182.164 146.405 181.915H146.297V183H144.92V173.402H146.297V177.198H146.405C146.528 176.949 146.695 176.735 146.907 176.557C147.118 176.375 147.362 176.236 147.637 176.138C147.912 176.037 148.208 175.986 148.525 175.986C149.109 175.986 149.615 176.132 150.042 176.424C150.47 176.712 150.8 177.122 151.033 177.655C151.265 178.188 151.382 178.819 151.382 179.547V179.56C151.382 180.283 151.263 180.912 151.026 181.445C150.794 181.978 150.464 182.391 150.036 182.683C149.609 182.97 149.105 183.114 148.525 183.114ZM148.132 181.934C148.517 181.934 148.847 181.838 149.122 181.648C149.397 181.458 149.607 181.185 149.75 180.829C149.899 180.474 149.973 180.05 149.973 179.56V179.547C149.973 179.052 149.899 178.629 149.75 178.277C149.607 177.922 149.397 177.649 149.122 177.458C148.847 177.264 148.517 177.167 148.132 177.167C147.751 177.167 147.421 177.264 147.142 177.458C146.862 177.649 146.649 177.922 146.5 178.277C146.352 178.633 146.278 179.056 146.278 179.547V179.56C146.278 180.046 146.352 180.469 146.5 180.829C146.649 181.185 146.862 181.458 147.142 181.648C147.421 181.838 147.751 181.934 148.132 181.934ZM155.914 183.133C155.241 183.133 154.664 182.989 154.181 182.702C153.699 182.41 153.326 181.997 153.064 181.464C152.806 180.931 152.677 180.3 152.677 179.572V179.566C152.677 178.847 152.806 178.218 153.064 177.681C153.326 177.143 153.694 176.724 154.168 176.424C154.647 176.123 155.205 175.973 155.844 175.973C156.487 175.973 157.04 176.117 157.501 176.405C157.966 176.693 158.324 177.097 158.574 177.617C158.823 178.133 158.948 178.739 158.948 179.433V179.915H153.375V178.931H158.263L157.603 179.845V179.293C157.603 178.802 157.526 178.396 157.374 178.074C157.226 177.748 157.021 177.505 156.758 177.344C156.496 177.183 156.193 177.103 155.851 177.103C155.508 177.103 155.201 177.188 154.93 177.357C154.664 177.522 154.452 177.767 154.295 178.093C154.143 178.419 154.067 178.819 154.067 179.293V179.845C154.067 180.298 154.143 180.685 154.295 181.007C154.448 181.328 154.664 181.574 154.943 181.743C155.226 181.912 155.561 181.997 155.946 181.997C156.242 181.997 156.496 181.957 156.708 181.876C156.923 181.792 157.099 181.688 157.234 181.565C157.374 181.443 157.469 181.322 157.52 181.204L157.545 181.153H158.878L158.866 181.21C158.806 181.438 158.703 181.667 158.555 181.896C158.407 182.12 158.21 182.325 157.964 182.511C157.723 182.697 157.431 182.848 157.088 182.962C156.75 183.076 156.358 183.133 155.914 183.133ZM160.649 183V173.402H162.027V183H160.649Z" fill="#BFBFBF"/>
<rect x="40" y="4" width="61.75" height="30" rx="3" fill="#ECEBEB"/>
<rect x="40.5" y="4.5" width="60.75" height="29" rx="2.5" stroke="black" stroke-opacity="0.2"/>
<path d="M46.9688 22V14H51.7969V14.8594H47.9375V17.5625H51.5469V18.4219H47.9375V21.1406H51.8594V22H46.9688ZM54.1055 16L55.543 18.4531L56.9805 16H58.043L56.1055 19L58.043 22H56.9805L55.543 19.6719L54.1055 22H53.043L54.9492 19L53.043 16H54.1055ZM61.124 22.1406C60.7438 22.1406 60.3988 22.069 60.0889 21.9258C59.779 21.7799 59.5329 21.5703 59.3506 21.2969C59.1683 21.0208 59.0771 20.6875 59.0771 20.2969C59.0771 19.9531 59.1449 19.6745 59.2803 19.4609C59.4157 19.2448 59.5967 19.0755 59.8232 18.9531C60.0498 18.8307 60.2998 18.7396 60.5732 18.6797C60.8493 18.6172 61.1266 18.5677 61.4053 18.5313C61.7699 18.4844 62.0654 18.4492 62.292 18.4258C62.5212 18.3997 62.6878 18.3568 62.792 18.2969C62.8988 18.237 62.9521 18.1328 62.9521 17.9844V17.9531C62.9521 17.5677 62.8467 17.2682 62.6357 17.0547C62.4274 16.8411 62.111 16.7344 61.6865 16.7344C61.2464 16.7344 60.9014 16.8307 60.6514 17.0234C60.4014 17.2161 60.2256 17.4219 60.124 17.6406L59.249 17.3281C59.4053 16.9635 59.6136 16.6797 59.874 16.4766C60.137 16.2708 60.4235 16.1276 60.7334 16.0469C61.0459 15.9635 61.3532 15.9219 61.6553 15.9219C61.848 15.9219 62.0693 15.9453 62.3193 15.9922C62.5719 16.0365 62.8154 16.1289 63.0498 16.2695C63.2868 16.4102 63.4834 16.6224 63.6396 16.9062C63.7959 17.1901 63.874 17.5703 63.874 18.0469V22H62.9521V21.1875H62.9053C62.8428 21.3177 62.7386 21.457 62.5928 21.6055C62.4469 21.7539 62.2529 21.8802 62.0107 21.9844C61.7686 22.0885 61.473 22.1406 61.124 22.1406ZM61.2646 21.3125C61.6292 21.3125 61.9365 21.2409 62.1865 21.0977C62.4391 20.9544 62.6292 20.7695 62.7568 20.543C62.887 20.3164 62.9521 20.0781 62.9521 19.8281V18.9844C62.9131 19.0312 62.8271 19.0742 62.6943 19.1133C62.5641 19.1497 62.4131 19.1823 62.2412 19.2109C62.0719 19.237 61.9066 19.2604 61.7451 19.2812C61.5863 19.2995 61.4574 19.3151 61.3584 19.3281C61.1188 19.3594 60.8949 19.4102 60.6865 19.4805C60.4808 19.5482 60.3141 19.651 60.1865 19.7891C60.0615 19.9245 59.999 20.1094 59.999 20.3437C59.999 20.6641 60.1175 20.9062 60.3545 21.0703C60.5941 21.2318 60.8975 21.3125 61.2646 21.3125ZM65.5566 22V16H66.4473V16.9375H66.5254C66.6504 16.6172 66.8522 16.3685 67.1309 16.1914C67.4095 16.0117 67.7441 15.9219 68.1348 15.9219C68.5306 15.9219 68.86 16.0117 69.123 16.1914C69.3887 16.3685 69.5957 16.6172 69.7441 16.9375H69.8066C69.9603 16.6276 70.1908 16.3815 70.498 16.1992C70.8053 16.0143 71.1738 15.9219 71.6035 15.9219C72.14 15.9219 72.5788 16.0898 72.9199 16.4258C73.2611 16.7591 73.4316 17.2786 73.4316 17.9844V22H72.5098V17.9844C72.5098 17.5417 72.3887 17.2253 72.1465 17.0352C71.9043 16.8451 71.6191 16.75 71.291 16.75C70.8691 16.75 70.5423 16.8776 70.3105 17.1328C70.0788 17.3854 69.9629 17.7057 69.9629 18.0937V22H69.0254V17.8906C69.0254 17.5495 68.9147 17.2747 68.6934 17.0664C68.472 16.8555 68.1868 16.75 67.8379 16.75C67.5983 16.75 67.3743 16.8138 67.166 16.9414C66.9603 17.069 66.7936 17.2461 66.666 17.4727C66.541 17.6966 66.4785 17.9557 66.4785 18.25V22H65.5566ZM75.1172 24.25V16H76.0078V16.9531H76.1172C76.1849 16.849 76.2786 16.7161 76.3984 16.5547C76.5208 16.3906 76.6953 16.2448 76.9219 16.1172C77.151 15.987 77.4609 15.9219 77.8516 15.9219C78.3568 15.9219 78.8021 16.0482 79.1875 16.3008C79.5729 16.5534 79.8737 16.9115 80.0898 17.375C80.306 17.8385 80.4141 18.3854 80.4141 19.0156C80.4141 19.651 80.306 20.2018 80.0898 20.668C79.8737 21.1315 79.5742 21.4909 79.1914 21.7461C78.8086 21.9987 78.3672 22.125 77.8672 22.125C77.4818 22.125 77.1732 22.0612 76.9414 21.9336C76.7096 21.8034 76.5313 21.6562 76.4063 21.4922C76.2813 21.3255 76.1849 21.1875 76.1172 21.0781H76.0391V24.25H75.1172ZM76.0234 19C76.0234 19.4531 76.0898 19.8529 76.2227 20.1992C76.3555 20.543 76.5495 20.8125 76.8047 21.0078C77.0599 21.2005 77.3724 21.2969 77.7422 21.2969C78.1276 21.2969 78.4492 21.1953 78.707 20.9922C78.9674 20.7865 79.1628 20.5104 79.293 20.1641C79.4258 19.8151 79.4922 19.4271 79.4922 19C79.4922 18.5781 79.4271 18.1979 79.2969 17.8594C79.1693 17.5182 78.9753 17.2487 78.7148 17.0508C78.457 16.8503 78.1328 16.75 77.7422 16.75C77.3672 16.75 77.0521 16.8451 76.7969 17.0352C76.5417 17.2227 76.349 17.4857 76.2188 17.8242C76.0885 18.1602 76.0234 18.5521 76.0234 19ZM82.7422 14V22H81.8203V14H82.7422ZM86.9463 22.125C86.3682 22.125 85.8695 21.9974 85.4502 21.7422C85.0335 21.4844 84.7119 21.125 84.4854 20.6641C84.2614 20.2005 84.1494 19.6615 84.1494 19.0469C84.1494 18.4323 84.2614 17.8906 84.4854 17.4219C84.7119 16.9505 85.027 16.5833 85.4307 16.3203C85.8369 16.0547 86.3109 15.9219 86.8525 15.9219C87.165 15.9219 87.4736 15.974 87.7783 16.0781C88.083 16.1823 88.3604 16.3516 88.6104 16.5859C88.8604 16.8177 89.0596 17.125 89.208 17.5078C89.3564 17.8906 89.4307 18.362 89.4307 18.9219V19.3125H84.8057V18.5156H88.4932C88.4932 18.1771 88.4255 17.875 88.29 17.6094C88.1572 17.3437 87.9671 17.1341 87.7197 16.9805C87.4749 16.8268 87.1859 16.75 86.8525 16.75C86.4854 16.75 86.1676 16.8411 85.8994 17.0234C85.6338 17.2031 85.4294 17.4375 85.2861 17.7266C85.1429 18.0156 85.0713 18.3255 85.0713 18.6562V19.1875C85.0713 19.6406 85.1494 20.0247 85.3057 20.3398C85.4645 20.6523 85.6846 20.8906 85.9658 21.0547C86.2471 21.2161 86.5739 21.2969 86.9463 21.2969C87.1885 21.2969 87.4072 21.263 87.6025 21.1953C87.8005 21.125 87.971 21.0208 88.1143 20.8828C88.2575 20.7422 88.3682 20.5677 88.4463 20.3594L89.3369 20.6094C89.2432 20.9115 89.0856 21.1771 88.8643 21.4062C88.6429 21.6328 88.3695 21.8099 88.0439 21.9375C87.7184 22.0625 87.3525 22.125 86.9463 22.125ZM95.083 17.3437L94.2549 17.5781C94.2028 17.4401 94.126 17.306 94.0244 17.1758C93.9255 17.043 93.79 16.9336 93.6182 16.8477C93.4463 16.7617 93.2262 16.7187 92.958 16.7187C92.5908 16.7187 92.2848 16.8034 92.04 16.9727C91.7979 17.1393 91.6768 17.3516 91.6768 17.6094C91.6768 17.8385 91.7601 18.0195 91.9268 18.1523C92.0934 18.2852 92.3538 18.3958 92.708 18.4844L93.5986 18.7031C94.1351 18.8333 94.5348 19.0326 94.7979 19.3008C95.0609 19.5664 95.1924 19.9089 95.1924 20.3281C95.1924 20.6719 95.0934 20.9792 94.8955 21.25C94.7002 21.5208 94.4268 21.7344 94.0752 21.8906C93.7236 22.0469 93.3148 22.125 92.8486 22.125C92.2367 22.125 91.7301 21.9922 91.3291 21.7266C90.9281 21.4609 90.6742 21.0729 90.5674 20.5625L91.4424 20.3437C91.5257 20.6667 91.6833 20.9089 91.915 21.0703C92.1494 21.2318 92.4554 21.3125 92.833 21.3125C93.2627 21.3125 93.6038 21.2214 93.8564 21.0391C94.1117 20.8542 94.2393 20.6328 94.2393 20.375C94.2393 20.1667 94.1663 19.9922 94.0205 19.8516C93.8747 19.7083 93.6507 19.6016 93.3486 19.5312L92.3486 19.2969C91.7992 19.1667 91.3955 18.9648 91.1377 18.6914C90.8825 18.4154 90.7549 18.0703 90.7549 17.6562C90.7549 17.3177 90.8499 17.0182 91.04 16.7578C91.2327 16.4974 91.4945 16.293 91.8252 16.1445C92.1585 15.9961 92.5361 15.9219 92.958 15.9219C93.5518 15.9219 94.0179 16.0521 94.3564 16.3125C94.6976 16.5729 94.9398 16.9167 95.083 17.3437Z" fill="black"/>
<defs>
<clipPath id="clip0_207_14470">
<rect x="250" y="210" width="16" height="16" rx="8" fill="white"/>
</clipPath>
<clipPath id="clip1_207_14470">
<rect width="16" height="16" fill="white" transform="translate(250 210)"/>
</clipPath>
<clipPath id="clip2_207_14470">
<rect x="250" y="240" width="16" height="16" rx="8" fill="white"/>
</clipPath>
<clipPath id="clip3_207_14470">
<rect width="16" height="16" fill="white" transform="translate(250 240)"/>
</clipPath>
<clipPath id="clip4_207_14470">
<rect x="250" y="270" width="16" height="16" rx="8" fill="white"/>
</clipPath>
<clipPath id="clip5_207_14470">
<rect width="16" height="16" fill="white" transform="translate(250 270)"/>
</clipPath>
<clipPath id="clip6_207_14470">
<rect x="180" y="210" width="16" height="16" rx="8" fill="white"/>
</clipPath>
<clipPath id="clip7_207_14470">
<rect width="16" height="16" fill="white" transform="translate(180 210)"/>
</clipPath>
<clipPath id="clip8_207_14470">
<rect x="180" y="240" width="16" height="16" rx="8" fill="white"/>
</clipPath>
<clipPath id="clip9_207_14470">
<rect width="16" height="16" fill="white" transform="translate(180 240)"/>
</clipPath>
<clipPath id="clip10_207_14470">
<rect x="180" y="270" width="16" height="16" rx="8" fill="white"/>
</clipPath>
<clipPath id="clip11_207_14470">
<rect width="16" height="16" fill="white" transform="translate(180 270)"/>
</clipPath>
<clipPath id="clip12_207_14470">
<rect x="110" y="210" width="16" height="16" rx="8" fill="white"/>
</clipPath>
<clipPath id="clip13_207_14470">
<rect width="16" height="16" fill="white" transform="translate(110 210)"/>
</clipPath>
<clipPath id="clip14_207_14470">
<rect x="110" y="240" width="16" height="16" rx="8" fill="white"/>
</clipPath>
<clipPath id="clip15_207_14470">
<rect width="16" height="16" fill="white" transform="translate(110 240)"/>
</clipPath>
<clipPath id="clip16_207_14470">
<rect x="110" y="270" width="16" height="16" rx="8" fill="white"/>
</clipPath>
<clipPath id="clip17_207_14470">
<rect width="16" height="16" fill="white" transform="translate(110 270)"/>
</clipPath>
<clipPath id="clip18_207_14470">
<rect x="250" y="110" width="16" height="16" rx="8" fill="white"/>
</clipPath>
<clipPath id="clip19_207_14470">
<rect width="16" height="16" fill="white" transform="translate(250 110)"/>
</clipPath>
<clipPath id="clip20_207_14470">
<rect x="250" y="140" width="16" height="16" rx="8" fill="white"/>
</clipPath>
<clipPath id="clip21_207_14470">
<rect width="16" height="16" fill="white" transform="translate(250 140)"/>
</clipPath>
<clipPath id="clip22_207_14470">
<rect x="250" y="170" width="16" height="16" rx="8" fill="white"/>
</clipPath>
<clipPath id="clip23_207_14470">
<rect width="16" height="16" fill="white" transform="translate(250 170)"/>
</clipPath>
<clipPath id="clip24_207_14470">
<rect x="180" y="110" width="16" height="16" rx="8" fill="white"/>
</clipPath>
<clipPath id="clip25_207_14470">
<rect width="16" height="16" fill="white" transform="translate(180 110)"/>
</clipPath>
<clipPath id="clip26_207_14470">
<rect x="180" y="140" width="16" height="16" rx="8" fill="white"/>
</clipPath>
<clipPath id="clip27_207_14470">
<rect width="16" height="16" fill="white" transform="translate(180 140)"/>
</clipPath>
<clipPath id="clip28_207_14470">
<rect x="180" y="170" width="16" height="16" rx="8" fill="white"/>
</clipPath>
<clipPath id="clip29_207_14470">
<rect width="16" height="16" fill="white" transform="translate(180 170)"/>
</clipPath>
<clipPath id="clip30_207_14470">
<rect x="110" y="110" width="16" height="16" rx="8" fill="white"/>
</clipPath>
<clipPath id="clip31_207_14470">
<rect width="16" height="16" fill="white" transform="translate(110 110)"/>
</clipPath>
<clipPath id="clip32_207_14470">
<rect x="110" y="140" width="16" height="16" rx="8" fill="white"/>
</clipPath>
<clipPath id="clip33_207_14470">
<rect width="16" height="16" fill="white" transform="translate(110 140)"/>
</clipPath>
<clipPath id="clip34_207_14470">
<rect x="110" y="170" width="16" height="16" rx="8" fill="white"/>
</clipPath>
<clipPath id="clip35_207_14470">
<rect width="16" height="16" fill="white" transform="translate(110 170)"/>
</clipPath>
</defs>
</svg>
