<svg width="340" height="340" viewBox="0 0 340 340" fill="none" xmlns="http://www.w3.org/2000/svg">
<g filter="url(#filter0_d_585_3375)">
<rect x="20" y="15" width="300" height="300" rx="15" fill="white"/>
<mask id="path-2-inside-1_585_3375" fill="white">
<path d="M20 15H320V72H20V15Z"/>
</mask>
<path d="M320 72V71H20V72V73H320V72Z" fill="black" fill-opacity="0.1" mask="url(#path-2-inside-1_585_3375)"/>
<path d="M149.476 32.1523C148.896 32.1523 148.449 31.9979 148.136 31.689C147.827 31.38 147.673 30.9378 147.673 30.3623V24.313C147.673 23.7332 147.827 23.2889 148.136 22.98C148.445 22.6711 148.862 22.5166 149.387 22.5166H150.777C151.065 22.5166 151.293 22.5462 151.462 22.6055C151.636 22.6647 151.82 22.7684 152.015 22.9165L152.269 23.1133C152.429 23.236 152.577 23.3228 152.713 23.3735C152.848 23.4243 153.011 23.4497 153.202 23.4497H157.518C158.102 23.4497 158.549 23.6042 158.857 23.9131C159.166 24.2178 159.321 24.6579 159.321 25.2334V30.3623C159.321 30.9378 159.171 31.38 158.87 31.689C158.57 31.9979 158.151 32.1523 157.613 32.1523H149.476ZM149.628 30.7686H157.366C157.556 30.7686 157.7 30.722 157.797 30.6289C157.895 30.5358 157.943 30.3919 157.943 30.1973V25.4048C157.943 25.2059 157.895 25.0599 157.797 24.9668C157.7 24.8737 157.556 24.8271 157.366 24.8271H152.827C152.539 24.8271 152.309 24.7975 152.135 24.7383C151.962 24.679 151.778 24.5732 151.583 24.4209L151.329 24.2241C151.168 24.1014 151.02 24.0168 150.885 23.9702C150.754 23.9194 150.593 23.894 150.402 23.894H149.653C149.467 23.894 149.319 23.9448 149.209 24.0464C149.103 24.1479 149.05 24.2918 149.05 24.478V30.1909C149.05 30.3898 149.099 30.5358 149.196 30.6289C149.298 30.722 149.442 30.7686 149.628 30.7686ZM149.679 26.3569V25.8682C149.679 25.7201 149.713 25.6143 149.78 25.5508C149.852 25.4831 149.958 25.4492 150.098 25.4492H156.896C157.04 25.4492 157.146 25.4831 157.213 25.5508C157.281 25.6143 157.315 25.7201 157.315 25.8682V26.3569H149.679Z" fill="black" fill-opacity="0.5"/>
<path d="M167.333 32V24.4209H164.584V22.8403H171.998V24.4209H169.25V32H167.333ZM173.395 32V25.0112H175.248V32H173.395ZM174.328 23.9385C174.044 23.9385 173.799 23.839 173.591 23.6401C173.384 23.437 173.28 23.1937 173.28 22.9102C173.28 22.6224 173.384 22.3791 173.591 22.1802C173.799 21.9771 174.044 21.8755 174.328 21.8755C174.615 21.8755 174.861 21.9771 175.064 22.1802C175.267 22.3791 175.369 22.6224 175.369 22.9102C175.369 23.1937 175.267 23.437 175.064 23.6401C174.861 23.839 174.615 23.9385 174.328 23.9385ZM180.015 32.0254C179.169 32.0254 178.559 31.8773 178.187 31.5811C177.815 31.2806 177.628 30.7918 177.628 30.1147V26.4077H176.549V25.0112H177.628V23.3418H179.501V25.0112H180.942V26.4077H179.501V29.6895C179.501 30.0026 179.571 30.2332 179.71 30.3813C179.854 30.5252 180.083 30.5972 180.396 30.5972C180.514 30.5972 180.612 30.5951 180.688 30.5908C180.768 30.5824 180.853 30.5739 180.942 30.5654V31.9429C180.828 31.964 180.69 31.9831 180.529 32C180.368 32.0169 180.197 32.0254 180.015 32.0254ZM182.548 32V22.3389H184.401V32H182.548ZM189.391 32.146C188.684 32.146 188.075 32 187.562 31.708C187.055 31.4118 186.663 30.9928 186.388 30.4512C186.113 29.9095 185.976 29.2642 185.976 28.5151V28.5088C185.976 27.7682 186.111 27.125 186.382 26.5791C186.657 26.0332 187.044 25.61 187.543 25.3096C188.047 25.0091 188.637 24.8589 189.314 24.8589C189.996 24.8589 190.584 25.0049 191.079 25.2969C191.574 25.5889 191.955 25.9972 192.222 26.522C192.488 27.0467 192.622 27.6624 192.622 28.3691V28.9468H186.902V27.7852H191.733L190.863 28.8833V28.1406C190.863 27.7217 190.798 27.3726 190.667 27.0933C190.54 26.814 190.362 26.6045 190.133 26.4648C189.909 26.321 189.647 26.249 189.346 26.249C189.05 26.249 188.785 26.3231 188.553 26.4712C188.324 26.6151 188.142 26.8288 188.007 27.1123C187.876 27.3916 187.81 27.7344 187.81 28.1406V28.8896C187.81 29.2832 187.876 29.6196 188.007 29.8989C188.138 30.1782 188.324 30.3919 188.565 30.54C188.807 30.6882 189.094 30.7622 189.429 30.7622C189.7 30.7622 189.93 30.722 190.121 30.6416C190.311 30.5612 190.463 30.4681 190.578 30.3623C190.696 30.2523 190.777 30.1528 190.819 30.064L190.838 30.0259H192.564L192.552 30.0894C192.497 30.3094 192.397 30.54 192.253 30.7812C192.11 31.0182 191.911 31.2404 191.657 31.4478C191.407 31.6551 191.094 31.8244 190.717 31.9556C190.345 32.0825 189.903 32.146 189.391 32.146Z" fill="black" fill-opacity="0.85"/>
<rect x="28" y="23" width="10" height="10" rx="5" fill="#FF736A"/>
<rect x="28.25" y="23.25" width="9.5" height="9.5" rx="4.75" stroke="black" stroke-opacity="0.1" stroke-width="0.5"/>
<rect x="45" y="23" width="10" height="10" rx="5" fill="#FEBC2E"/>
<rect x="45.25" y="23.25" width="9.5" height="9.5" rx="4.75" stroke="black" stroke-opacity="0.1" stroke-width="0.5"/>
<rect x="62" y="23" width="10" height="10" rx="5" fill="#19C332"/>
<rect x="62.25" y="23.25" width="9.5" height="9.5" rx="4.75" stroke="black" stroke-opacity="0.1" stroke-width="0.5"/>
<g style="mix-blend-mode:plus-darker">
<rect x="38" y="39" width="44" height="29" rx="6" fill="black" fill-opacity="0.03"/>
<path d="M52.4336 50.1924V48.4277C52.4336 47.5856 52.6515 46.9487 53.0874 46.5171C53.5275 46.0854 54.1729 45.8696 55.0234 45.8696H56.7437V47.2661H55.106C54.6912 47.2661 54.376 47.374 54.1602 47.5898C53.9443 47.8014 53.8364 48.1209 53.8364 48.5483V50.1924H52.4336ZM57.8418 47.2661V45.8696H62.1519V47.2661H57.8418ZM66.1636 50.1924V48.5483C66.1636 48.1209 66.0514 47.8014 65.8271 47.5898C65.6071 47.374 65.2939 47.2661 64.8877 47.2661H63.25V45.8696H64.9702C65.8208 45.8696 66.464 46.0876 66.8999 46.5234C67.34 46.9551 67.5601 47.5898 67.5601 48.4277V50.1924H66.1636ZM66.1636 55.5625V51.2969H67.5601V55.5625H66.1636ZM63.25 60.9897V59.5933H64.8877C65.2939 59.5933 65.6071 59.4854 65.8271 59.2695C66.0514 59.0537 66.1636 58.7342 66.1636 58.311V56.6606H67.5601V58.4253C67.5601 59.2674 67.34 59.9043 66.8999 60.3359C66.464 60.7718 65.8208 60.9897 64.9702 60.9897H63.25ZM57.8418 60.9897V59.5933H62.1519V60.9897H57.8418ZM55.0234 60.9897C54.1729 60.9897 53.5275 60.7739 53.0874 60.3423C52.6515 59.9106 52.4336 59.2716 52.4336 58.4253V56.6606H53.8364V58.311C53.8364 58.7342 53.9443 59.0537 54.1602 59.2695C54.376 59.4854 54.6912 59.5933 55.106 59.5933H56.7437V60.9897H55.0234ZM52.4336 55.5625V51.2969H53.8364V55.5625H52.4336Z" fill="#4D4D4D"/>
</g>
<path d="M96.4336 50.1924V48.4277C96.4336 47.5856 96.6515 46.9487 97.0874 46.5171C97.5275 46.0854 98.1729 45.8696 99.0234 45.8696H100.744V47.2661H99.106C98.6912 47.2661 98.376 47.374 98.1602 47.5898C97.9443 47.8014 97.8364 48.1209 97.8364 48.5483V50.1924H96.4336ZM101.842 47.2661V45.8696H106.152V47.2661H101.842ZM110.164 50.1924V48.5483C110.164 48.1209 110.051 47.8014 109.827 47.5898C109.607 47.374 109.294 47.2661 108.888 47.2661H107.25V45.8696H108.97C109.821 45.8696 110.464 46.0876 110.9 46.5234C111.34 46.9551 111.56 47.5898 111.56 48.4277V50.1924H110.164ZM110.164 55.5625V51.2969H111.56V55.5625H110.164ZM107.25 60.9897V59.5933H108.888C109.294 59.5933 109.607 59.4854 109.827 59.2695C110.051 59.0537 110.164 58.7342 110.164 58.311V56.6606H111.56V58.4253C111.56 59.2674 111.34 59.9043 110.9 60.3359C110.464 60.7718 109.821 60.9897 108.97 60.9897H107.25ZM101.842 60.9897V59.5933H106.152V60.9897H101.842ZM99.0234 60.9897C98.1729 60.9897 97.5275 60.7739 97.0874 60.3423C96.6515 59.9106 96.4336 59.2716 96.4336 58.4253V56.6606H97.8364V58.311C97.8364 58.7342 97.9443 59.0537 98.1602 59.2695C98.376 59.4854 98.6912 59.5933 99.106 59.5933H100.744V60.9897H99.0234ZM96.4336 55.5625V51.2969H97.8364V55.5625H96.4336Z" fill="#4D4D4D"/>
<path d="M140.434 50.1924V48.4277C140.434 47.5856 140.652 46.9487 141.087 46.5171C141.528 46.0854 142.173 45.8696 143.023 45.8696H144.744V47.2661H143.106C142.691 47.2661 142.376 47.374 142.16 47.5898C141.944 47.8014 141.836 48.1209 141.836 48.5483V50.1924H140.434ZM145.842 47.2661V45.8696H150.152V47.2661H145.842ZM154.164 50.1924V48.5483C154.164 48.1209 154.051 47.8014 153.827 47.5898C153.607 47.374 153.294 47.2661 152.888 47.2661H151.25V45.8696H152.97C153.821 45.8696 154.464 46.0876 154.9 46.5234C155.34 46.9551 155.56 47.5898 155.56 48.4277V50.1924H154.164ZM154.164 55.5625V51.2969H155.56V55.5625H154.164ZM151.25 60.9897V59.5933H152.888C153.294 59.5933 153.607 59.4854 153.827 59.2695C154.051 59.0537 154.164 58.7342 154.164 58.311V56.6606H155.56V58.4253C155.56 59.2674 155.34 59.9043 154.9 60.3359C154.464 60.7718 153.821 60.9897 152.97 60.9897H151.25ZM145.842 60.9897V59.5933H150.152V60.9897H145.842ZM143.023 60.9897C142.173 60.9897 141.528 60.7739 141.087 60.3423C140.652 59.9106 140.434 59.2716 140.434 58.4253V56.6606H141.836V58.311C141.836 58.7342 141.944 59.0537 142.16 59.2695C142.376 59.4854 142.691 59.5933 143.106 59.5933H144.744V60.9897H143.023ZM140.434 55.5625V51.2969H141.836V55.5625H140.434Z" fill="#4D4D4D"/>
<path d="M184.434 50.1924V48.4277C184.434 47.5856 184.652 46.9487 185.087 46.5171C185.528 46.0854 186.173 45.8696 187.023 45.8696H188.744V47.2661H187.106C186.691 47.2661 186.376 47.374 186.16 47.5898C185.944 47.8014 185.836 48.1209 185.836 48.5483V50.1924H184.434ZM189.842 47.2661V45.8696H194.152V47.2661H189.842ZM198.164 50.1924V48.5483C198.164 48.1209 198.051 47.8014 197.827 47.5898C197.607 47.374 197.294 47.2661 196.888 47.2661H195.25V45.8696H196.97C197.821 45.8696 198.464 46.0876 198.9 46.5234C199.34 46.9551 199.56 47.5898 199.56 48.4277V50.1924H198.164ZM198.164 55.5625V51.2969H199.56V55.5625H198.164ZM195.25 60.9897V59.5933H196.888C197.294 59.5933 197.607 59.4854 197.827 59.2695C198.051 59.0537 198.164 58.7342 198.164 58.311V56.6606H199.56V58.4253C199.56 59.2674 199.34 59.9043 198.9 60.3359C198.464 60.7718 197.821 60.9897 196.97 60.9897H195.25ZM189.842 60.9897V59.5933H194.152V60.9897H189.842ZM187.023 60.9897C186.173 60.9897 185.528 60.7739 185.087 60.3423C184.652 59.9106 184.434 59.2716 184.434 58.4253V56.6606H185.836V58.311C185.836 58.7342 185.944 59.0537 186.16 59.2695C186.376 59.4854 186.691 59.5933 187.106 59.5933H188.744V60.9897H187.023ZM184.434 55.5625V51.2969H185.836V55.5625H184.434Z" fill="#4D4D4D"/>
<path d="M228.434 50.1924V48.4277C228.434 47.5856 228.652 46.9487 229.087 46.5171C229.528 46.0854 230.173 45.8696 231.023 45.8696H232.744V47.2661H231.106C230.691 47.2661 230.376 47.374 230.16 47.5898C229.944 47.8014 229.836 48.1209 229.836 48.5483V50.1924H228.434ZM233.842 47.2661V45.8696H238.152V47.2661H233.842ZM242.164 50.1924V48.5483C242.164 48.1209 242.051 47.8014 241.827 47.5898C241.607 47.374 241.294 47.2661 240.888 47.2661H239.25V45.8696H240.97C241.821 45.8696 242.464 46.0876 242.9 46.5234C243.34 46.9551 243.56 47.5898 243.56 48.4277V50.1924H242.164ZM242.164 55.5625V51.2969H243.56V55.5625H242.164ZM239.25 60.9897V59.5933H240.888C241.294 59.5933 241.607 59.4854 241.827 59.2695C242.051 59.0537 242.164 58.7342 242.164 58.311V56.6606H243.56V58.4253C243.56 59.2674 243.34 59.9043 242.9 60.3359C242.464 60.7718 241.821 60.9897 240.97 60.9897H239.25ZM233.842 60.9897V59.5933H238.152V60.9897H233.842ZM231.023 60.9897C230.173 60.9897 229.528 60.7739 229.087 60.3423C228.652 59.9106 228.434 59.2716 228.434 58.4253V56.6606H229.836V58.311C229.836 58.7342 229.944 59.0537 230.16 59.2695C230.376 59.4854 230.691 59.5933 231.106 59.5933H232.744V60.9897H231.023ZM228.434 55.5625V51.2969H229.836V55.5625H228.434Z" fill="#4D4D4D"/>
<path d="M272.434 50.1924V48.4277C272.434 47.5856 272.652 46.9487 273.087 46.5171C273.528 46.0854 274.173 45.8696 275.023 45.8696H276.744V47.2661H275.106C274.691 47.2661 274.376 47.374 274.16 47.5898C273.944 47.8014 273.836 48.1209 273.836 48.5483V50.1924H272.434ZM277.842 47.2661V45.8696H282.152V47.2661H277.842ZM286.164 50.1924V48.5483C286.164 48.1209 286.051 47.8014 285.827 47.5898C285.607 47.374 285.294 47.2661 284.888 47.2661H283.25V45.8696H284.97C285.821 45.8696 286.464 46.0876 286.9 46.5234C287.34 46.9551 287.56 47.5898 287.56 48.4277V50.1924H286.164ZM286.164 55.5625V51.2969H287.56V55.5625H286.164ZM283.25 60.9897V59.5933H284.888C285.294 59.5933 285.607 59.4854 285.827 59.2695C286.051 59.0537 286.164 58.7342 286.164 58.311V56.6606H287.56V58.4253C287.56 59.2674 287.34 59.9043 286.9 60.3359C286.464 60.7718 285.821 60.9897 284.97 60.9897H283.25ZM277.842 60.9897V59.5933H282.152V60.9897H277.842ZM275.023 60.9897C274.173 60.9897 273.528 60.7739 273.087 60.3423C272.652 59.9106 272.434 59.2716 272.434 58.4253V56.6606H273.836V58.311C273.836 58.7342 273.944 59.0537 274.16 59.2695C274.376 59.4854 274.691 59.5933 275.106 59.5933H276.744V60.9897H275.023ZM272.434 55.5625V51.2969H273.836V55.5625H272.434Z" fill="#4D4D4D"/>
</g>
<defs>
<filter id="filter0_d_585_3375" x="0" y="0" width="340" height="340" filterUnits="userSpaceOnUse" color-interpolation-filters="sRGB">
<feFlood flood-opacity="0" result="BackgroundImageFix"/>
<feColorMatrix in="SourceAlpha" type="matrix" values="0 0 0 0 0 0 0 0 0 0 0 0 0 0 0 0 0 0 127 0" result="hardAlpha"/>
<feOffset dy="5"/>
<feGaussianBlur stdDeviation="10"/>
<feComposite in2="hardAlpha" operator="out"/>
<feColorMatrix type="matrix" values="0 0 0 0 0 0 0 0 0 0 0 0 0 0 0 0 0 0 0.3 0"/>
<feBlend mode="normal" in2="BackgroundImageFix" result="effect1_dropShadow_585_3375"/>
<feBlend mode="normal" in="SourceGraphic" in2="effect1_dropShadow_585_3375" result="shape"/>
</filter>
</defs>
</svg>
