<svg width="90" height="90" viewBox="0 0 90 90" fill="none" xmlns="http://www.w3.org/2000/svg">
<rect x="0.5" y="0.5" width="89" height="89" rx="4.5" fill="#F5F5F5"/>
<rect x="0.5" y="0.5" width="89" height="89" rx="4.5" stroke="#9747FF" stroke-dasharray="10 5"/>
<rect x="23" y="59" width="10" height="10" rx="5" fill="black" fill-opacity="0.15"/>
<rect x="23.25" y="59.25" width="9.5" height="9.5" rx="4.75" stroke="black" stroke-opacity="0.1" stroke-width="0.5"/>
<rect x="40" y="59" width="10" height="10" rx="5" fill="black" fill-opacity="0.15"/>
<rect x="40.25" y="59.25" width="9.5" height="9.5" rx="4.75" stroke="black" stroke-opacity="0.1" stroke-width="0.5"/>
<rect x="57" y="59" width="10" height="10" rx="5" fill="black" fill-opacity="0.15"/>
<rect x="57.25" y="59.25" width="9.5" height="9.5" rx="4.75" stroke="black" stroke-opacity="0.1" stroke-width="0.5"/>
<rect x="23" y="23" width="10" height="10" rx="5" fill="#FF736A"/>
<rect x="23.25" y="23.25" width="9.5" height="9.5" rx="4.75" stroke="black" stroke-opacity="0.1" stroke-width="0.5"/>
<rect x="40" y="23" width="10" height="10" rx="5" fill="#FEBC2E"/>
<rect x="40.25" y="23.25" width="9.5" height="9.5" rx="4.75" stroke="black" stroke-opacity="0.1" stroke-width="0.5"/>
<rect x="57" y="23" width="10" height="10" rx="5" fill="#19C332"/>
<rect x="57.25" y="23.25" width="9.5" height="9.5" rx="4.75" stroke="black" stroke-opacity="0.1" stroke-width="0.5"/>
</svg>
