<svg width="250" height="320" viewBox="0 0 250 320" fill="none" xmlns="http://www.w3.org/2000/svg">
<path d="M40 42C40 40.8954 40.8954 40 42 40H208C209.105 40 210 40.8954 210 42V278C210 279.105 209.105 280 208 280H42C40.8954 280 40 279.105 40 278V42Z" fill="#F5F5F5"/>
<path d="M42 40V41H208V40V39H42V40ZM210 42H209V278H210H211V42H210ZM208 280V279H42V280V281H208V280ZM40 278H41V42H40H39V278H40ZM42 280V279C41.4477 279 41 278.552 41 278H40H39C39 279.657 40.3431 281 42 281V280ZM210 278H209C209 278.552 208.552 279 208 279V280V281C209.657 281 211 279.657 211 278H210ZM208 40V41C208.552 41 209 41.4477 209 42H210H211C211 40.3431 209.657 39 208 39V40ZM42 40V39C40.3431 39 39 40.3431 39 42H40H41C41 41.4477 41.4477 41 42 41V40Z" fill="black" fill-opacity="0.4"/>
<rect x="90.5" y="90.5" width="69" height="149" rx="4.5" stroke="#6155F5" stroke-dasharray="10 5"/>
<g clip-path="url(#clip0_207_14487)">
<g opacity="0.5" clip-path="url(#clip1_207_14487)">
<g opacity="0.05">
<rect width="24" height="24" transform="translate(110 190)" fill="black"/>
</g>
</g>
<path d="M122 197.015C122.131 197.015 122.254 197.043 122.368 197.098C122.482 197.148 122.595 197.227 122.705 197.333L125.485 199.999C125.574 200.087 125.648 200.185 125.707 200.291C125.766 200.396 125.796 200.511 125.796 200.633C125.796 200.883 125.707 201.088 125.529 201.249C125.356 201.41 125.161 201.49 124.945 201.49C124.835 201.49 124.725 201.471 124.615 201.433C124.509 201.395 124.41 201.332 124.317 201.243L122 198.977L119.683 201.243C119.594 201.332 119.495 201.395 119.385 201.433C119.275 201.471 119.167 201.49 119.061 201.49C118.841 201.49 118.642 201.41 118.464 201.249C118.291 201.088 118.204 200.883 118.204 200.633C118.204 200.511 118.234 200.396 118.293 200.291C118.352 200.185 118.426 200.087 118.515 199.999L121.302 197.333C121.408 197.227 121.518 197.148 121.632 197.098C121.746 197.043 121.869 197.015 122 197.015ZM122 207.819C121.869 207.819 121.746 207.791 121.632 207.736C121.518 207.686 121.408 207.607 121.302 207.501L118.515 204.829C118.426 204.74 118.352 204.643 118.293 204.537C118.234 204.431 118.204 204.319 118.204 204.201C118.204 203.947 118.291 203.739 118.464 203.579C118.642 203.418 118.841 203.337 119.061 203.337C119.167 203.337 119.275 203.356 119.385 203.395C119.495 203.433 119.594 203.496 119.683 203.585L122 205.851L124.317 203.585C124.41 203.496 124.509 203.433 124.615 203.395C124.725 203.356 124.835 203.337 124.945 203.337C125.161 203.337 125.356 203.418 125.529 203.579C125.707 203.739 125.796 203.947 125.796 204.201C125.796 204.319 125.766 204.431 125.707 204.537C125.648 204.643 125.574 204.74 125.485 204.829L122.705 207.501C122.595 207.607 122.482 207.686 122.368 207.736C122.254 207.791 122.131 207.819 122 207.819Z" fill="black" fill-opacity="0.25"/>
</g>
<g clip-path="url(#clip2_207_14487)">
<g clip-path="url(#clip3_207_14487)">
<g opacity="0.15">
<rect width="24" height="24" transform="translate(110 150)" fill="black"/>
</g>
</g>
<path d="M122 157.015C122.131 157.015 122.254 157.043 122.368 157.098C122.482 157.148 122.595 157.227 122.705 157.333L125.485 159.999C125.574 160.087 125.648 160.185 125.707 160.291C125.766 160.396 125.796 160.511 125.796 160.633C125.796 160.883 125.707 161.088 125.529 161.249C125.356 161.41 125.161 161.49 124.945 161.49C124.835 161.49 124.725 161.471 124.615 161.433C124.509 161.395 124.41 161.332 124.317 161.243L122 158.977L119.683 161.243C119.594 161.332 119.495 161.395 119.385 161.433C119.275 161.471 119.167 161.49 119.061 161.49C118.841 161.49 118.642 161.41 118.464 161.249C118.291 161.088 118.204 160.883 118.204 160.633C118.204 160.511 118.234 160.396 118.293 160.291C118.352 160.185 118.426 160.087 118.515 159.999L121.302 157.333C121.408 157.227 121.518 157.148 121.632 157.098C121.746 157.043 121.869 157.015 122 157.015ZM122 167.819C121.869 167.819 121.746 167.791 121.632 167.736C121.518 167.686 121.408 167.607 121.302 167.501L118.515 164.829C118.426 164.74 118.352 164.643 118.293 164.537C118.234 164.431 118.204 164.319 118.204 164.201C118.204 163.947 118.291 163.739 118.464 163.579C118.642 163.418 118.841 163.337 119.061 163.337C119.167 163.337 119.275 163.356 119.385 163.395C119.495 163.433 119.594 163.496 119.683 163.585L122 165.851L124.317 163.585C124.41 163.496 124.509 163.433 124.615 163.395C124.725 163.356 124.835 163.337 124.945 163.337C125.161 163.337 125.356 163.418 125.529 163.579C125.707 163.739 125.796 163.947 125.796 164.201C125.796 164.319 125.766 164.431 125.707 164.537C125.648 164.643 125.574 164.74 125.485 164.829L122.705 167.501C122.595 167.607 122.482 167.686 122.368 167.736C122.254 167.791 122.131 167.819 122 167.819Z" fill="black" fill-opacity="0.85"/>
</g>
<g clip-path="url(#clip4_207_14487)">
<g clip-path="url(#clip5_207_14487)">
<g opacity="0.05">
<rect width="24" height="24" transform="translate(110 110)" fill="black"/>
</g>
</g>
<path d="M122 117.015C122.131 117.015 122.254 117.043 122.368 117.098C122.482 117.148 122.595 117.227 122.705 117.333L125.485 119.999C125.574 120.087 125.648 120.185 125.707 120.291C125.766 120.396 125.796 120.511 125.796 120.633C125.796 120.883 125.707 121.088 125.529 121.249C125.356 121.41 125.161 121.49 124.945 121.49C124.835 121.49 124.725 121.471 124.615 121.433C124.509 121.395 124.41 121.332 124.317 121.243L122 118.977L119.683 121.243C119.594 121.332 119.495 121.395 119.385 121.433C119.275 121.471 119.167 121.49 119.061 121.49C118.841 121.49 118.642 121.41 118.464 121.249C118.291 121.088 118.204 120.883 118.204 120.633C118.204 120.511 118.234 120.396 118.293 120.291C118.352 120.185 118.426 120.087 118.515 119.999L121.302 117.333C121.408 117.227 121.518 117.148 121.632 117.098C121.746 117.043 121.869 117.015 122 117.015ZM122 127.819C121.869 127.819 121.746 127.791 121.632 127.736C121.518 127.686 121.408 127.607 121.302 127.501L118.515 124.829C118.426 124.74 118.352 124.643 118.293 124.537C118.234 124.431 118.204 124.319 118.204 124.201C118.204 123.947 118.291 123.739 118.464 123.579C118.642 123.418 118.841 123.337 119.061 123.337C119.167 123.337 119.275 123.356 119.385 123.395C119.495 123.433 119.594 123.496 119.683 123.585L122 125.851L124.317 123.585C124.41 123.496 124.509 123.433 124.615 123.395C124.725 123.356 124.835 123.337 124.945 123.337C125.161 123.337 125.356 123.418 125.529 123.579C125.707 123.739 125.796 123.947 125.796 124.201C125.796 124.319 125.766 124.431 125.707 124.537C125.648 124.643 125.574 124.74 125.485 124.829L122.705 127.501C122.595 127.607 122.482 127.686 122.368 127.736C122.254 127.791 122.131 127.819 122 127.819Z" fill="black" fill-opacity="0.85"/>
</g>
<rect x="40" y="4" width="86.0625" height="30" rx="3" fill="#F5F5F5"/>
<rect x="40.5" y="4.5" width="85.0625" height="29" rx="2.5" stroke="black" stroke-opacity="0.2"/>
<path d="M47.2969 22H46.2813L49.2188 14H50.2188L53.1563 22H52.1406L49.75 15.2656H49.6875L47.2969 22ZM47.6719 18.875H51.7656V19.7344H47.6719V18.875ZM54.2773 22V16H55.168V16.9062H55.2305C55.3398 16.6094 55.5378 16.3685 55.8242 16.1836C56.1107 15.9987 56.4336 15.9062 56.793 15.9062C56.8607 15.9062 56.9453 15.9076 57.0469 15.9102C57.1484 15.9128 57.2253 15.9167 57.2773 15.9219V16.8594C57.2461 16.8516 57.1745 16.8398 57.0625 16.8242C56.9531 16.806 56.8372 16.7969 56.7148 16.7969C56.4232 16.7969 56.1628 16.8581 55.9336 16.9805C55.707 17.1003 55.5273 17.2669 55.3945 17.4805C55.2643 17.6914 55.1992 17.9323 55.1992 18.2031V22H54.2773ZM58.3701 22V16H59.2607V16.9062H59.3232C59.4326 16.6094 59.6305 16.3685 59.917 16.1836C60.2035 15.9987 60.5264 15.9062 60.8857 15.9062C60.9535 15.9062 61.0381 15.9076 61.1396 15.9102C61.2412 15.9128 61.318 15.9167 61.3701 15.9219V16.8594C61.3389 16.8516 61.2673 16.8398 61.1553 16.8242C61.0459 16.806 60.93 16.7969 60.8076 16.7969C60.516 16.7969 60.2555 16.8581 60.0264 16.9805C59.7998 17.1003 59.6201 17.2669 59.4873 17.4805C59.3571 17.6914 59.292 17.9323 59.292 18.2031V22H58.3701ZM64.7178 22.125C64.1761 22.125 63.7008 21.9961 63.292 21.7383C62.8857 21.4805 62.568 21.1198 62.3389 20.6562C62.1123 20.1927 61.999 19.651 61.999 19.0312C61.999 18.4062 62.1123 17.8607 62.3389 17.3945C62.568 16.9284 62.8857 16.5664 63.292 16.3086C63.7008 16.0508 64.1761 15.9219 64.7178 15.9219C65.2594 15.9219 65.7334 16.0508 66.1396 16.3086C66.5485 16.5664 66.8662 16.9284 67.0928 17.3945C67.3219 17.8607 67.4365 18.4062 67.4365 19.0312C67.4365 19.651 67.3219 20.1927 67.0928 20.6562C66.8662 21.1198 66.5485 21.4805 66.1396 21.7383C65.7334 21.9961 65.2594 22.125 64.7178 22.125ZM64.7178 21.2969C65.1292 21.2969 65.4678 21.1914 65.7334 20.9805C65.999 20.7695 66.1956 20.4922 66.3232 20.1484C66.4508 19.8047 66.5146 19.4323 66.5146 19.0312C66.5146 18.6302 66.4508 18.2565 66.3232 17.9102C66.1956 17.5638 65.999 17.2839 65.7334 17.0703C65.4678 16.8568 65.1292 16.75 64.7178 16.75C64.3063 16.75 63.9678 16.8568 63.7021 17.0703C63.4365 17.2839 63.2399 17.5638 63.1123 17.9102C62.9847 18.2565 62.9209 18.6302 62.9209 19.0312C62.9209 19.4323 62.9847 19.8047 63.1123 20.1484C63.2399 20.4922 63.4365 20.7695 63.7021 20.9805C63.9678 21.1914 64.3063 21.2969 64.7178 21.2969ZM69.999 22L68.1709 16H69.1396L70.4365 20.5938H70.499L71.7803 16H72.7646L74.0303 20.5781H74.0928L75.3896 16H76.3584L74.5303 22H73.624L72.3115 17.3906H72.2178L70.9053 22H69.999ZM80.7959 22V14H83.5928C84.1501 14 84.6097 14.0964 84.9717 14.2891C85.3337 14.4792 85.6032 14.7357 85.7803 15.0586C85.9574 15.3789 86.0459 15.7344 86.0459 16.125C86.0459 16.4687 85.9847 16.7526 85.8623 16.9766C85.7425 17.2005 85.5837 17.3776 85.3857 17.5078C85.1904 17.638 84.9782 17.7344 84.749 17.7969V17.875C84.9938 17.8906 85.2399 17.9766 85.4873 18.1328C85.7347 18.2891 85.9417 18.513 86.1084 18.8047C86.2751 19.0964 86.3584 19.4531 86.3584 19.875C86.3584 20.276 86.2673 20.6367 86.085 20.957C85.9027 21.2773 85.6149 21.5312 85.2217 21.7187C84.8285 21.9062 84.3167 22 83.6865 22H80.7959ZM81.7646 21.1406H83.6865C84.3193 21.1406 84.7686 21.0182 85.0342 20.7734C85.3024 20.526 85.4365 20.2266 85.4365 19.875C85.4365 19.6042 85.3675 19.3542 85.2295 19.125C85.0915 18.8932 84.8949 18.7083 84.6396 18.5703C84.3844 18.4297 84.0824 18.3594 83.7334 18.3594H81.7646V21.1406ZM81.7646 17.5156H83.5615C83.8532 17.5156 84.1162 17.4583 84.3506 17.3437C84.5876 17.2292 84.7751 17.0677 84.9131 16.8594C85.0537 16.651 85.124 16.4062 85.124 16.125C85.124 15.7734 85.0016 15.4753 84.7568 15.2305C84.512 14.9831 84.124 14.8594 83.5928 14.8594H81.7646V17.5156ZM91.6064 19.5469V16H92.5283V22H91.6064V20.9844H91.5439C91.4033 21.2891 91.1846 21.5482 90.8877 21.7617C90.5908 21.9727 90.2158 22.0781 89.7627 22.0781C89.3877 22.0781 89.0544 21.9961 88.7627 21.832C88.471 21.6654 88.2419 21.4154 88.0752 21.082C87.9085 20.7461 87.8252 20.3229 87.8252 19.8125V16H88.7471V19.75C88.7471 20.1875 88.8695 20.5365 89.1143 20.7969C89.3617 21.0573 89.6768 21.1875 90.0596 21.1875C90.2887 21.1875 90.5218 21.1289 90.7588 21.0117C90.9984 20.8945 91.1989 20.7148 91.3604 20.4727C91.5244 20.2305 91.6064 19.9219 91.6064 19.5469ZM96.8262 16V16.7812H93.7168V16H96.8262ZM94.623 14.5625H95.5449V20.2812C95.5449 20.5417 95.5827 20.737 95.6582 20.8672C95.7363 20.9948 95.8353 21.0807 95.9551 21.125C96.0775 21.1667 96.2064 21.1875 96.3418 21.1875C96.4434 21.1875 96.5267 21.1823 96.5918 21.1719C96.6569 21.1589 96.709 21.1484 96.748 21.1406L96.9355 21.9687C96.873 21.9922 96.7858 22.0156 96.6738 22.0391C96.5618 22.0651 96.4199 22.0781 96.248 22.0781C95.9876 22.0781 95.7324 22.0221 95.4824 21.9102C95.235 21.7982 95.0293 21.6276 94.8652 21.3984C94.7038 21.1693 94.623 20.8802 94.623 20.5312V14.5625ZM100.822 16V16.7812H97.7129V16H100.822ZM98.6191 14.5625H99.541V20.2812C99.541 20.5417 99.5788 20.737 99.6543 20.8672C99.7324 20.9948 99.8314 21.0807 99.9512 21.125C100.074 21.1667 100.202 21.1875 100.338 21.1875C100.439 21.1875 100.523 21.1823 100.588 21.1719C100.653 21.1589 100.705 21.1484 100.744 21.1406L100.932 21.9687C100.869 21.9922 100.782 22.0156 100.67 22.0391C100.558 22.0651 100.416 22.0781 100.244 22.0781C99.9837 22.0781 99.7285 22.0221 99.4785 21.9102C99.2311 21.7982 99.0254 21.6276 98.8613 21.3984C98.6999 21.1693 98.6191 20.8802 98.6191 20.5312V14.5625ZM104.582 22.125C104.04 22.125 103.565 21.9961 103.156 21.7383C102.75 21.4805 102.432 21.1198 102.203 20.6562C101.977 20.1927 101.863 19.651 101.863 19.0312C101.863 18.4062 101.977 17.8607 102.203 17.3945C102.432 16.9284 102.75 16.5664 103.156 16.3086C103.565 16.0508 104.04 15.9219 104.582 15.9219C105.124 15.9219 105.598 16.0508 106.004 16.3086C106.413 16.5664 106.73 16.9284 106.957 17.3945C107.186 17.8607 107.301 18.4062 107.301 19.0312C107.301 19.651 107.186 20.1927 106.957 20.6562C106.73 21.1198 106.413 21.4805 106.004 21.7383C105.598 21.9961 105.124 22.125 104.582 22.125ZM104.582 21.2969C104.993 21.2969 105.332 21.1914 105.598 20.9805C105.863 20.7695 106.06 20.4922 106.188 20.1484C106.315 19.8047 106.379 19.4323 106.379 19.0312C106.379 18.6302 106.315 18.2565 106.188 17.9102C106.06 17.5638 105.863 17.2839 105.598 17.0703C105.332 16.8568 104.993 16.75 104.582 16.75C104.171 16.75 103.832 16.8568 103.566 17.0703C103.301 17.2839 103.104 17.5638 102.977 17.9102C102.849 18.2565 102.785 18.6302 102.785 19.0312C102.785 19.4323 102.849 19.8047 102.977 20.1484C103.104 20.4922 103.301 20.7695 103.566 20.9805C103.832 21.1914 104.171 21.2969 104.582 21.2969ZM109.63 18.3906V22H108.708V16H109.599V16.9375H109.677C109.817 16.6328 110.031 16.388 110.317 16.2031C110.604 16.0156 110.974 15.9219 111.427 15.9219C111.833 15.9219 112.188 16.0052 112.493 16.1719C112.798 16.3359 113.035 16.5859 113.204 16.9219C113.373 17.2552 113.458 17.6771 113.458 18.1875V22H112.536V18.25C112.536 17.7786 112.414 17.4115 112.169 17.1484C111.924 16.8828 111.588 16.75 111.161 16.75C110.867 16.75 110.604 16.8138 110.372 16.9414C110.143 17.069 109.962 17.2552 109.829 17.5C109.696 17.7448 109.63 18.0417 109.63 18.3906ZM119.393 17.3437L118.564 17.5781C118.512 17.4401 118.436 17.306 118.334 17.1758C118.235 17.043 118.1 16.9336 117.928 16.8477C117.756 16.7617 117.536 16.7187 117.268 16.7187C116.9 16.7187 116.594 16.8034 116.35 16.9727C116.107 17.1393 115.986 17.3516 115.986 17.6094C115.986 17.8385 116.07 18.0195 116.236 18.1523C116.403 18.2852 116.663 18.3958 117.018 18.4844L117.908 18.7031C118.445 18.8333 118.844 19.0326 119.107 19.3008C119.37 19.5664 119.502 19.9089 119.502 20.3281C119.502 20.6719 119.403 20.9792 119.205 21.25C119.01 21.5208 118.736 21.7344 118.385 21.8906C118.033 22.0469 117.624 22.125 117.158 22.125C116.546 22.125 116.04 21.9922 115.639 21.7266C115.238 21.4609 114.984 21.0729 114.877 20.5625L115.752 20.3437C115.835 20.6667 115.993 20.9089 116.225 21.0703C116.459 21.2318 116.765 21.3125 117.143 21.3125C117.572 21.3125 117.913 21.2214 118.166 21.0391C118.421 20.8542 118.549 20.6328 118.549 20.375C118.549 20.1667 118.476 19.9922 118.33 19.8516C118.184 19.7083 117.96 19.6016 117.658 19.5312L116.658 19.2969C116.109 19.1667 115.705 18.9648 115.447 18.6914C115.192 18.4154 115.064 18.0703 115.064 17.6562C115.064 17.3177 115.16 17.0182 115.35 16.7578C115.542 16.4974 115.804 16.293 116.135 16.1445C116.468 15.9961 116.846 15.9219 117.268 15.9219C117.861 15.9219 118.327 16.0521 118.666 16.3125C119.007 16.5729 119.249 16.9167 119.393 17.3437Z" fill="black"/>
<defs>
<clipPath id="clip0_207_14487">
<rect x="110" y="190" width="24" height="24" rx="12" fill="white"/>
</clipPath>
<clipPath id="clip1_207_14487">
<rect width="24" height="24" fill="white" transform="translate(110 190)"/>
</clipPath>
<clipPath id="clip2_207_14487">
<rect x="110" y="150" width="24" height="24" rx="12" fill="white"/>
</clipPath>
<clipPath id="clip3_207_14487">
<rect width="24" height="24" fill="white" transform="translate(110 150)"/>
</clipPath>
<clipPath id="clip4_207_14487">
<rect x="110" y="110" width="24" height="24" rx="12" fill="white"/>
</clipPath>
<clipPath id="clip5_207_14487">
<rect width="24" height="24" fill="white" transform="translate(110 110)"/>
</clipPath>
</defs>
</svg>
