<svg width="360" height="310" viewBox="0 0 360 310" fill="none" xmlns="http://www.w3.org/2000/svg">
<path d="M40 42C40 40.8954 40.8954 40 42 40H318C319.105 40 320 40.8954 320 42V268C320 269.105 319.105 270 318 270H42C40.8954 270 40 269.105 40 268V42Z" fill="#ECEBEB"/>
<path d="M42 40V41H318V40V39H42V40ZM320 42H319V268H320H321V42H320ZM318 270V269H42V270V271H318V270ZM40 268H41V42H40H39V268H40ZM42 270V269C41.4477 269 41 268.552 41 268H40H39C39 269.657 40.3431 271 42 271V270ZM320 268H319C319 268.552 318.552 269 318 269V270V271C319.657 271 321 269.657 321 268H320ZM318 40V41C318.552 41 319 41.4477 319 42H320H321C321 40.3431 319.657 39 318 39V40ZM42 40V39C40.3431 39 39 40.3431 39 42H40H41C41 41.4477 41.4477 41 42 41V40Z" fill="black" fill-opacity="0.1"/>
<g clip-path="url(#clip0_207_14487)">
<g opacity="0.5" clip-path="url(#clip1_207_14487)">
<g opacity="0.05">
<rect width="24" height="24" transform="translate(160 190)" fill="black"/>
</g>
</g>
<path d="M172 197.015C172.131 197.015 172.254 197.043 172.368 197.098C172.482 197.148 172.595 197.227 172.705 197.333L175.485 199.999C175.574 200.087 175.648 200.185 175.707 200.291C175.766 200.396 175.796 200.511 175.796 200.633C175.796 200.883 175.707 201.088 175.529 201.249C175.356 201.41 175.161 201.49 174.945 201.49C174.835 201.49 174.725 201.471 174.615 201.433C174.509 201.395 174.41 201.332 174.317 201.243L172 198.977L169.683 201.243C169.594 201.332 169.495 201.395 169.385 201.433C169.275 201.471 169.167 201.49 169.061 201.49C168.841 201.49 168.642 201.41 168.464 201.249C168.291 201.088 168.204 200.883 168.204 200.633C168.204 200.511 168.234 200.396 168.293 200.291C168.352 200.185 168.426 200.087 168.515 199.999L171.302 197.333C171.408 197.227 171.518 197.148 171.632 197.098C171.746 197.043 171.869 197.015 172 197.015ZM172 207.819C171.869 207.819 171.746 207.791 171.632 207.736C171.518 207.686 171.408 207.607 171.302 207.501L168.515 204.829C168.426 204.74 168.352 204.643 168.293 204.537C168.234 204.431 168.204 204.319 168.204 204.201C168.204 203.947 168.291 203.739 168.464 203.579C168.642 203.418 168.841 203.337 169.061 203.337C169.167 203.337 169.275 203.356 169.385 203.395C169.495 203.433 169.594 203.496 169.683 203.585L172 205.851L174.317 203.585C174.41 203.496 174.509 203.433 174.615 203.395C174.725 203.356 174.835 203.337 174.945 203.337C175.161 203.337 175.356 203.418 175.529 203.579C175.707 203.739 175.796 203.947 175.796 204.201C175.796 204.319 175.766 204.431 175.707 204.537C175.648 204.643 175.574 204.74 175.485 204.829L172.705 207.501C172.595 207.607 172.482 207.686 172.368 207.736C172.254 207.791 172.131 207.819 172 207.819Z" fill="black" fill-opacity="0.25"/>
</g>
<g clip-path="url(#clip2_207_14487)">
<g opacity="0.5" clip-path="url(#clip3_207_14487)">
<g opacity="0.05">
<rect width="28" height="28" transform="translate(200 190)" fill="black"/>
</g>
</g>
<path d="M214 199.015C214.131 199.015 214.254 199.043 214.368 199.098C214.482 199.148 214.595 199.227 214.705 199.333L217.485 201.999C217.574 202.087 217.648 202.185 217.707 202.291C217.766 202.396 217.796 202.511 217.796 202.633C217.796 202.883 217.707 203.088 217.529 203.249C217.356 203.41 217.161 203.49 216.945 203.49C216.835 203.49 216.725 203.471 216.615 203.433C216.509 203.395 216.41 203.332 216.317 203.243L214 200.977L211.683 203.243C211.594 203.332 211.495 203.395 211.385 203.433C211.275 203.471 211.167 203.49 211.061 203.49C210.841 203.49 210.642 203.41 210.464 203.249C210.291 203.088 210.204 202.883 210.204 202.633C210.204 202.511 210.234 202.396 210.293 202.291C210.352 202.185 210.426 202.087 210.515 201.999L213.302 199.333C213.408 199.227 213.518 199.148 213.632 199.098C213.746 199.043 213.869 199.015 214 199.015ZM214 209.819C213.869 209.819 213.746 209.791 213.632 209.736C213.518 209.686 213.408 209.607 213.302 209.501L210.515 206.829C210.426 206.74 210.352 206.643 210.293 206.537C210.234 206.431 210.204 206.319 210.204 206.201C210.204 205.947 210.291 205.739 210.464 205.579C210.642 205.418 210.841 205.337 211.061 205.337C211.167 205.337 211.275 205.356 211.385 205.395C211.495 205.433 211.594 205.496 211.683 205.585L214 207.851L216.317 205.585C216.41 205.496 216.509 205.433 216.615 205.395C216.725 205.356 216.835 205.337 216.945 205.337C217.161 205.337 217.356 205.418 217.529 205.579C217.707 205.739 217.796 205.947 217.796 206.201C217.796 206.319 217.766 206.431 217.707 206.537C217.648 206.643 217.574 206.74 217.485 206.829L214.705 209.501C214.595 209.607 214.482 209.686 214.368 209.736C214.254 209.791 214.131 209.819 214 209.819Z" fill="black" fill-opacity="0.25"/>
</g>
<g clip-path="url(#clip4_207_14487)">
<g opacity="0.5" clip-path="url(#clip5_207_14487)">
<g opacity="0.05">
<rect width="16" height="16" transform="translate(90 190)" fill="black"/>
</g>
</g>
<path d="M98 193.551C98.111 193.551 98.2148 193.575 98.3115 193.621C98.4082 193.664 98.5031 193.73 98.5962 193.82L100.949 196.076C101.024 196.151 101.087 196.233 101.137 196.323C101.187 196.412 101.212 196.509 101.212 196.613C101.212 196.824 101.137 196.998 100.986 197.134C100.84 197.27 100.675 197.338 100.492 197.338C100.399 197.338 100.306 197.322 100.213 197.29C100.123 197.257 100.039 197.204 99.9604 197.128L98 195.211L96.0396 197.128C95.9644 197.204 95.8802 197.257 95.7871 197.29C95.694 197.322 95.6027 197.338 95.5132 197.338C95.327 197.338 95.1587 197.27 95.0083 197.134C94.8615 196.998 94.7881 196.824 94.7881 196.613C94.7881 196.509 94.8132 196.412 94.8633 196.323C94.9134 196.233 94.9761 196.151 95.0513 196.076L97.4092 193.82C97.4987 193.73 97.5918 193.664 97.6885 193.621C97.7852 193.575 97.889 193.551 98 193.551ZM98 202.693C97.889 202.693 97.7852 202.67 97.6885 202.623C97.5918 202.58 97.4987 202.514 97.4092 202.424L95.0513 200.163C94.9761 200.088 94.9134 200.006 94.8633 199.916C94.8132 199.826 94.7881 199.732 94.7881 199.631C94.7881 199.417 94.8615 199.241 95.0083 199.105C95.1587 198.969 95.327 198.901 95.5132 198.901C95.6027 198.901 95.694 198.917 95.7871 198.949C95.8802 198.981 95.9644 199.035 96.0396 199.11L98 201.028L99.9604 199.11C100.039 199.035 100.123 198.981 100.213 198.949C100.306 198.917 100.399 198.901 100.492 198.901C100.675 198.901 100.84 198.969 100.986 199.105C101.137 199.241 101.212 199.417 101.212 199.631C101.212 199.732 101.187 199.826 101.137 199.916C101.087 200.006 101.024 200.088 100.949 200.163L98.5962 202.424C98.5031 202.514 98.4082 202.58 98.3115 202.623C98.2148 202.67 98.111 202.693 98 202.693Z" fill="black" fill-opacity="0.25"/>
</g>
<g clip-path="url(#clip6_207_14487)">
<g clip-path="url(#clip7_207_14487)">
<g opacity="0.15">
<rect width="24" height="24" transform="translate(160 140)" fill="black"/>
</g>
</g>
<path d="M172 147.015C172.131 147.015 172.254 147.043 172.368 147.098C172.482 147.148 172.595 147.227 172.705 147.333L175.485 149.999C175.574 150.087 175.648 150.185 175.707 150.291C175.766 150.396 175.796 150.511 175.796 150.633C175.796 150.883 175.707 151.088 175.529 151.249C175.356 151.41 175.161 151.49 174.945 151.49C174.835 151.49 174.725 151.471 174.615 151.433C174.509 151.395 174.41 151.332 174.317 151.243L172 148.977L169.683 151.243C169.594 151.332 169.495 151.395 169.385 151.433C169.275 151.471 169.167 151.49 169.061 151.49C168.841 151.49 168.642 151.41 168.464 151.249C168.291 151.088 168.204 150.883 168.204 150.633C168.204 150.511 168.234 150.396 168.293 150.291C168.352 150.185 168.426 150.087 168.515 149.999L171.302 147.333C171.408 147.227 171.518 147.148 171.632 147.098C171.746 147.043 171.869 147.015 172 147.015ZM172 157.819C171.869 157.819 171.746 157.791 171.632 157.736C171.518 157.686 171.408 157.607 171.302 157.501L168.515 154.829C168.426 154.74 168.352 154.643 168.293 154.537C168.234 154.431 168.204 154.319 168.204 154.201C168.204 153.947 168.291 153.739 168.464 153.579C168.642 153.418 168.841 153.337 169.061 153.337C169.167 153.337 169.275 153.356 169.385 153.395C169.495 153.433 169.594 153.496 169.683 153.585L172 155.851L174.317 153.585C174.41 153.496 174.509 153.433 174.615 153.395C174.725 153.356 174.835 153.337 174.945 153.337C175.161 153.337 175.356 153.418 175.529 153.579C175.707 153.739 175.796 153.947 175.796 154.201C175.796 154.319 175.766 154.431 175.707 154.537C175.648 154.643 175.574 154.74 175.485 154.829L172.705 157.501C172.595 157.607 172.482 157.686 172.368 157.736C172.254 157.791 172.131 157.819 172 157.819Z" fill="black" fill-opacity="0.85"/>
</g>
<g clip-path="url(#clip8_207_14487)">
<g opacity="0.5" clip-path="url(#clip9_207_14487)">
<g opacity="0.05">
<rect width="24" height="24" transform="translate(120 190)" fill="black"/>
</g>
</g>
<path d="M130 195.015C130.131 195.015 130.254 195.043 130.368 195.098C130.482 195.148 130.595 195.227 130.705 195.333L133.485 197.999C133.574 198.087 133.648 198.185 133.707 198.291C133.766 198.396 133.796 198.511 133.796 198.633C133.796 198.883 133.707 199.088 133.529 199.249C133.356 199.41 133.161 199.49 132.945 199.49C132.835 199.49 132.725 199.471 132.615 199.433C132.509 199.395 132.41 199.332 132.317 199.243L130 196.977L127.683 199.243C127.594 199.332 127.495 199.395 127.385 199.433C127.275 199.471 127.167 199.49 127.061 199.49C126.841 199.49 126.642 199.41 126.464 199.249C126.291 199.088 126.204 198.883 126.204 198.633C126.204 198.511 126.234 198.396 126.293 198.291C126.352 198.185 126.426 198.087 126.515 197.999L129.302 195.333C129.408 195.227 129.518 195.148 129.632 195.098C129.746 195.043 129.869 195.015 130 195.015ZM130 205.819C129.869 205.819 129.746 205.791 129.632 205.736C129.518 205.686 129.408 205.607 129.302 205.501L126.515 202.829C126.426 202.74 126.352 202.643 126.293 202.537C126.234 202.431 126.204 202.319 126.204 202.201C126.204 201.947 126.291 201.739 126.464 201.579C126.642 201.418 126.841 201.337 127.061 201.337C127.167 201.337 127.275 201.356 127.385 201.395C127.495 201.433 127.594 201.496 127.683 201.585L130 203.851L132.317 201.585C132.41 201.496 132.509 201.433 132.615 201.395C132.725 201.356 132.835 201.337 132.945 201.337C133.161 201.337 133.356 201.418 133.529 201.579C133.707 201.739 133.796 201.947 133.796 202.201C133.796 202.319 133.766 202.431 133.707 202.537C133.648 202.643 133.574 202.74 133.485 202.829L130.705 205.501C130.595 205.607 130.482 205.686 130.368 205.736C130.254 205.791 130.131 205.819 130 205.819Z" fill="black" fill-opacity="0.25"/>
</g>
<g clip-path="url(#clip10_207_14487)">
<g clip-path="url(#clip11_207_14487)">
<g opacity="0.15">
<rect width="28" height="28" transform="translate(200 140)" fill="black"/>
</g>
</g>
<path d="M214 149.015C214.131 149.015 214.254 149.043 214.368 149.098C214.482 149.148 214.595 149.227 214.705 149.333L217.485 151.999C217.574 152.087 217.648 152.185 217.707 152.291C217.766 152.396 217.796 152.511 217.796 152.633C217.796 152.883 217.707 153.088 217.529 153.249C217.356 153.41 217.161 153.49 216.945 153.49C216.835 153.49 216.725 153.471 216.615 153.433C216.509 153.395 216.41 153.332 216.317 153.243L214 150.977L211.683 153.243C211.594 153.332 211.495 153.395 211.385 153.433C211.275 153.471 211.167 153.49 211.061 153.49C210.841 153.49 210.642 153.41 210.464 153.249C210.291 153.088 210.204 152.883 210.204 152.633C210.204 152.511 210.234 152.396 210.293 152.291C210.352 152.185 210.426 152.087 210.515 151.999L213.302 149.333C213.408 149.227 213.518 149.148 213.632 149.098C213.746 149.043 213.869 149.015 214 149.015ZM214 159.819C213.869 159.819 213.746 159.791 213.632 159.736C213.518 159.686 213.408 159.607 213.302 159.501L210.515 156.829C210.426 156.74 210.352 156.643 210.293 156.537C210.234 156.431 210.204 156.319 210.204 156.201C210.204 155.947 210.291 155.739 210.464 155.579C210.642 155.418 210.841 155.337 211.061 155.337C211.167 155.337 211.275 155.356 211.385 155.395C211.495 155.433 211.594 155.496 211.683 155.585L214 157.851L216.317 155.585C216.41 155.496 216.509 155.433 216.615 155.395C216.725 155.356 216.835 155.337 216.945 155.337C217.161 155.337 217.356 155.418 217.529 155.579C217.707 155.739 217.796 155.947 217.796 156.201C217.796 156.319 217.766 156.431 217.707 156.537C217.648 156.643 217.574 156.74 217.485 156.829L214.705 159.501C214.595 159.607 214.482 159.686 214.368 159.736C214.254 159.791 214.131 159.819 214 159.819Z" fill="black" fill-opacity="0.85"/>
</g>
<g clip-path="url(#clip12_207_14487)">
<g opacity="0.5" clip-path="url(#clip13_207_14487)">
<g opacity="0.05">
<rect width="36" height="36" transform="translate(240 190)" fill="black"/>
</g>
</g>
<path d="M258 203.015C258.131 203.015 258.254 203.043 258.368 203.098C258.482 203.148 258.595 203.227 258.705 203.333L261.485 205.999C261.574 206.087 261.648 206.185 261.707 206.291C261.766 206.396 261.796 206.511 261.796 206.633C261.796 206.883 261.707 207.088 261.529 207.249C261.356 207.41 261.161 207.49 260.945 207.49C260.835 207.49 260.725 207.471 260.615 207.433C260.509 207.395 260.41 207.332 260.317 207.243L258 204.977L255.683 207.243C255.594 207.332 255.495 207.395 255.385 207.433C255.275 207.471 255.167 207.49 255.061 207.49C254.841 207.49 254.642 207.41 254.464 207.249C254.291 207.088 254.204 206.883 254.204 206.633C254.204 206.511 254.234 206.396 254.293 206.291C254.352 206.185 254.426 206.087 254.515 205.999L257.302 203.333C257.408 203.227 257.518 203.148 257.632 203.098C257.746 203.043 257.869 203.015 258 203.015ZM258 213.819C257.869 213.819 257.746 213.791 257.632 213.736C257.518 213.686 257.408 213.607 257.302 213.501L254.515 210.829C254.426 210.74 254.352 210.643 254.293 210.537C254.234 210.431 254.204 210.319 254.204 210.201C254.204 209.947 254.291 209.739 254.464 209.579C254.642 209.418 254.841 209.337 255.061 209.337C255.167 209.337 255.275 209.356 255.385 209.395C255.495 209.433 255.594 209.496 255.683 209.585L258 211.851L260.317 209.585C260.41 209.496 260.509 209.433 260.615 209.395C260.725 209.356 260.835 209.337 260.945 209.337C261.161 209.337 261.356 209.418 261.529 209.579C261.707 209.739 261.796 209.947 261.796 210.201C261.796 210.319 261.766 210.431 261.707 210.537C261.648 210.643 261.574 210.74 261.485 210.829L258.705 213.501C258.595 213.607 258.482 213.686 258.368 213.736C258.254 213.791 258.131 213.819 258 213.819Z" fill="black" fill-opacity="0.25"/>
</g>
<g clip-path="url(#clip14_207_14487)">
<g clip-path="url(#clip15_207_14487)">
<g opacity="0.05">
<rect width="24" height="24" transform="translate(160 90)" fill="black"/>
</g>
</g>
<path d="M172 97.0151C172.131 97.0151 172.254 97.0426 172.368 97.0977C172.482 97.1484 172.595 97.2267 172.705 97.3325L175.485 99.9985C175.574 100.087 175.648 100.185 175.707 100.291C175.766 100.396 175.796 100.511 175.796 100.633C175.796 100.883 175.707 101.088 175.529 101.249C175.356 101.41 175.161 101.49 174.945 101.49C174.835 101.49 174.725 101.471 174.615 101.433C174.509 101.395 174.41 101.332 174.317 101.243L172 98.9766L169.683 101.243C169.594 101.332 169.495 101.395 169.385 101.433C169.275 101.471 169.167 101.49 169.061 101.49C168.841 101.49 168.642 101.41 168.464 101.249C168.291 101.088 168.204 100.883 168.204 100.633C168.204 100.511 168.234 100.396 168.293 100.291C168.352 100.185 168.426 100.087 168.515 99.9985L171.302 97.3325C171.408 97.2267 171.518 97.1484 171.632 97.0977C171.746 97.0426 171.869 97.0151 172 97.0151ZM172 107.819C171.869 107.819 171.746 107.791 171.632 107.736C171.518 107.686 171.408 107.607 171.302 107.501L168.515 104.829C168.426 104.74 168.352 104.643 168.293 104.537C168.234 104.431 168.204 104.319 168.204 104.201C168.204 103.947 168.291 103.739 168.464 103.579C168.642 103.418 168.841 103.337 169.061 103.337C169.167 103.337 169.275 103.356 169.385 103.395C169.495 103.433 169.594 103.496 169.683 103.585L172 105.851L174.317 103.585C174.41 103.496 174.509 103.433 174.615 103.395C174.725 103.356 174.835 103.337 174.945 103.337C175.161 103.337 175.356 103.418 175.529 103.579C175.707 103.739 175.796 103.947 175.796 104.201C175.796 104.319 175.766 104.431 175.707 104.537C175.648 104.643 175.574 104.74 175.485 104.829L172.705 107.501C172.595 107.607 172.482 107.686 172.368 107.736C172.254 107.791 172.131 107.819 172 107.819Z" fill="black" fill-opacity="0.85"/>
</g>
<g clip-path="url(#clip16_207_14487)">
<g clip-path="url(#clip17_207_14487)">
<g opacity="0.05">
<rect width="28" height="28" transform="translate(200 90)" fill="black"/>
</g>
</g>
<path d="M214 99.0151C214.131 99.0151 214.254 99.0426 214.368 99.0977C214.482 99.1484 214.595 99.2267 214.705 99.3325L217.485 101.999C217.574 102.087 217.648 102.185 217.707 102.291C217.766 102.396 217.796 102.511 217.796 102.633C217.796 102.883 217.707 103.088 217.529 103.249C217.356 103.41 217.161 103.49 216.945 103.49C216.835 103.49 216.725 103.471 216.615 103.433C216.509 103.395 216.41 103.332 216.317 103.243L214 100.977L211.683 103.243C211.594 103.332 211.495 103.395 211.385 103.433C211.275 103.471 211.167 103.49 211.061 103.49C210.841 103.49 210.642 103.41 210.464 103.249C210.291 103.088 210.204 102.883 210.204 102.633C210.204 102.511 210.234 102.396 210.293 102.291C210.352 102.185 210.426 102.087 210.515 101.999L213.302 99.3325C213.408 99.2267 213.518 99.1484 213.632 99.0977C213.746 99.0426 213.869 99.0151 214 99.0151ZM214 109.819C213.869 109.819 213.746 109.791 213.632 109.736C213.518 109.686 213.408 109.607 213.302 109.501L210.515 106.829C210.426 106.74 210.352 106.643 210.293 106.537C210.234 106.431 210.204 106.319 210.204 106.201C210.204 105.947 210.291 105.739 210.464 105.579C210.642 105.418 210.841 105.337 211.061 105.337C211.167 105.337 211.275 105.356 211.385 105.395C211.495 105.433 211.594 105.496 211.683 105.585L214 107.851L216.317 105.585C216.41 105.496 216.509 105.433 216.615 105.395C216.725 105.356 216.835 105.337 216.945 105.337C217.161 105.337 217.356 105.418 217.529 105.579C217.707 105.739 217.796 105.947 217.796 106.201C217.796 106.319 217.766 106.431 217.707 106.537C217.648 106.643 217.574 106.74 217.485 106.829L214.705 109.501C214.595 109.607 214.482 109.686 214.368 109.736C214.254 109.791 214.131 109.819 214 109.819Z" fill="black" fill-opacity="0.85"/>
</g>
<g clip-path="url(#clip18_207_14487)">
<g clip-path="url(#clip19_207_14487)">
<g opacity="0.15">
<rect width="16" height="16" transform="translate(90 140)" fill="black"/>
</g>
</g>
<path d="M98 143.551C98.111 143.551 98.2148 143.575 98.3115 143.621C98.4082 143.664 98.5031 143.73 98.5962 143.82L100.949 146.076C101.024 146.151 101.087 146.233 101.137 146.323C101.187 146.412 101.212 146.509 101.212 146.613C101.212 146.824 101.137 146.998 100.986 147.134C100.84 147.27 100.675 147.338 100.492 147.338C100.399 147.338 100.306 147.322 100.213 147.29C100.123 147.257 100.039 147.204 99.9604 147.128L98 145.211L96.0396 147.128C95.9644 147.204 95.8802 147.257 95.7871 147.29C95.694 147.322 95.6027 147.338 95.5132 147.338C95.327 147.338 95.1587 147.27 95.0083 147.134C94.8615 146.998 94.7881 146.824 94.7881 146.613C94.7881 146.509 94.8132 146.412 94.8633 146.323C94.9134 146.233 94.9761 146.151 95.0513 146.076L97.4092 143.82C97.4987 143.73 97.5918 143.664 97.6885 143.621C97.7852 143.575 97.889 143.551 98 143.551ZM98 152.693C97.889 152.693 97.7852 152.67 97.6885 152.623C97.5918 152.58 97.4987 152.514 97.4092 152.424L95.0513 150.163C94.9761 150.088 94.9134 150.006 94.8633 149.916C94.8132 149.826 94.7881 149.732 94.7881 149.631C94.7881 149.417 94.8615 149.241 95.0083 149.105C95.1587 148.969 95.327 148.901 95.5132 148.901C95.6027 148.901 95.694 148.917 95.7871 148.949C95.8802 148.981 95.9644 149.035 96.0396 149.11L98 151.028L99.9604 149.11C100.039 149.035 100.123 148.981 100.213 148.949C100.306 148.917 100.399 148.901 100.492 148.901C100.675 148.901 100.84 148.969 100.986 149.105C101.137 149.241 101.212 149.417 101.212 149.631C101.212 149.732 101.187 149.826 101.137 149.916C101.087 150.006 101.024 150.088 100.949 150.163L98.5962 152.424C98.5031 152.514 98.4082 152.58 98.3115 152.623C98.2148 152.67 98.111 152.693 98 152.693Z" fill="black" fill-opacity="0.85"/>
</g>
<g clip-path="url(#clip20_207_14487)">
<g clip-path="url(#clip21_207_14487)">
<g opacity="0.15">
<rect width="24" height="24" transform="translate(120 140)" fill="black"/>
</g>
</g>
<path d="M130 145.015C130.131 145.015 130.254 145.043 130.368 145.098C130.482 145.148 130.595 145.227 130.705 145.333L133.485 147.999C133.574 148.087 133.648 148.185 133.707 148.291C133.766 148.396 133.796 148.511 133.796 148.633C133.796 148.883 133.707 149.088 133.529 149.249C133.356 149.41 133.161 149.49 132.945 149.49C132.835 149.49 132.725 149.471 132.615 149.433C132.509 149.395 132.41 149.332 132.317 149.243L130 146.977L127.683 149.243C127.594 149.332 127.495 149.395 127.385 149.433C127.275 149.471 127.167 149.49 127.061 149.49C126.841 149.49 126.642 149.41 126.464 149.249C126.291 149.088 126.204 148.883 126.204 148.633C126.204 148.511 126.234 148.396 126.293 148.291C126.352 148.185 126.426 148.087 126.515 147.999L129.302 145.333C129.408 145.227 129.518 145.148 129.632 145.098C129.746 145.043 129.869 145.015 130 145.015ZM130 155.819C129.869 155.819 129.746 155.791 129.632 155.736C129.518 155.686 129.408 155.607 129.302 155.501L126.515 152.829C126.426 152.74 126.352 152.643 126.293 152.537C126.234 152.431 126.204 152.319 126.204 152.201C126.204 151.947 126.291 151.739 126.464 151.579C126.642 151.418 126.841 151.337 127.061 151.337C127.167 151.337 127.275 151.356 127.385 151.395C127.495 151.433 127.594 151.496 127.683 151.585L130 153.851L132.317 151.585C132.41 151.496 132.509 151.433 132.615 151.395C132.725 151.356 132.835 151.337 132.945 151.337C133.161 151.337 133.356 151.418 133.529 151.579C133.707 151.739 133.796 151.947 133.796 152.201C133.796 152.319 133.766 152.431 133.707 152.537C133.648 152.643 133.574 152.74 133.485 152.829L130.705 155.501C130.595 155.607 130.482 155.686 130.368 155.736C130.254 155.791 130.131 155.819 130 155.819Z" fill="black" fill-opacity="0.85"/>
</g>
<g clip-path="url(#clip22_207_14487)">
<g clip-path="url(#clip23_207_14487)">
<g opacity="0.15">
<rect width="36" height="36" transform="translate(240 140)" fill="black"/>
</g>
</g>
<path d="M258 153.015C258.131 153.015 258.254 153.043 258.368 153.098C258.482 153.148 258.595 153.227 258.705 153.333L261.485 155.999C261.574 156.087 261.648 156.185 261.707 156.291C261.766 156.396 261.796 156.511 261.796 156.633C261.796 156.883 261.707 157.088 261.529 157.249C261.356 157.41 261.161 157.49 260.945 157.49C260.835 157.49 260.725 157.471 260.615 157.433C260.509 157.395 260.41 157.332 260.317 157.243L258 154.977L255.683 157.243C255.594 157.332 255.495 157.395 255.385 157.433C255.275 157.471 255.167 157.49 255.061 157.49C254.841 157.49 254.642 157.41 254.464 157.249C254.291 157.088 254.204 156.883 254.204 156.633C254.204 156.511 254.234 156.396 254.293 156.291C254.352 156.185 254.426 156.087 254.515 155.999L257.302 153.333C257.408 153.227 257.518 153.148 257.632 153.098C257.746 153.043 257.869 153.015 258 153.015ZM258 163.819C257.869 163.819 257.746 163.791 257.632 163.736C257.518 163.686 257.408 163.607 257.302 163.501L254.515 160.829C254.426 160.74 254.352 160.643 254.293 160.537C254.234 160.431 254.204 160.319 254.204 160.201C254.204 159.947 254.291 159.739 254.464 159.579C254.642 159.418 254.841 159.337 255.061 159.337C255.167 159.337 255.275 159.356 255.385 159.395C255.495 159.433 255.594 159.496 255.683 159.585L258 161.851L260.317 159.585C260.41 159.496 260.509 159.433 260.615 159.395C260.725 159.356 260.835 159.337 260.945 159.337C261.161 159.337 261.356 159.418 261.529 159.579C261.707 159.739 261.796 159.947 261.796 160.201C261.796 160.319 261.766 160.431 261.707 160.537C261.648 160.643 261.574 160.74 261.485 160.829L258.705 163.501C258.595 163.607 258.482 163.686 258.368 163.736C258.254 163.791 258.131 163.819 258 163.819Z" fill="black" fill-opacity="0.85"/>
</g>
<g clip-path="url(#clip24_207_14487)">
<g clip-path="url(#clip25_207_14487)">
<g opacity="0.05">
<rect width="16" height="16" transform="translate(90 90)" fill="black"/>
</g>
</g>
<path d="M98 93.5513C98.111 93.5513 98.2148 93.5745 98.3115 93.6211C98.4082 93.6641 98.5031 93.7303 98.5962 93.8198L100.949 96.0757C101.024 96.1509 101.087 96.2332 101.137 96.3228C101.187 96.4123 101.212 96.509 101.212 96.6128C101.212 96.8241 101.137 96.9977 100.986 97.1338C100.84 97.2699 100.675 97.3379 100.492 97.3379C100.399 97.3379 100.306 97.3218 100.213 97.2896C100.123 97.2573 100.039 97.2036 99.9604 97.1284L98 95.2109L96.0396 97.1284C95.9644 97.2036 95.8802 97.2573 95.7871 97.2896C95.694 97.3218 95.6027 97.3379 95.5132 97.3379C95.327 97.3379 95.1587 97.2699 95.0083 97.1338C94.8615 96.9977 94.7881 96.8241 94.7881 96.6128C94.7881 96.509 94.8132 96.4123 94.8633 96.3228C94.9134 96.2332 94.9761 96.1509 95.0513 96.0757L97.4092 93.8198C97.4987 93.7303 97.5918 93.6641 97.6885 93.6211C97.7852 93.5745 97.889 93.5513 98 93.5513ZM98 102.693C97.889 102.693 97.7852 102.67 97.6885 102.623C97.5918 102.58 97.4987 102.514 97.4092 102.424L95.0513 100.163C94.9761 100.088 94.9134 100.006 94.8633 99.916C94.8132 99.8265 94.7881 99.7316 94.7881 99.6313C94.7881 99.4165 94.8615 99.241 95.0083 99.105C95.1587 98.9689 95.327 98.9009 95.5132 98.9009C95.6027 98.9009 95.694 98.917 95.7871 98.9492C95.8802 98.9814 95.9644 99.0352 96.0396 99.1104L98 101.028L99.9604 99.1104C100.039 99.0352 100.123 98.9814 100.213 98.9492C100.306 98.917 100.399 98.9009 100.492 98.9009C100.675 98.9009 100.84 98.9689 100.986 99.105C101.137 99.241 101.212 99.4165 101.212 99.6313C101.212 99.7316 101.187 99.8265 101.137 99.916C101.087 100.006 101.024 100.088 100.949 100.163L98.5962 102.424C98.5031 102.514 98.4082 102.58 98.3115 102.623C98.2148 102.67 98.111 102.693 98 102.693Z" fill="black" fill-opacity="0.85"/>
</g>
<g clip-path="url(#clip26_207_14487)">
<g clip-path="url(#clip27_207_14487)">
<g opacity="0.05">
<rect width="24" height="24" transform="translate(120 90)" fill="black"/>
</g>
</g>
<path d="M130 95.0151C130.131 95.0151 130.254 95.0426 130.368 95.0977C130.482 95.1484 130.595 95.2267 130.705 95.3325L133.485 97.9985C133.574 98.0874 133.648 98.1847 133.707 98.2905C133.766 98.3963 133.796 98.5106 133.796 98.6333C133.796 98.883 133.707 99.0882 133.529 99.249C133.356 99.4098 133.161 99.4902 132.945 99.4902C132.835 99.4902 132.725 99.4712 132.615 99.4331C132.509 99.395 132.41 99.3315 132.317 99.2427L130 96.9766L127.683 99.2427C127.594 99.3315 127.495 99.395 127.385 99.4331C127.275 99.4712 127.167 99.4902 127.061 99.4902C126.841 99.4902 126.642 99.4098 126.464 99.249C126.291 99.0882 126.204 98.883 126.204 98.6333C126.204 98.5106 126.234 98.3963 126.293 98.2905C126.352 98.1847 126.426 98.0874 126.515 97.9985L129.302 95.3325C129.408 95.2267 129.518 95.1484 129.632 95.0977C129.746 95.0426 129.869 95.0151 130 95.0151ZM130 105.819C129.869 105.819 129.746 105.791 129.632 105.736C129.518 105.686 129.408 105.607 129.302 105.501L126.515 102.829C126.426 102.74 126.352 102.643 126.293 102.537C126.234 102.431 126.204 102.319 126.204 102.201C126.204 101.947 126.291 101.739 126.464 101.579C126.642 101.418 126.841 101.337 127.061 101.337C127.167 101.337 127.275 101.356 127.385 101.395C127.495 101.433 127.594 101.496 127.683 101.585L130 103.851L132.317 101.585C132.41 101.496 132.509 101.433 132.615 101.395C132.725 101.356 132.835 101.337 132.945 101.337C133.161 101.337 133.356 101.418 133.529 101.579C133.707 101.739 133.796 101.947 133.796 102.201C133.796 102.319 133.766 102.431 133.707 102.537C133.648 102.643 133.574 102.74 133.485 102.829L130.705 105.501C130.595 105.607 130.482 105.686 130.368 105.736C130.254 105.791 130.131 105.819 130 105.819Z" fill="black" fill-opacity="0.85"/>
</g>
<g clip-path="url(#clip28_207_14487)">
<g clip-path="url(#clip29_207_14487)">
<g opacity="0.05">
<rect width="36" height="36" transform="translate(240 90)" fill="black"/>
</g>
</g>
<path d="M258 103.015C258.131 103.015 258.254 103.043 258.368 103.098C258.482 103.148 258.595 103.227 258.705 103.333L261.485 105.999C261.574 106.087 261.648 106.185 261.707 106.291C261.766 106.396 261.796 106.511 261.796 106.633C261.796 106.883 261.707 107.088 261.529 107.249C261.356 107.41 261.161 107.49 260.945 107.49C260.835 107.49 260.725 107.471 260.615 107.433C260.509 107.395 260.41 107.332 260.317 107.243L258 104.977L255.683 107.243C255.594 107.332 255.495 107.395 255.385 107.433C255.275 107.471 255.167 107.49 255.061 107.49C254.841 107.49 254.642 107.41 254.464 107.249C254.291 107.088 254.204 106.883 254.204 106.633C254.204 106.511 254.234 106.396 254.293 106.291C254.352 106.185 254.426 106.087 254.515 105.999L257.302 103.333C257.408 103.227 257.518 103.148 257.632 103.098C257.746 103.043 257.869 103.015 258 103.015ZM258 113.819C257.869 113.819 257.746 113.791 257.632 113.736C257.518 113.686 257.408 113.607 257.302 113.501L254.515 110.829C254.426 110.74 254.352 110.643 254.293 110.537C254.234 110.431 254.204 110.319 254.204 110.201C254.204 109.947 254.291 109.739 254.464 109.579C254.642 109.418 254.841 109.337 255.061 109.337C255.167 109.337 255.275 109.356 255.385 109.395C255.495 109.433 255.594 109.496 255.683 109.585L258 111.851L260.317 109.585C260.41 109.496 260.509 109.433 260.615 109.395C260.725 109.356 260.835 109.337 260.945 109.337C261.161 109.337 261.356 109.418 261.529 109.579C261.707 109.739 261.796 109.947 261.796 110.201C261.796 110.319 261.766 110.431 261.707 110.537C261.648 110.643 261.574 110.74 261.485 110.829L258.705 113.501C258.595 113.607 258.482 113.686 258.368 113.736C258.254 113.791 258.131 113.819 258 113.819Z" fill="black" fill-opacity="0.85"/>
</g>
<rect x="40" y="4" width="61.75" height="30" rx="3" fill="#ECEBEB"/>
<rect x="40.5" y="4.5" width="60.75" height="29" rx="2.5" stroke="black" stroke-opacity="0.2"/>
<path d="M46.9688 22V14H51.7969V14.8594H47.9375V17.5625H51.5469V18.4219H47.9375V21.1406H51.8594V22H46.9688ZM54.1055 16L55.543 18.4531L56.9805 16H58.043L56.1055 19L58.043 22H56.9805L55.543 19.6719L54.1055 22H53.043L54.9492 19L53.043 16H54.1055ZM61.124 22.1406C60.7438 22.1406 60.3988 22.069 60.0889 21.9258C59.779 21.7799 59.5329 21.5703 59.3506 21.2969C59.1683 21.0208 59.0771 20.6875 59.0771 20.2969C59.0771 19.9531 59.1449 19.6745 59.2803 19.4609C59.4157 19.2448 59.5967 19.0755 59.8232 18.9531C60.0498 18.8307 60.2998 18.7396 60.5732 18.6797C60.8493 18.6172 61.1266 18.5677 61.4053 18.5313C61.7699 18.4844 62.0654 18.4492 62.292 18.4258C62.5212 18.3997 62.6878 18.3568 62.792 18.2969C62.8988 18.237 62.9521 18.1328 62.9521 17.9844V17.9531C62.9521 17.5677 62.8467 17.2682 62.6357 17.0547C62.4274 16.8411 62.111 16.7344 61.6865 16.7344C61.2464 16.7344 60.9014 16.8307 60.6514 17.0234C60.4014 17.2161 60.2256 17.4219 60.124 17.6406L59.249 17.3281C59.4053 16.9635 59.6136 16.6797 59.874 16.4766C60.137 16.2708 60.4235 16.1276 60.7334 16.0469C61.0459 15.9635 61.3532 15.9219 61.6553 15.9219C61.848 15.9219 62.0693 15.9453 62.3193 15.9922C62.5719 16.0365 62.8154 16.1289 63.0498 16.2695C63.2868 16.4102 63.4834 16.6224 63.6396 16.9062C63.7959 17.1901 63.874 17.5703 63.874 18.0469V22H62.9521V21.1875H62.9053C62.8428 21.3177 62.7386 21.457 62.5928 21.6055C62.4469 21.7539 62.2529 21.8802 62.0107 21.9844C61.7686 22.0885 61.473 22.1406 61.124 22.1406ZM61.2646 21.3125C61.6292 21.3125 61.9365 21.2409 62.1865 21.0977C62.4391 20.9544 62.6292 20.7695 62.7568 20.543C62.887 20.3164 62.9521 20.0781 62.9521 19.8281V18.9844C62.9131 19.0312 62.8271 19.0742 62.6943 19.1133C62.5641 19.1497 62.4131 19.1823 62.2412 19.2109C62.0719 19.237 61.9066 19.2604 61.7451 19.2812C61.5863 19.2995 61.4574 19.3151 61.3584 19.3281C61.1188 19.3594 60.8949 19.4102 60.6865 19.4805C60.4808 19.5482 60.3141 19.651 60.1865 19.7891C60.0615 19.9245 59.999 20.1094 59.999 20.3437C59.999 20.6641 60.1175 20.9062 60.3545 21.0703C60.5941 21.2318 60.8975 21.3125 61.2646 21.3125ZM65.5566 22V16H66.4473V16.9375H66.5254C66.6504 16.6172 66.8522 16.3685 67.1309 16.1914C67.4095 16.0117 67.7441 15.9219 68.1348 15.9219C68.5306 15.9219 68.86 16.0117 69.123 16.1914C69.3887 16.3685 69.5957 16.6172 69.7441 16.9375H69.8066C69.9603 16.6276 70.1908 16.3815 70.498 16.1992C70.8053 16.0143 71.1738 15.9219 71.6035 15.9219C72.14 15.9219 72.5788 16.0898 72.9199 16.4258C73.2611 16.7591 73.4316 17.2786 73.4316 17.9844V22H72.5098V17.9844C72.5098 17.5417 72.3887 17.2253 72.1465 17.0352C71.9043 16.8451 71.6191 16.75 71.291 16.75C70.8691 16.75 70.5423 16.8776 70.3105 17.1328C70.0788 17.3854 69.9629 17.7057 69.9629 18.0937V22H69.0254V17.8906C69.0254 17.5495 68.9147 17.2747 68.6934 17.0664C68.472 16.8555 68.1868 16.75 67.8379 16.75C67.5983 16.75 67.3743 16.8138 67.166 16.9414C66.9603 17.069 66.7936 17.2461 66.666 17.4727C66.541 17.6966 66.4785 17.9557 66.4785 18.25V22H65.5566ZM75.1172 24.25V16H76.0078V16.9531H76.1172C76.1849 16.849 76.2786 16.7161 76.3984 16.5547C76.5208 16.3906 76.6953 16.2448 76.9219 16.1172C77.151 15.987 77.4609 15.9219 77.8516 15.9219C78.3568 15.9219 78.8021 16.0482 79.1875 16.3008C79.5729 16.5534 79.8737 16.9115 80.0898 17.375C80.306 17.8385 80.4141 18.3854 80.4141 19.0156C80.4141 19.651 80.306 20.2018 80.0898 20.668C79.8737 21.1315 79.5742 21.4909 79.1914 21.7461C78.8086 21.9987 78.3672 22.125 77.8672 22.125C77.4818 22.125 77.1732 22.0612 76.9414 21.9336C76.7096 21.8034 76.5313 21.6562 76.4063 21.4922C76.2813 21.3255 76.1849 21.1875 76.1172 21.0781H76.0391V24.25H75.1172ZM76.0234 19C76.0234 19.4531 76.0898 19.8529 76.2227 20.1992C76.3555 20.543 76.5495 20.8125 76.8047 21.0078C77.0599 21.2005 77.3724 21.2969 77.7422 21.2969C78.1276 21.2969 78.4492 21.1953 78.707 20.9922C78.9674 20.7865 79.1628 20.5104 79.293 20.1641C79.4258 19.8151 79.4922 19.4271 79.4922 19C79.4922 18.5781 79.4271 18.1979 79.2969 17.8594C79.1693 17.5182 78.9753 17.2487 78.7148 17.0508C78.457 16.8503 78.1328 16.75 77.7422 16.75C77.3672 16.75 77.0521 16.8451 76.7969 17.0352C76.5417 17.2227 76.349 17.4857 76.2188 17.8242C76.0885 18.1602 76.0234 18.5521 76.0234 19ZM82.7422 14V22H81.8203V14H82.7422ZM86.9463 22.125C86.3682 22.125 85.8695 21.9974 85.4502 21.7422C85.0335 21.4844 84.7119 21.125 84.4854 20.6641C84.2614 20.2005 84.1494 19.6615 84.1494 19.0469C84.1494 18.4323 84.2614 17.8906 84.4854 17.4219C84.7119 16.9505 85.027 16.5833 85.4307 16.3203C85.8369 16.0547 86.3109 15.9219 86.8525 15.9219C87.165 15.9219 87.4736 15.974 87.7783 16.0781C88.083 16.1823 88.3604 16.3516 88.6104 16.5859C88.8604 16.8177 89.0596 17.125 89.208 17.5078C89.3564 17.8906 89.4307 18.362 89.4307 18.9219V19.3125H84.8057V18.5156H88.4932C88.4932 18.1771 88.4255 17.875 88.29 17.6094C88.1572 17.3437 87.9671 17.1341 87.7197 16.9805C87.4749 16.8268 87.1859 16.75 86.8525 16.75C86.4854 16.75 86.1676 16.8411 85.8994 17.0234C85.6338 17.2031 85.4294 17.4375 85.2861 17.7266C85.1429 18.0156 85.0713 18.3255 85.0713 18.6562V19.1875C85.0713 19.6406 85.1494 20.0247 85.3057 20.3398C85.4645 20.6523 85.6846 20.8906 85.9658 21.0547C86.2471 21.2161 86.5739 21.2969 86.9463 21.2969C87.1885 21.2969 87.4072 21.263 87.6025 21.1953C87.8005 21.125 87.971 21.0208 88.1143 20.8828C88.2575 20.7422 88.3682 20.5677 88.4463 20.3594L89.3369 20.6094C89.2432 20.9115 89.0856 21.1771 88.8643 21.4062C88.6429 21.6328 88.3695 21.8099 88.0439 21.9375C87.7184 22.0625 87.3525 22.125 86.9463 22.125ZM95.083 17.3437L94.2549 17.5781C94.2028 17.4401 94.126 17.306 94.0244 17.1758C93.9255 17.043 93.79 16.9336 93.6182 16.8477C93.4463 16.7617 93.2262 16.7187 92.958 16.7187C92.5908 16.7187 92.2848 16.8034 92.04 16.9727C91.7979 17.1393 91.6768 17.3516 91.6768 17.6094C91.6768 17.8385 91.7601 18.0195 91.9268 18.1523C92.0934 18.2852 92.3538 18.3958 92.708 18.4844L93.5986 18.7031C94.1351 18.8333 94.5348 19.0326 94.7979 19.3008C95.0609 19.5664 95.1924 19.9089 95.1924 20.3281C95.1924 20.6719 95.0934 20.9792 94.8955 21.25C94.7002 21.5208 94.4268 21.7344 94.0752 21.8906C93.7236 22.0469 93.3148 22.125 92.8486 22.125C92.2367 22.125 91.7301 21.9922 91.3291 21.7266C90.9281 21.4609 90.6742 21.0729 90.5674 20.5625L91.4424 20.3437C91.5257 20.6667 91.6833 20.9089 91.915 21.0703C92.1494 21.2318 92.4554 21.3125 92.833 21.3125C93.2627 21.3125 93.6038 21.2214 93.8564 21.0391C94.1117 20.8542 94.2393 20.6328 94.2393 20.375C94.2393 20.1667 94.1663 19.9922 94.0205 19.8516C93.8747 19.7083 93.6507 19.6016 93.3486 19.5312L92.3486 19.2969C91.7992 19.1667 91.3955 18.9648 91.1377 18.6914C90.8825 18.4154 90.7549 18.0703 90.7549 17.6562C90.7549 17.3177 90.8499 17.0182 91.04 16.7578C91.2327 16.4974 91.4945 16.293 91.8252 16.1445C92.1585 15.9961 92.5361 15.9219 92.958 15.9219C93.5518 15.9219 94.0179 16.0521 94.3564 16.3125C94.6976 16.5729 94.9398 16.9167 95.083 17.3437Z" fill="black"/>
<defs>
<clipPath id="clip0_207_14487">
<rect x="160" y="190" width="24" height="24" rx="12" fill="white"/>
</clipPath>
<clipPath id="clip1_207_14487">
<rect width="24" height="24" fill="white" transform="translate(160 190)"/>
</clipPath>
<clipPath id="clip2_207_14487">
<rect x="200" y="190" width="28" height="28" rx="14" fill="white"/>
</clipPath>
<clipPath id="clip3_207_14487">
<rect width="28" height="28" fill="white" transform="translate(200 190)"/>
</clipPath>
<clipPath id="clip4_207_14487">
<rect x="90" y="190" width="16" height="16" rx="8" fill="white"/>
</clipPath>
<clipPath id="clip5_207_14487">
<rect width="16" height="16" fill="white" transform="translate(90 190)"/>
</clipPath>
<clipPath id="clip6_207_14487">
<rect x="160" y="140" width="24" height="24" rx="12" fill="white"/>
</clipPath>
<clipPath id="clip7_207_14487">
<rect width="24" height="24" fill="white" transform="translate(160 140)"/>
</clipPath>
<clipPath id="clip8_207_14487">
<rect x="120" y="190" width="20" height="20" rx="10" fill="white"/>
</clipPath>
<clipPath id="clip9_207_14487">
<rect width="20" height="20" fill="white" transform="translate(120 190)"/>
</clipPath>
<clipPath id="clip10_207_14487">
<rect x="200" y="140" width="28" height="28" rx="14" fill="white"/>
</clipPath>
<clipPath id="clip11_207_14487">
<rect width="28" height="28" fill="white" transform="translate(200 140)"/>
</clipPath>
<clipPath id="clip12_207_14487">
<rect x="240" y="190" width="36" height="36" rx="18" fill="white"/>
</clipPath>
<clipPath id="clip13_207_14487">
<rect width="36" height="36" fill="white" transform="translate(240 190)"/>
</clipPath>
<clipPath id="clip14_207_14487">
<rect x="160" y="90" width="24" height="24" rx="12" fill="white"/>
</clipPath>
<clipPath id="clip15_207_14487">
<rect width="24" height="24" fill="white" transform="translate(160 90)"/>
</clipPath>
<clipPath id="clip16_207_14487">
<rect x="200" y="90" width="28" height="28" rx="14" fill="white"/>
</clipPath>
<clipPath id="clip17_207_14487">
<rect width="28" height="28" fill="white" transform="translate(200 90)"/>
</clipPath>
<clipPath id="clip18_207_14487">
<rect x="90" y="140" width="16" height="16" rx="8" fill="white"/>
</clipPath>
<clipPath id="clip19_207_14487">
<rect width="16" height="16" fill="white" transform="translate(90 140)"/>
</clipPath>
<clipPath id="clip20_207_14487">
<rect x="120" y="140" width="20" height="20" rx="10" fill="white"/>
</clipPath>
<clipPath id="clip21_207_14487">
<rect width="20" height="20" fill="white" transform="translate(120 140)"/>
</clipPath>
<clipPath id="clip22_207_14487">
<rect x="240" y="140" width="36" height="36" rx="18" fill="white"/>
</clipPath>
<clipPath id="clip23_207_14487">
<rect width="36" height="36" fill="white" transform="translate(240 140)"/>
</clipPath>
<clipPath id="clip24_207_14487">
<rect x="90" y="90" width="16" height="16" rx="8" fill="white"/>
</clipPath>
<clipPath id="clip25_207_14487">
<rect width="16" height="16" fill="white" transform="translate(90 90)"/>
</clipPath>
<clipPath id="clip26_207_14487">
<rect x="120" y="90" width="20" height="20" rx="10" fill="white"/>
</clipPath>
<clipPath id="clip27_207_14487">
<rect width="20" height="20" fill="white" transform="translate(120 90)"/>
</clipPath>
<clipPath id="clip28_207_14487">
<rect x="240" y="90" width="36" height="36" rx="18" fill="white"/>
</clipPath>
<clipPath id="clip29_207_14487">
<rect width="36" height="36" fill="white" transform="translate(240 90)"/>
</clipPath>
</defs>
</svg>
