<svg width="56" height="90" viewBox="0 0 56 90" fill="none" xmlns="http://www.w3.org/2000/svg">
<rect x="0.5" y="0.5" width="55" height="89" rx="4.5" fill="#AAAAAA"/>
<rect x="0.5" y="0.5" width="55" height="89" rx="4.5" stroke="#6155F5" stroke-dasharray="10 5"/>
<path d="M28 68.9741C24.3818 68.9741 21.4429 66.0352 21.4429 62.417C21.4429 58.7988 24.3818 55.8599 28 55.8599C31.6182 55.8599 34.5571 58.7988 34.5571 62.417C34.5571 66.0352 31.6182 68.9741 28 68.9741ZM25.918 65.1084C26.0894 65.1084 26.2354 65.0449 26.356 64.9307L28 63.2739L29.6567 64.9307C29.7646 65.0449 29.917 65.1084 30.0884 65.1084C30.4248 65.1084 30.6914 64.8418 30.6914 64.499C30.6914 64.3403 30.6279 64.1943 30.5137 64.0801L28.8569 62.4233L30.52 60.7603C30.6406 60.6396 30.6914 60.5 30.6914 60.3413C30.6914 60.0049 30.4312 59.7446 30.1011 59.7446C29.9297 59.7446 29.7964 59.8018 29.6758 59.9224L28 61.5854L26.3369 59.9287C26.2227 59.8145 26.0894 59.7573 25.918 59.7573C25.5815 59.7573 25.3213 60.0112 25.3213 60.3477C25.3213 60.5063 25.3848 60.6523 25.499 60.7666L27.1558 62.4233L25.499 64.0864C25.3848 64.2007 25.3213 64.3467 25.3213 64.499C25.3213 64.8418 25.5815 65.1084 25.918 65.1084Z" fill="#1A1A1A"/>
<path d="M28 33.9741C24.3818 33.9741 21.4429 31.0352 21.4429 27.417C21.4429 23.7988 24.3818 20.8599 28 20.8599C31.6182 20.8599 34.5571 23.7988 34.5571 27.417C34.5571 31.0352 31.6182 33.9741 28 33.9741ZM25.918 30.1084C26.0894 30.1084 26.2354 30.0449 26.356 29.9307L28 28.2739L29.6567 29.9307C29.7646 30.0449 29.917 30.1084 30.0884 30.1084C30.4248 30.1084 30.6914 29.8418 30.6914 29.499C30.6914 29.3403 30.6279 29.1943 30.5137 29.0801L28.8569 27.4233L30.52 25.7603C30.6406 25.6396 30.6914 25.5 30.6914 25.3413C30.6914 25.0049 30.4312 24.7446 30.1011 24.7446C29.9297 24.7446 29.7964 24.8018 29.6758 24.9224L28 26.5854L26.3369 24.9287C26.2227 24.8145 26.0894 24.7573 25.918 24.7573C25.5815 24.7573 25.3213 25.0112 25.3213 25.3477C25.3213 25.5063 25.3848 25.6523 25.499 25.7666L27.1558 27.4233L25.499 29.0864C25.3848 29.2007 25.3213 29.3467 25.3213 29.499C25.3213 29.8418 25.5815 30.1084 25.918 30.1084Z" fill="#727272"/>
</svg>
