<svg width="160" height="290" viewBox="0 0 160 290" fill="none" xmlns="http://www.w3.org/2000/svg">
<rect x="0.5" y="0.5" width="159" height="289" rx="4.5" fill="#F5F5F5"/>
<rect x="0.5" y="0.5" width="159" height="289" rx="4.5" stroke="#6155F5" stroke-dasharray="10 5"/>
<g style="mix-blend-mode:plus-darker" filter="url(#filter0_d_480_760)">
<rect x="20" y="240" width="120" height="24" rx="12" fill="white" style="mix-blend-mode:multiply" shape-rendering="crispEdges"/>
</g>
<g opacity="0.5">
<rect x="20" y="240" width="120" height="24" rx="12" fill="white"/>
</g>
<path d="M29.7349 250.762C29.7349 247.912 32.0518 245.595 34.9019 245.595C37.752 245.595 40.0688 247.912 40.0688 250.762C40.0688 251.873 39.707 252.901 39.104 253.732L42.0049 256.64C42.1763 256.817 42.2651 257.052 42.2651 257.306C42.2651 257.833 41.8779 258.239 41.3384 258.239C41.0908 258.239 40.8433 258.157 40.6655 257.973L37.7456 255.053C36.9331 255.605 35.9619 255.929 34.9019 255.929C32.0518 255.929 29.7349 253.612 29.7349 250.762ZM31.0552 250.762C31.0552 252.888 32.7754 254.608 34.9019 254.608C37.0283 254.608 38.7485 252.888 38.7485 250.762C38.7485 248.635 37.0283 246.915 34.9019 246.915C32.7754 246.915 31.0552 248.635 31.0552 250.762Z" fill="black"/>
<path d="M50.2466 257.222C49.5568 257.222 48.9559 257.114 48.4438 256.898C47.9318 256.678 47.5277 256.374 47.2314 255.984C46.9352 255.595 46.766 255.144 46.7236 254.632L46.7173 254.55H48.1201L48.1265 254.62C48.1561 254.895 48.264 255.134 48.4502 255.337C48.6406 255.54 48.8945 255.699 49.2119 255.813C49.5335 255.927 49.8996 255.984 50.3101 255.984C50.6951 255.984 51.0379 255.923 51.3384 255.8C51.6388 255.678 51.8737 255.508 52.043 255.292C52.2165 255.077 52.3032 254.829 52.3032 254.55V254.543C52.3032 254.192 52.1699 253.9 51.9033 253.667C51.6367 253.435 51.2008 253.253 50.5957 253.122L49.5928 252.912C48.666 252.713 47.991 252.398 47.5679 251.966C47.1447 251.53 46.9331 250.974 46.9331 250.297V250.291C46.9373 249.762 47.0791 249.296 47.3584 248.894C47.6419 248.492 48.0334 248.179 48.5327 247.955C49.0321 247.73 49.6055 247.618 50.2529 247.618C50.9004 247.618 51.4653 247.73 51.9478 247.955C52.4344 248.175 52.8174 248.475 53.0967 248.856C53.3802 249.237 53.5389 249.666 53.5728 250.145L53.5791 250.227H52.189L52.1763 250.145C52.1382 249.895 52.0345 249.673 51.8652 249.478C51.7002 249.283 51.478 249.131 51.1987 249.021C50.9237 248.907 50.6021 248.852 50.2339 248.856C49.8784 248.856 49.561 248.911 49.2817 249.021C49.0024 249.127 48.7803 249.281 48.6152 249.484C48.4544 249.688 48.374 249.933 48.374 250.221V250.227C48.374 250.566 48.5031 250.849 48.7612 251.078C49.0236 251.302 49.4489 251.478 50.0371 251.604L51.04 251.827C51.679 251.962 52.1974 252.142 52.5952 252.366C52.993 252.59 53.2829 252.868 53.4648 253.198C53.651 253.524 53.7441 253.913 53.7441 254.366V254.372C53.7441 254.956 53.6003 255.462 53.3125 255.889C53.029 256.312 52.6248 256.64 52.1001 256.873C51.5754 257.106 50.9575 257.222 50.2466 257.222ZM58.3525 257.133C57.6797 257.133 57.1021 256.989 56.6196 256.702C56.1372 256.41 55.7648 255.997 55.5024 255.464C55.2443 254.931 55.1152 254.3 55.1152 253.572V253.566C55.1152 252.847 55.2443 252.218 55.5024 251.681C55.7648 251.143 56.133 250.724 56.6069 250.424C57.0851 250.123 57.6437 249.973 58.2827 249.973C58.9259 249.973 59.4782 250.117 59.9395 250.405C60.4049 250.693 60.7625 251.097 61.0122 251.617C61.2619 252.133 61.3867 252.739 61.3867 253.433V253.915H55.8135V252.931H60.7012L60.041 253.845V253.293C60.041 252.802 59.9648 252.396 59.8125 252.074C59.6644 251.748 59.4591 251.505 59.1968 251.344C58.9344 251.183 58.6318 251.103 58.2891 251.103C57.9463 251.103 57.6395 251.188 57.3687 251.357C57.1021 251.522 56.8905 251.767 56.7339 252.093C56.5815 252.419 56.5054 252.819 56.5054 253.293V253.845C56.5054 254.298 56.5815 254.685 56.7339 255.007C56.8862 255.328 57.1021 255.574 57.3813 255.743C57.6649 255.912 57.9992 255.997 58.3843 255.997C58.6805 255.997 58.9344 255.957 59.146 255.876C59.3618 255.792 59.5374 255.688 59.6729 255.565C59.8125 255.443 59.9077 255.322 59.9585 255.204L59.9839 255.153H61.3169L61.3042 255.21C61.245 255.438 61.1413 255.667 60.9932 255.896C60.8451 256.12 60.6483 256.325 60.4028 256.511C60.1616 256.697 59.8696 256.848 59.5269 256.962C59.1883 257.076 58.7969 257.133 58.3525 257.133ZM64.916 257.114C64.4801 257.114 64.0887 257.032 63.7417 256.867C63.3989 256.697 63.1281 256.458 62.9292 256.149C62.7303 255.84 62.6309 255.479 62.6309 255.064V255.051C62.6309 254.637 62.7303 254.283 62.9292 253.991C63.1323 253.699 63.4243 253.471 63.8052 253.306C64.1903 253.136 64.6558 253.035 65.2017 253.001L67.7471 252.849V253.82L65.3921 253.972C64.9181 254.002 64.569 254.103 64.3447 254.277C64.1204 254.446 64.0083 254.685 64.0083 254.994V255.007C64.0083 255.32 64.1289 255.568 64.3701 255.75C64.6113 255.927 64.916 256.016 65.2842 256.016C65.627 256.016 65.9316 255.948 66.1982 255.813C66.4691 255.673 66.6807 255.487 66.833 255.254C66.9854 255.017 67.0615 254.751 67.0615 254.455V252.284C67.0615 251.903 66.943 251.613 66.7061 251.414C66.4733 251.211 66.1263 251.109 65.665 251.109C65.2799 251.109 64.9647 251.177 64.7192 251.312C64.478 251.448 64.3172 251.638 64.2368 251.884L64.2241 251.903H62.8975L62.9038 251.858C62.9588 251.478 63.109 251.147 63.3545 250.868C63.6042 250.585 63.93 250.365 64.332 250.208C64.7383 250.051 65.2017 249.973 65.7222 249.973C66.3019 249.973 66.7928 250.066 67.1948 250.252C67.6011 250.434 67.9079 250.699 68.1152 251.046C68.3268 251.389 68.4326 251.801 68.4326 252.284V257H67.0615V256.022H66.96C66.8245 256.255 66.6553 256.454 66.4521 256.619C66.249 256.78 66.0184 256.903 65.7603 256.987C65.5021 257.072 65.2207 257.114 64.916 257.114ZM70.375 257V250.106H71.7524V251.147H71.8604C71.9831 250.779 72.1989 250.494 72.5078 250.291C72.821 250.087 73.2061 249.986 73.6631 249.986C73.7773 249.986 73.8895 249.992 73.9995 250.005C74.1095 250.018 74.1984 250.032 74.2661 250.049V251.319C74.1434 251.293 74.0207 251.274 73.8979 251.262C73.7795 251.249 73.6546 251.243 73.5234 251.243C73.1722 251.243 72.8633 251.31 72.5967 251.446C72.3343 251.581 72.127 251.772 71.9746 252.017C71.8265 252.258 71.7524 252.546 71.7524 252.88V257H70.375ZM78.3159 257.133C77.6473 257.133 77.0697 256.989 76.583 256.702C76.1006 256.41 75.7282 255.995 75.4658 255.458C75.2035 254.92 75.0723 254.279 75.0723 253.534V253.521C75.0723 252.789 75.2013 252.159 75.4595 251.63C75.7218 251.101 76.0942 250.693 76.5767 250.405C77.0633 250.117 77.641 249.973 78.3096 249.973C78.8893 249.973 79.3866 250.075 79.8013 250.278C80.2202 250.477 80.5524 250.752 80.7979 251.103C81.0475 251.45 81.2041 251.846 81.2676 252.29L81.2739 252.322H79.9473L79.9409 252.309C79.8647 251.971 79.6891 251.689 79.4141 251.465C79.139 251.236 78.7729 251.122 78.3159 251.122C77.9351 251.122 77.6071 251.219 77.332 251.414C77.057 251.604 76.8454 251.88 76.6973 252.239C76.5534 252.599 76.4814 253.026 76.4814 253.521V253.534C76.4814 254.042 76.5555 254.478 76.7036 254.842C76.8517 255.206 77.0633 255.487 77.3384 255.686C77.6134 255.881 77.9393 255.978 78.3159 255.978C78.7476 255.978 79.0967 255.883 79.3633 255.692C79.6341 255.502 79.8245 255.221 79.9346 254.848L79.9473 254.816L81.2676 254.81L81.2549 254.867C81.1745 255.316 81.0116 255.709 80.7661 256.048C80.5207 256.386 80.1927 256.653 79.7822 256.848C79.376 257.038 78.8872 257.133 78.3159 257.133ZM82.8926 257V247.402H84.27V251.147H84.3779C84.5472 250.779 84.7969 250.492 85.127 250.284C85.457 250.077 85.8739 249.973 86.3774 249.973C86.8895 249.973 87.3232 250.073 87.6787 250.271C88.0342 250.47 88.305 250.762 88.4912 251.147C88.6774 251.528 88.7705 251.992 88.7705 252.538V257H87.3867V252.861C87.3867 252.286 87.2661 251.858 87.0249 251.579C86.7879 251.296 86.4155 251.154 85.9077 251.154C85.5734 251.154 85.2835 251.228 85.0381 251.376C84.7926 251.52 84.6022 251.727 84.4668 251.998C84.3356 252.265 84.27 252.584 84.27 252.957V257H82.8926Z" fill="#1A1A1A"/>
<g style="mix-blend-mode:plus-darker" filter="url(#filter1_d_480_760)">
<rect x="20" y="200" width="120" height="24" rx="12" fill="white" style="mix-blend-mode:multiply" shape-rendering="crispEdges"/>
</g>
<g style="mix-blend-mode:plus-darker" filter="url(#filter2_d_480_760)">
<rect x="20" y="200" width="120" height="24" rx="12" fill="white" style="mix-blend-mode:multiply" shape-rendering="crispEdges"/>
</g>
<g style="mix-blend-mode:plus-darker" filter="url(#filter3_d_480_760)">
<rect x="20" y="200" width="120" height="24" rx="12" fill="white" style="mix-blend-mode:multiply" shape-rendering="crispEdges"/>
</g>
<rect x="20" y="200" width="120" height="24" rx="12" fill="white"/>
<path d="M29.7349 210.762C29.7349 207.912 32.0518 205.595 34.9019 205.595C37.752 205.595 40.0688 207.912 40.0688 210.762C40.0688 211.873 39.707 212.901 39.104 213.732L42.0049 216.64C42.1763 216.817 42.2651 217.052 42.2651 217.306C42.2651 217.833 41.8779 218.239 41.3384 218.239C41.0908 218.239 40.8433 218.157 40.6655 217.973L37.7456 215.053C36.9331 215.605 35.9619 215.929 34.9019 215.929C32.0518 215.929 29.7349 213.612 29.7349 210.762ZM31.0552 210.762C31.0552 212.888 32.7754 214.608 34.9019 214.608C37.0283 214.608 38.7485 212.888 38.7485 210.762C38.7485 208.635 37.0283 206.915 34.9019 206.915C32.7754 206.915 31.0552 208.635 31.0552 210.762Z" fill="black"/>
<path d="M50.2466 217.222C49.5568 217.222 48.9559 217.114 48.4438 216.898C47.9318 216.678 47.5277 216.374 47.2314 215.984C46.9352 215.595 46.766 215.144 46.7236 214.632L46.7173 214.55H48.1201L48.1265 214.62C48.1561 214.895 48.264 215.134 48.4502 215.337C48.6406 215.54 48.8945 215.699 49.2119 215.813C49.5335 215.927 49.8996 215.984 50.3101 215.984C50.6951 215.984 51.0379 215.923 51.3384 215.8C51.6388 215.678 51.8737 215.508 52.043 215.292C52.2165 215.077 52.3032 214.829 52.3032 214.55V214.543C52.3032 214.192 52.1699 213.9 51.9033 213.667C51.6367 213.435 51.2008 213.253 50.5957 213.122L49.5928 212.912C48.666 212.713 47.991 212.398 47.5679 211.966C47.1447 211.53 46.9331 210.974 46.9331 210.297V210.291C46.9373 209.762 47.0791 209.296 47.3584 208.894C47.6419 208.492 48.0334 208.179 48.5327 207.955C49.0321 207.73 49.6055 207.618 50.2529 207.618C50.9004 207.618 51.4653 207.73 51.9478 207.955C52.4344 208.175 52.8174 208.475 53.0967 208.856C53.3802 209.237 53.5389 209.666 53.5728 210.145L53.5791 210.227H52.189L52.1763 210.145C52.1382 209.895 52.0345 209.673 51.8652 209.478C51.7002 209.283 51.478 209.131 51.1987 209.021C50.9237 208.907 50.6021 208.852 50.2339 208.856C49.8784 208.856 49.561 208.911 49.2817 209.021C49.0024 209.127 48.7803 209.281 48.6152 209.484C48.4544 209.688 48.374 209.933 48.374 210.221V210.227C48.374 210.566 48.5031 210.849 48.7612 211.078C49.0236 211.302 49.4489 211.478 50.0371 211.604L51.04 211.827C51.679 211.962 52.1974 212.142 52.5952 212.366C52.993 212.59 53.2829 212.868 53.4648 213.198C53.651 213.524 53.7441 213.913 53.7441 214.366V214.372C53.7441 214.956 53.6003 215.462 53.3125 215.889C53.029 216.312 52.6248 216.64 52.1001 216.873C51.5754 217.106 50.9575 217.222 50.2466 217.222ZM58.3525 217.133C57.6797 217.133 57.1021 216.989 56.6196 216.702C56.1372 216.41 55.7648 215.997 55.5024 215.464C55.2443 214.931 55.1152 214.3 55.1152 213.572V213.566C55.1152 212.847 55.2443 212.218 55.5024 211.681C55.7648 211.143 56.133 210.724 56.6069 210.424C57.0851 210.123 57.6437 209.973 58.2827 209.973C58.9259 209.973 59.4782 210.117 59.9395 210.405C60.4049 210.693 60.7625 211.097 61.0122 211.617C61.2619 212.133 61.3867 212.739 61.3867 213.433V213.915H55.8135V212.931H60.7012L60.041 213.845V213.293C60.041 212.802 59.9648 212.396 59.8125 212.074C59.6644 211.748 59.4591 211.505 59.1968 211.344C58.9344 211.183 58.6318 211.103 58.2891 211.103C57.9463 211.103 57.6395 211.188 57.3687 211.357C57.1021 211.522 56.8905 211.767 56.7339 212.093C56.5815 212.419 56.5054 212.819 56.5054 213.293V213.845C56.5054 214.298 56.5815 214.685 56.7339 215.007C56.8862 215.328 57.1021 215.574 57.3813 215.743C57.6649 215.912 57.9992 215.997 58.3843 215.997C58.6805 215.997 58.9344 215.957 59.146 215.876C59.3618 215.792 59.5374 215.688 59.6729 215.565C59.8125 215.443 59.9077 215.322 59.9585 215.204L59.9839 215.153H61.3169L61.3042 215.21C61.245 215.438 61.1413 215.667 60.9932 215.896C60.8451 216.12 60.6483 216.325 60.4028 216.511C60.1616 216.697 59.8696 216.848 59.5269 216.962C59.1883 217.076 58.7969 217.133 58.3525 217.133ZM64.916 217.114C64.4801 217.114 64.0887 217.032 63.7417 216.867C63.3989 216.697 63.1281 216.458 62.9292 216.149C62.7303 215.84 62.6309 215.479 62.6309 215.064V215.051C62.6309 214.637 62.7303 214.283 62.9292 213.991C63.1323 213.699 63.4243 213.471 63.8052 213.306C64.1903 213.136 64.6558 213.035 65.2017 213.001L67.7471 212.849V213.82L65.3921 213.972C64.9181 214.002 64.569 214.103 64.3447 214.277C64.1204 214.446 64.0083 214.685 64.0083 214.994V215.007C64.0083 215.32 64.1289 215.568 64.3701 215.75C64.6113 215.927 64.916 216.016 65.2842 216.016C65.627 216.016 65.9316 215.948 66.1982 215.813C66.4691 215.673 66.6807 215.487 66.833 215.254C66.9854 215.017 67.0615 214.751 67.0615 214.455V212.284C67.0615 211.903 66.943 211.613 66.7061 211.414C66.4733 211.211 66.1263 211.109 65.665 211.109C65.2799 211.109 64.9647 211.177 64.7192 211.312C64.478 211.448 64.3172 211.638 64.2368 211.884L64.2241 211.903H62.8975L62.9038 211.858C62.9588 211.478 63.109 211.147 63.3545 210.868C63.6042 210.585 63.93 210.365 64.332 210.208C64.7383 210.051 65.2017 209.973 65.7222 209.973C66.3019 209.973 66.7928 210.066 67.1948 210.252C67.6011 210.434 67.9079 210.699 68.1152 211.046C68.3268 211.389 68.4326 211.801 68.4326 212.284V217H67.0615V216.022H66.96C66.8245 216.255 66.6553 216.454 66.4521 216.619C66.249 216.78 66.0184 216.903 65.7603 216.987C65.5021 217.072 65.2207 217.114 64.916 217.114ZM70.375 217V210.106H71.7524V211.147H71.8604C71.9831 210.779 72.1989 210.494 72.5078 210.291C72.821 210.087 73.2061 209.986 73.6631 209.986C73.7773 209.986 73.8895 209.992 73.9995 210.005C74.1095 210.018 74.1984 210.032 74.2661 210.049V211.319C74.1434 211.293 74.0207 211.274 73.8979 211.262C73.7795 211.249 73.6546 211.243 73.5234 211.243C73.1722 211.243 72.8633 211.31 72.5967 211.446C72.3343 211.581 72.127 211.772 71.9746 212.017C71.8265 212.258 71.7524 212.546 71.7524 212.88V217H70.375ZM78.3159 217.133C77.6473 217.133 77.0697 216.989 76.583 216.702C76.1006 216.41 75.7282 215.995 75.4658 215.458C75.2035 214.92 75.0723 214.279 75.0723 213.534V213.521C75.0723 212.789 75.2013 212.159 75.4595 211.63C75.7218 211.101 76.0942 210.693 76.5767 210.405C77.0633 210.117 77.641 209.973 78.3096 209.973C78.8893 209.973 79.3866 210.075 79.8013 210.278C80.2202 210.477 80.5524 210.752 80.7979 211.103C81.0475 211.45 81.2041 211.846 81.2676 212.29L81.2739 212.322H79.9473L79.9409 212.309C79.8647 211.971 79.6891 211.689 79.4141 211.465C79.139 211.236 78.7729 211.122 78.3159 211.122C77.9351 211.122 77.6071 211.219 77.332 211.414C77.057 211.604 76.8454 211.88 76.6973 212.239C76.5534 212.599 76.4814 213.026 76.4814 213.521V213.534C76.4814 214.042 76.5555 214.478 76.7036 214.842C76.8517 215.206 77.0633 215.487 77.3384 215.686C77.6134 215.881 77.9393 215.978 78.3159 215.978C78.7476 215.978 79.0967 215.883 79.3633 215.692C79.6341 215.502 79.8245 215.221 79.9346 214.848L79.9473 214.816L81.2676 214.81L81.2549 214.867C81.1745 215.316 81.0116 215.709 80.7661 216.048C80.5207 216.386 80.1927 216.653 79.7822 216.848C79.376 217.038 78.8872 217.133 78.3159 217.133ZM82.8926 217V207.402H84.27V211.147H84.3779C84.5472 210.779 84.7969 210.492 85.127 210.284C85.457 210.077 85.8739 209.973 86.3774 209.973C86.8895 209.973 87.3232 210.073 87.6787 210.271C88.0342 210.47 88.305 210.762 88.4912 211.147C88.6774 211.528 88.7705 211.992 88.7705 212.538V217H87.3867V212.861C87.3867 212.286 87.2661 211.858 87.0249 211.579C86.7879 211.296 86.4155 211.154 85.9077 211.154C85.5734 211.154 85.2835 211.228 85.0381 211.376C84.7926 211.52 84.6022 211.727 84.4668 211.998C84.3356 212.265 84.27 212.584 84.27 212.957V217H82.8926Z" fill="#1A1A1A"/>
<rect x="90" y="203" width="2" height="18" rx="1" fill="#0088FF"/>
<path d="M128 218.474C124.382 218.474 121.443 215.535 121.443 211.917C121.443 208.299 124.382 205.36 128 205.36C131.618 205.36 134.557 208.299 134.557 211.917C134.557 215.535 131.618 218.474 128 218.474ZM125.918 214.608C126.089 214.608 126.235 214.545 126.356 214.431L128 212.774L129.657 214.431C129.765 214.545 129.917 214.608 130.088 214.608C130.425 214.608 130.691 214.342 130.691 213.999C130.691 213.84 130.628 213.694 130.514 213.58L128.857 211.923L130.52 210.26C130.641 210.14 130.691 210 130.691 209.841C130.691 209.505 130.431 209.245 130.101 209.245C129.93 209.245 129.796 209.302 129.676 209.422L128 211.085L126.337 209.429C126.223 209.314 126.089 209.257 125.918 209.257C125.582 209.257 125.321 209.511 125.321 209.848C125.321 210.006 125.385 210.152 125.499 210.267L127.156 211.923L125.499 213.586C125.385 213.701 125.321 213.847 125.321 213.999C125.321 214.342 125.582 214.608 125.918 214.608Z" fill="#727272"/>
<g filter="url(#filter4_d_480_760)">
<rect x="20" y="160" width="120" height="24" rx="12" fill="white" style="mix-blend-mode:multiply" shape-rendering="crispEdges"/>
</g>
<rect x="20" y="160" width="120" height="24" rx="12" fill="white"/>
<path d="M29.7349 170.762C29.7349 167.912 32.0518 165.595 34.9019 165.595C37.752 165.595 40.0688 167.912 40.0688 170.762C40.0688 171.873 39.707 172.901 39.104 173.732L42.0049 176.64C42.1763 176.817 42.2651 177.052 42.2651 177.306C42.2651 177.833 41.8779 178.239 41.3384 178.239C41.0908 178.239 40.8433 178.157 40.6655 177.973L37.7456 175.053C36.9331 175.605 35.9619 175.929 34.9019 175.929C32.0518 175.929 29.7349 173.612 29.7349 170.762ZM31.0552 170.762C31.0552 172.888 32.7754 174.608 34.9019 174.608C37.0283 174.608 38.7485 172.888 38.7485 170.762C38.7485 168.635 37.0283 166.915 34.9019 166.915C32.7754 166.915 31.0552 168.635 31.0552 170.762Z" fill="black"/>
<path d="M50.2466 177.222C49.5568 177.222 48.9559 177.114 48.4438 176.898C47.9318 176.678 47.5277 176.374 47.2314 175.984C46.9352 175.595 46.766 175.144 46.7236 174.632L46.7173 174.55H48.1201L48.1265 174.62C48.1561 174.895 48.264 175.134 48.4502 175.337C48.6406 175.54 48.8945 175.699 49.2119 175.813C49.5335 175.927 49.8996 175.984 50.3101 175.984C50.6951 175.984 51.0379 175.923 51.3384 175.8C51.6388 175.678 51.8737 175.508 52.043 175.292C52.2165 175.077 52.3032 174.829 52.3032 174.55V174.543C52.3032 174.192 52.1699 173.9 51.9033 173.667C51.6367 173.435 51.2008 173.253 50.5957 173.122L49.5928 172.912C48.666 172.713 47.991 172.398 47.5679 171.966C47.1447 171.53 46.9331 170.974 46.9331 170.297V170.291C46.9373 169.762 47.0791 169.296 47.3584 168.894C47.6419 168.492 48.0334 168.179 48.5327 167.955C49.0321 167.73 49.6055 167.618 50.2529 167.618C50.9004 167.618 51.4653 167.73 51.9478 167.955C52.4344 168.175 52.8174 168.475 53.0967 168.856C53.3802 169.237 53.5389 169.666 53.5728 170.145L53.5791 170.227H52.189L52.1763 170.145C52.1382 169.895 52.0345 169.673 51.8652 169.478C51.7002 169.283 51.478 169.131 51.1987 169.021C50.9237 168.907 50.6021 168.852 50.2339 168.856C49.8784 168.856 49.561 168.911 49.2817 169.021C49.0024 169.127 48.7803 169.281 48.6152 169.484C48.4544 169.688 48.374 169.933 48.374 170.221V170.227C48.374 170.566 48.5031 170.849 48.7612 171.078C49.0236 171.302 49.4489 171.478 50.0371 171.604L51.04 171.827C51.679 171.962 52.1974 172.142 52.5952 172.366C52.993 172.59 53.2829 172.868 53.4648 173.198C53.651 173.524 53.7441 173.913 53.7441 174.366V174.372C53.7441 174.956 53.6003 175.462 53.3125 175.889C53.029 176.312 52.6248 176.64 52.1001 176.873C51.5754 177.106 50.9575 177.222 50.2466 177.222ZM58.3525 177.133C57.6797 177.133 57.1021 176.989 56.6196 176.702C56.1372 176.41 55.7648 175.997 55.5024 175.464C55.2443 174.931 55.1152 174.3 55.1152 173.572V173.566C55.1152 172.847 55.2443 172.218 55.5024 171.681C55.7648 171.143 56.133 170.724 56.6069 170.424C57.0851 170.123 57.6437 169.973 58.2827 169.973C58.9259 169.973 59.4782 170.117 59.9395 170.405C60.4049 170.693 60.7625 171.097 61.0122 171.617C61.2619 172.133 61.3867 172.739 61.3867 173.433V173.915H55.8135V172.931H60.7012L60.041 173.845V173.293C60.041 172.802 59.9648 172.396 59.8125 172.074C59.6644 171.748 59.4591 171.505 59.1968 171.344C58.9344 171.183 58.6318 171.103 58.2891 171.103C57.9463 171.103 57.6395 171.188 57.3687 171.357C57.1021 171.522 56.8905 171.767 56.7339 172.093C56.5815 172.419 56.5054 172.819 56.5054 173.293V173.845C56.5054 174.298 56.5815 174.685 56.7339 175.007C56.8862 175.328 57.1021 175.574 57.3813 175.743C57.6649 175.912 57.9992 175.997 58.3843 175.997C58.6805 175.997 58.9344 175.957 59.146 175.876C59.3618 175.792 59.5374 175.688 59.6729 175.565C59.8125 175.443 59.9077 175.322 59.9585 175.204L59.9839 175.153H61.3169L61.3042 175.21C61.245 175.438 61.1413 175.667 60.9932 175.896C60.8451 176.12 60.6483 176.325 60.4028 176.511C60.1616 176.697 59.8696 176.848 59.5269 176.962C59.1883 177.076 58.7969 177.133 58.3525 177.133ZM64.916 177.114C64.4801 177.114 64.0887 177.032 63.7417 176.867C63.3989 176.697 63.1281 176.458 62.9292 176.149C62.7303 175.84 62.6309 175.479 62.6309 175.064V175.051C62.6309 174.637 62.7303 174.283 62.9292 173.991C63.1323 173.699 63.4243 173.471 63.8052 173.306C64.1903 173.136 64.6558 173.035 65.2017 173.001L67.7471 172.849V173.82L65.3921 173.972C64.9181 174.002 64.569 174.103 64.3447 174.277C64.1204 174.446 64.0083 174.685 64.0083 174.994V175.007C64.0083 175.32 64.1289 175.568 64.3701 175.75C64.6113 175.927 64.916 176.016 65.2842 176.016C65.627 176.016 65.9316 175.948 66.1982 175.813C66.4691 175.673 66.6807 175.487 66.833 175.254C66.9854 175.017 67.0615 174.751 67.0615 174.455V172.284C67.0615 171.903 66.943 171.613 66.7061 171.414C66.4733 171.211 66.1263 171.109 65.665 171.109C65.2799 171.109 64.9647 171.177 64.7192 171.312C64.478 171.448 64.3172 171.638 64.2368 171.884L64.2241 171.903H62.8975L62.9038 171.858C62.9588 171.478 63.109 171.147 63.3545 170.868C63.6042 170.585 63.93 170.365 64.332 170.208C64.7383 170.051 65.2017 169.973 65.7222 169.973C66.3019 169.973 66.7928 170.066 67.1948 170.252C67.6011 170.434 67.9079 170.699 68.1152 171.046C68.3268 171.389 68.4326 171.801 68.4326 172.284V177H67.0615V176.022H66.96C66.8245 176.255 66.6553 176.454 66.4521 176.619C66.249 176.78 66.0184 176.903 65.7603 176.987C65.5021 177.072 65.2207 177.114 64.916 177.114ZM70.375 177V170.106H71.7524V171.147H71.8604C71.9831 170.779 72.1989 170.494 72.5078 170.291C72.821 170.087 73.2061 169.986 73.6631 169.986C73.7773 169.986 73.8895 169.992 73.9995 170.005C74.1095 170.018 74.1984 170.032 74.2661 170.049V171.319C74.1434 171.293 74.0207 171.274 73.8979 171.262C73.7795 171.249 73.6546 171.243 73.5234 171.243C73.1722 171.243 72.8633 171.31 72.5967 171.446C72.3343 171.581 72.127 171.772 71.9746 172.017C71.8265 172.258 71.7524 172.546 71.7524 172.88V177H70.375ZM78.3159 177.133C77.6473 177.133 77.0697 176.989 76.583 176.702C76.1006 176.41 75.7282 175.995 75.4658 175.458C75.2035 174.92 75.0723 174.279 75.0723 173.534V173.521C75.0723 172.789 75.2013 172.159 75.4595 171.63C75.7218 171.101 76.0942 170.693 76.5767 170.405C77.0633 170.117 77.641 169.973 78.3096 169.973C78.8893 169.973 79.3866 170.075 79.8013 170.278C80.2202 170.477 80.5524 170.752 80.7979 171.103C81.0475 171.45 81.2041 171.846 81.2676 172.29L81.2739 172.322H79.9473L79.9409 172.309C79.8647 171.971 79.6891 171.689 79.4141 171.465C79.139 171.236 78.7729 171.122 78.3159 171.122C77.9351 171.122 77.6071 171.219 77.332 171.414C77.057 171.604 76.8454 171.88 76.6973 172.239C76.5534 172.599 76.4814 173.026 76.4814 173.521V173.534C76.4814 174.042 76.5555 174.478 76.7036 174.842C76.8517 175.206 77.0633 175.487 77.3384 175.686C77.6134 175.881 77.9393 175.978 78.3159 175.978C78.7476 175.978 79.0967 175.883 79.3633 175.692C79.6341 175.502 79.8245 175.221 79.9346 174.848L79.9473 174.816L81.2676 174.81L81.2549 174.867C81.1745 175.316 81.0116 175.709 80.7661 176.048C80.5207 176.386 80.1927 176.653 79.7822 176.848C79.376 177.038 78.8872 177.133 78.3159 177.133ZM82.8926 177V167.402H84.27V171.147H84.3779C84.5472 170.779 84.7969 170.492 85.127 170.284C85.457 170.077 85.8739 169.973 86.3774 169.973C86.8895 169.973 87.3232 170.073 87.6787 170.271C88.0342 170.47 88.305 170.762 88.4912 171.147C88.6774 171.528 88.7705 171.992 88.7705 172.538V177H87.3867V172.861C87.3867 172.286 87.2661 171.858 87.0249 171.579C86.7879 171.296 86.4155 171.154 85.9077 171.154C85.5734 171.154 85.2835 171.228 85.0381 171.376C84.7926 171.52 84.6022 171.727 84.4668 171.998C84.3356 172.265 84.27 172.584 84.27 172.957V177H82.8926Z" fill="#1A1A1A"/>
<path d="M128 178.474C124.382 178.474 121.443 175.535 121.443 171.917C121.443 168.299 124.382 165.36 128 165.36C131.618 165.36 134.557 168.299 134.557 171.917C134.557 175.535 131.618 178.474 128 178.474ZM125.918 174.608C126.089 174.608 126.235 174.545 126.356 174.431L128 172.774L129.657 174.431C129.765 174.545 129.917 174.608 130.088 174.608C130.425 174.608 130.691 174.342 130.691 173.999C130.691 173.84 130.628 173.694 130.514 173.58L128.857 171.923L130.52 170.26C130.641 170.14 130.691 170 130.691 169.841C130.691 169.505 130.431 169.245 130.101 169.245C129.93 169.245 129.796 169.302 129.676 169.422L128 171.085L126.337 169.429C126.223 169.314 126.089 169.257 125.918 169.257C125.582 169.257 125.321 169.511 125.321 169.848C125.321 170.006 125.385 170.152 125.499 170.267L127.156 171.923L125.499 173.586C125.385 173.701 125.321 173.847 125.321 173.999C125.321 174.342 125.582 174.608 125.918 174.608Z" fill="#727272"/>
<g style="mix-blend-mode:plus-darker" filter="url(#filter5_d_480_760)">
<rect x="20" y="100" width="120" height="24" rx="12" fill="white" style="mix-blend-mode:multiply" shape-rendering="crispEdges"/>
</g>
<g opacity="0.5">
<rect x="20" y="100" width="120" height="24" rx="12" fill="white"/>
</g>
<path d="M29.7349 110.762C29.7349 107.912 32.0518 105.595 34.9019 105.595C37.752 105.595 40.0688 107.912 40.0688 110.762C40.0688 111.873 39.707 112.901 39.104 113.732L42.0049 116.64C42.1763 116.817 42.2651 117.052 42.2651 117.306C42.2651 117.833 41.8779 118.239 41.3384 118.239C41.0908 118.239 40.8433 118.157 40.6655 117.973L37.7456 115.053C36.9331 115.605 35.9619 115.929 34.9019 115.929C32.0518 115.929 29.7349 113.612 29.7349 110.762ZM31.0552 110.762C31.0552 112.888 32.7754 114.608 34.9019 114.608C37.0283 114.608 38.7485 112.888 38.7485 110.762C38.7485 108.635 37.0283 106.915 34.9019 106.915C32.7754 106.915 31.0552 108.635 31.0552 110.762Z" fill="black"/>
<path d="M50.2466 117.222C49.5568 117.222 48.9559 117.114 48.4438 116.898C47.9318 116.678 47.5277 116.374 47.2314 115.984C46.9352 115.595 46.766 115.144 46.7236 114.632L46.7173 114.55H48.1201L48.1265 114.62C48.1561 114.895 48.264 115.134 48.4502 115.337C48.6406 115.54 48.8945 115.699 49.2119 115.813C49.5335 115.927 49.8996 115.984 50.3101 115.984C50.6951 115.984 51.0379 115.923 51.3384 115.8C51.6388 115.678 51.8737 115.508 52.043 115.292C52.2165 115.077 52.3032 114.829 52.3032 114.55V114.543C52.3032 114.192 52.1699 113.9 51.9033 113.667C51.6367 113.435 51.2008 113.253 50.5957 113.122L49.5928 112.912C48.666 112.713 47.991 112.398 47.5679 111.966C47.1447 111.53 46.9331 110.974 46.9331 110.297V110.291C46.9373 109.762 47.0791 109.296 47.3584 108.894C47.6419 108.492 48.0334 108.179 48.5327 107.955C49.0321 107.73 49.6055 107.618 50.2529 107.618C50.9004 107.618 51.4653 107.73 51.9478 107.955C52.4344 108.175 52.8174 108.475 53.0967 108.856C53.3802 109.237 53.5389 109.666 53.5728 110.145L53.5791 110.227H52.189L52.1763 110.145C52.1382 109.895 52.0345 109.673 51.8652 109.478C51.7002 109.283 51.478 109.131 51.1987 109.021C50.9237 108.907 50.6021 108.852 50.2339 108.856C49.8784 108.856 49.561 108.911 49.2817 109.021C49.0024 109.127 48.7803 109.281 48.6152 109.484C48.4544 109.688 48.374 109.933 48.374 110.221V110.227C48.374 110.566 48.5031 110.849 48.7612 111.078C49.0236 111.302 49.4489 111.478 50.0371 111.604L51.04 111.827C51.679 111.962 52.1974 112.142 52.5952 112.366C52.993 112.59 53.2829 112.868 53.4648 113.198C53.651 113.524 53.7441 113.913 53.7441 114.366V114.372C53.7441 114.956 53.6003 115.462 53.3125 115.889C53.029 116.312 52.6248 116.64 52.1001 116.873C51.5754 117.106 50.9575 117.222 50.2466 117.222ZM58.3525 117.133C57.6797 117.133 57.1021 116.989 56.6196 116.702C56.1372 116.41 55.7648 115.997 55.5024 115.464C55.2443 114.931 55.1152 114.3 55.1152 113.572V113.566C55.1152 112.847 55.2443 112.218 55.5024 111.681C55.7648 111.143 56.133 110.724 56.6069 110.424C57.0851 110.123 57.6437 109.973 58.2827 109.973C58.9259 109.973 59.4782 110.117 59.9395 110.405C60.4049 110.693 60.7625 111.097 61.0122 111.617C61.2619 112.133 61.3867 112.739 61.3867 113.433V113.915H55.8135V112.931H60.7012L60.041 113.845V113.293C60.041 112.802 59.9648 112.396 59.8125 112.074C59.6644 111.748 59.4591 111.505 59.1968 111.344C58.9344 111.183 58.6318 111.103 58.2891 111.103C57.9463 111.103 57.6395 111.188 57.3687 111.357C57.1021 111.522 56.8905 111.767 56.7339 112.093C56.5815 112.419 56.5054 112.819 56.5054 113.293V113.845C56.5054 114.298 56.5815 114.685 56.7339 115.007C56.8862 115.328 57.1021 115.574 57.3813 115.743C57.6649 115.912 57.9992 115.997 58.3843 115.997C58.6805 115.997 58.9344 115.957 59.146 115.876C59.3618 115.792 59.5374 115.688 59.6729 115.565C59.8125 115.443 59.9077 115.322 59.9585 115.204L59.9839 115.153H61.3169L61.3042 115.21C61.245 115.438 61.1413 115.667 60.9932 115.896C60.8451 116.12 60.6483 116.325 60.4028 116.511C60.1616 116.697 59.8696 116.848 59.5269 116.962C59.1883 117.076 58.7969 117.133 58.3525 117.133ZM64.916 117.114C64.4801 117.114 64.0887 117.032 63.7417 116.867C63.3989 116.697 63.1281 116.458 62.9292 116.149C62.7303 115.84 62.6309 115.479 62.6309 115.064V115.051C62.6309 114.637 62.7303 114.283 62.9292 113.991C63.1323 113.699 63.4243 113.471 63.8052 113.306C64.1903 113.136 64.6558 113.035 65.2017 113.001L67.7471 112.849V113.82L65.3921 113.972C64.9181 114.002 64.569 114.103 64.3447 114.277C64.1204 114.446 64.0083 114.685 64.0083 114.994V115.007C64.0083 115.32 64.1289 115.568 64.3701 115.75C64.6113 115.927 64.916 116.016 65.2842 116.016C65.627 116.016 65.9316 115.948 66.1982 115.813C66.4691 115.673 66.6807 115.487 66.833 115.254C66.9854 115.017 67.0615 114.751 67.0615 114.455V112.284C67.0615 111.903 66.943 111.613 66.7061 111.414C66.4733 111.211 66.1263 111.109 65.665 111.109C65.2799 111.109 64.9647 111.177 64.7192 111.312C64.478 111.448 64.3172 111.638 64.2368 111.884L64.2241 111.903H62.8975L62.9038 111.858C62.9588 111.478 63.109 111.147 63.3545 110.868C63.6042 110.585 63.93 110.365 64.332 110.208C64.7383 110.051 65.2017 109.973 65.7222 109.973C66.3019 109.973 66.7928 110.066 67.1948 110.252C67.6011 110.434 67.9079 110.699 68.1152 111.046C68.3268 111.389 68.4326 111.801 68.4326 112.284V117H67.0615V116.022H66.96C66.8245 116.255 66.6553 116.454 66.4521 116.619C66.249 116.78 66.0184 116.903 65.7603 116.987C65.5021 117.072 65.2207 117.114 64.916 117.114ZM70.375 117V110.106H71.7524V111.147H71.8604C71.9831 110.779 72.1989 110.494 72.5078 110.291C72.821 110.087 73.2061 109.986 73.6631 109.986C73.7773 109.986 73.8895 109.992 73.9995 110.005C74.1095 110.018 74.1984 110.032 74.2661 110.049V111.319C74.1434 111.293 74.0207 111.274 73.8979 111.262C73.7795 111.249 73.6546 111.243 73.5234 111.243C73.1722 111.243 72.8633 111.31 72.5967 111.446C72.3343 111.581 72.127 111.772 71.9746 112.017C71.8265 112.258 71.7524 112.546 71.7524 112.88V117H70.375ZM78.3159 117.133C77.6473 117.133 77.0697 116.989 76.583 116.702C76.1006 116.41 75.7282 115.995 75.4658 115.458C75.2035 114.92 75.0723 114.279 75.0723 113.534V113.521C75.0723 112.789 75.2013 112.159 75.4595 111.63C75.7218 111.101 76.0942 110.693 76.5767 110.405C77.0633 110.117 77.641 109.973 78.3096 109.973C78.8893 109.973 79.3866 110.075 79.8013 110.278C80.2202 110.477 80.5524 110.752 80.7979 111.103C81.0475 111.45 81.2041 111.846 81.2676 112.29L81.2739 112.322H79.9473L79.9409 112.309C79.8647 111.971 79.6891 111.689 79.4141 111.465C79.139 111.236 78.7729 111.122 78.3159 111.122C77.9351 111.122 77.6071 111.219 77.332 111.414C77.057 111.604 76.8454 111.88 76.6973 112.239C76.5534 112.599 76.4814 113.026 76.4814 113.521V113.534C76.4814 114.042 76.5555 114.478 76.7036 114.842C76.8517 115.206 77.0633 115.487 77.3384 115.686C77.6134 115.881 77.9393 115.978 78.3159 115.978C78.7476 115.978 79.0967 115.883 79.3633 115.692C79.6341 115.502 79.8245 115.221 79.9346 114.848L79.9473 114.816L81.2676 114.81L81.2549 114.867C81.1745 115.316 81.0116 115.709 80.7661 116.048C80.5207 116.386 80.1927 116.653 79.7822 116.848C79.376 117.038 78.8872 117.133 78.3159 117.133ZM82.8926 117V107.402H84.27V111.147H84.3779C84.5472 110.779 84.7969 110.492 85.127 110.284C85.457 110.077 85.8739 109.973 86.3774 109.973C86.8895 109.973 87.3232 110.073 87.6787 110.271C88.0342 110.47 88.305 110.762 88.4912 111.147C88.6774 111.528 88.7705 111.992 88.7705 112.538V117H87.3867V112.861C87.3867 112.286 87.2661 111.858 87.0249 111.579C86.7879 111.296 86.4155 111.154 85.9077 111.154C85.5734 111.154 85.2835 111.228 85.0381 111.376C84.7926 111.52 84.6022 111.727 84.4668 111.998C84.3356 112.265 84.27 112.584 84.27 112.957V117H82.8926Z" fill="#1A1A1A"/>
<path d="M128 118.474C124.382 118.474 121.443 115.535 121.443 111.917C121.443 108.299 124.382 105.36 128 105.36C131.618 105.36 134.557 108.299 134.557 111.917C134.557 115.535 131.618 118.474 128 118.474ZM125.918 114.608C126.089 114.608 126.235 114.545 126.356 114.431L128 112.774L129.657 114.431C129.765 114.545 129.917 114.608 130.088 114.608C130.425 114.608 130.691 114.342 130.691 113.999C130.691 113.84 130.628 113.694 130.514 113.58L128.857 111.923L130.52 110.26C130.641 110.14 130.691 110 130.691 109.841C130.691 109.505 130.431 109.245 130.101 109.245C129.93 109.245 129.796 109.302 129.676 109.422L128 111.085L126.337 109.429C126.223 109.314 126.089 109.257 125.918 109.257C125.582 109.257 125.321 109.511 125.321 109.848C125.321 110.006 125.385 110.152 125.499 110.267L127.156 111.923L125.499 113.586C125.385 113.701 125.321 113.847 125.321 113.999C125.321 114.342 125.582 114.608 125.918 114.608Z" fill="#727272"/>
<g style="mix-blend-mode:plus-darker" filter="url(#filter6_d_480_760)">
<rect x="20" y="60" width="120" height="24" rx="12" fill="white" style="mix-blend-mode:multiply" shape-rendering="crispEdges"/>
</g>
<g style="mix-blend-mode:plus-darker" filter="url(#filter7_d_480_760)">
<rect x="20" y="60" width="120" height="24" rx="12" fill="white" style="mix-blend-mode:multiply" shape-rendering="crispEdges"/>
</g>
<g style="mix-blend-mode:plus-darker" filter="url(#filter8_d_480_760)">
<rect x="20" y="60" width="120" height="24" rx="12" fill="white" style="mix-blend-mode:multiply" shape-rendering="crispEdges"/>
</g>
<rect x="20" y="60" width="120" height="24" rx="12" fill="white"/>
<path d="M29.7349 70.7617C29.7349 67.9116 32.0518 65.5947 34.9019 65.5947C37.752 65.5947 40.0688 67.9116 40.0688 70.7617C40.0688 71.8726 39.707 72.9009 39.104 73.7324L42.0049 76.6396C42.1763 76.8174 42.2651 77.0522 42.2651 77.3062C42.2651 77.833 41.8779 78.2393 41.3384 78.2393C41.0908 78.2393 40.8433 78.1567 40.6655 77.9727L37.7456 75.0527C36.9331 75.605 35.9619 75.9287 34.9019 75.9287C32.0518 75.9287 29.7349 73.6118 29.7349 70.7617ZM31.0552 70.7617C31.0552 72.8882 32.7754 74.6084 34.9019 74.6084C37.0283 74.6084 38.7485 72.8882 38.7485 70.7617C38.7485 68.6353 37.0283 66.915 34.9019 66.915C32.7754 66.915 31.0552 68.6353 31.0552 70.7617Z" fill="black"/>
<rect x="46" y="63" width="2" height="18" rx="1" fill="#0088FF"/>
<path d="M52.2466 77.2222C51.5568 77.2222 50.9559 77.1143 50.4438 76.8984C49.9318 76.6784 49.5277 76.3737 49.2314 75.9844C48.9352 75.5951 48.766 75.1444 48.7236 74.6323L48.7173 74.5498H50.1201L50.1265 74.6196C50.1561 74.8947 50.264 75.1338 50.4502 75.3369C50.6406 75.54 50.8945 75.6987 51.2119 75.813C51.5335 75.9272 51.8996 75.9844 52.3101 75.9844C52.6951 75.9844 53.0379 75.923 53.3384 75.8003C53.6388 75.6776 53.8737 75.5083 54.043 75.2925C54.2165 75.0767 54.3032 74.8291 54.3032 74.5498V74.5435C54.3032 74.1922 54.1699 73.9002 53.9033 73.6675C53.6367 73.4347 53.2008 73.2528 52.5957 73.1216L51.5928 72.9121C50.666 72.7132 49.991 72.3979 49.5679 71.9663C49.1447 71.5304 48.9331 70.974 48.9331 70.2969V70.2905C48.9373 69.7616 49.0791 69.2961 49.3584 68.894C49.6419 68.492 50.0334 68.1789 50.5327 67.9546C51.0321 67.7303 51.6055 67.6182 52.2529 67.6182C52.9004 67.6182 53.4653 67.7303 53.9478 67.9546C54.4344 68.1746 54.8174 68.4751 55.0967 68.856C55.3802 69.2368 55.5389 69.6663 55.5728 70.1445L55.5791 70.2271H54.189L54.1763 70.1445C54.1382 69.8949 54.0345 69.6727 53.8652 69.478C53.7002 69.2834 53.478 69.131 53.1987 69.021C52.9237 68.9067 52.6021 68.8517 52.2339 68.856C51.8784 68.856 51.561 68.911 51.2817 69.021C51.0024 69.1268 50.7803 69.2812 50.6152 69.4844C50.4544 69.6875 50.374 69.9329 50.374 70.2207V70.2271C50.374 70.5656 50.5031 70.8491 50.7612 71.0776C51.0236 71.3019 51.4489 71.4775 52.0371 71.6045L53.04 71.8267C53.679 71.9621 54.1974 72.1419 54.5952 72.3662C54.993 72.5905 55.2829 72.8677 55.4648 73.1978C55.651 73.5236 55.7441 73.9129 55.7441 74.3657V74.3721C55.7441 74.9561 55.6003 75.4618 55.3125 75.8892C55.029 76.3123 54.6248 76.6403 54.1001 76.873C53.5754 77.1058 52.9575 77.2222 52.2466 77.2222ZM60.3525 77.1333C59.6797 77.1333 59.1021 76.9894 58.6196 76.7017C58.1372 76.4097 57.7648 75.9971 57.5024 75.4639C57.2443 74.9307 57.1152 74.3001 57.1152 73.5723V73.5659C57.1152 72.8465 57.2443 72.2181 57.5024 71.6807C57.7648 71.1432 58.133 70.7243 58.6069 70.4238C59.0851 70.1234 59.6437 69.9731 60.2827 69.9731C60.9259 69.9731 61.4782 70.117 61.9395 70.4048C62.4049 70.6925 62.7625 71.0967 63.0122 71.6172C63.2619 72.1335 63.3867 72.7386 63.3867 73.4326V73.915H57.8135V72.9312H62.7012L62.041 73.8452V73.293C62.041 72.8021 61.9648 72.3958 61.8125 72.0742C61.6644 71.7484 61.4591 71.505 61.1968 71.3442C60.9344 71.1834 60.6318 71.103 60.2891 71.103C59.9463 71.103 59.6395 71.1877 59.3687 71.3569C59.1021 71.522 58.8905 71.7674 58.7339 72.0933C58.5815 72.4191 58.5054 72.819 58.5054 73.293V73.8452C58.5054 74.298 58.5815 74.6852 58.7339 75.0068C58.8862 75.3285 59.1021 75.5739 59.3813 75.7432C59.6649 75.9124 59.9992 75.9971 60.3843 75.9971C60.6805 75.9971 60.9344 75.9569 61.146 75.8765C61.3618 75.7918 61.5374 75.6882 61.6729 75.5654C61.8125 75.4427 61.9077 75.3221 61.9585 75.2036L61.9839 75.1528H63.3169L63.3042 75.21C63.245 75.4385 63.1413 75.667 62.9932 75.8955C62.8451 76.1198 62.6483 76.325 62.4028 76.5112C62.1616 76.6974 61.8696 76.8477 61.5269 76.9619C61.1883 77.0762 60.7969 77.1333 60.3525 77.1333ZM66.916 77.1143C66.4801 77.1143 66.0887 77.0317 65.7417 76.8667C65.3989 76.6974 65.1281 76.4583 64.9292 76.1494C64.7303 75.8405 64.6309 75.4787 64.6309 75.064V75.0513C64.6309 74.6366 64.7303 74.2832 64.9292 73.9912C65.1323 73.6992 65.4243 73.4707 65.8052 73.3057C66.1903 73.1364 66.6558 73.0348 67.2017 73.001L69.7471 72.8486V73.8198L67.3921 73.9722C66.9181 74.0018 66.569 74.1034 66.3447 74.2769C66.1204 74.4461 66.0083 74.6852 66.0083 74.9941V75.0068C66.0083 75.32 66.1289 75.5675 66.3701 75.7495C66.6113 75.9272 66.916 76.0161 67.2842 76.0161C67.627 76.0161 67.9316 75.9484 68.1982 75.813C68.4691 75.6733 68.6807 75.4871 68.833 75.2544C68.9854 75.0174 69.0615 74.7508 69.0615 74.4546V72.2837C69.0615 71.9028 68.943 71.613 68.7061 71.4141C68.4733 71.2109 68.1263 71.1094 67.665 71.1094C67.2799 71.1094 66.9647 71.1771 66.7192 71.3125C66.478 71.4479 66.3172 71.6383 66.2368 71.8838L66.2241 71.9028H64.8975L64.9038 71.8584C64.9588 71.4775 65.109 71.1475 65.3545 70.8682C65.6042 70.5846 65.93 70.3646 66.332 70.208C66.7383 70.0514 67.2017 69.9731 67.7222 69.9731C68.3019 69.9731 68.7928 70.0662 69.1948 70.2524C69.6011 70.4344 69.9079 70.6989 70.1152 71.0459C70.3268 71.3887 70.4326 71.8013 70.4326 72.2837V77H69.0615V76.0225H68.96C68.8245 76.2552 68.6553 76.4541 68.4521 76.6191C68.249 76.7799 68.0184 76.9027 67.7603 76.9873C67.5021 77.0719 67.2207 77.1143 66.916 77.1143ZM72.375 77V70.1064H73.7524V71.1475H73.8604C73.9831 70.7793 74.1989 70.4937 74.5078 70.2905C74.821 70.0874 75.2061 69.9858 75.6631 69.9858C75.7773 69.9858 75.8895 69.9922 75.9995 70.0049C76.1095 70.0176 76.1984 70.0324 76.2661 70.0493V71.3188C76.1434 71.2935 76.0207 71.2744 75.8979 71.2617C75.7795 71.249 75.6546 71.2427 75.5234 71.2427C75.1722 71.2427 74.8633 71.3104 74.5967 71.4458C74.3343 71.5812 74.127 71.7716 73.9746 72.0171C73.8265 72.2583 73.7524 72.5461 73.7524 72.8804V77H72.375ZM80.3159 77.1333C79.6473 77.1333 79.0697 76.9894 78.583 76.7017C78.1006 76.4097 77.7282 75.995 77.4658 75.4575C77.2035 74.9201 77.0723 74.279 77.0723 73.5342V73.5215C77.0723 72.7894 77.2013 72.1589 77.4595 71.6299C77.7218 71.1009 78.0942 70.6925 78.5767 70.4048C79.0633 70.117 79.641 69.9731 80.3096 69.9731C80.8893 69.9731 81.3866 70.0747 81.8013 70.2778C82.2202 70.4767 82.5524 70.7518 82.7979 71.103C83.0475 71.45 83.2041 71.8457 83.2676 72.29L83.2739 72.3218H81.9473L81.9409 72.3091C81.8647 71.9705 81.6891 71.6891 81.4141 71.4648C81.139 71.2363 80.7729 71.1221 80.3159 71.1221C79.9351 71.1221 79.6071 71.2194 79.332 71.4141C79.057 71.6045 78.8454 71.8796 78.6973 72.2393C78.5534 72.599 78.4814 73.0264 78.4814 73.5215V73.5342C78.4814 74.042 78.5555 74.4779 78.7036 74.8418C78.8517 75.2057 79.0633 75.4871 79.3384 75.686C79.6134 75.8807 79.9393 75.978 80.3159 75.978C80.7476 75.978 81.0967 75.8828 81.3633 75.6924C81.6341 75.502 81.8245 75.2205 81.9346 74.8481L81.9473 74.8164L83.2676 74.8101L83.2549 74.8672C83.1745 75.3158 83.0116 75.7093 82.7661 76.0479C82.5207 76.3864 82.1927 76.653 81.7822 76.8477C81.376 77.0381 80.8872 77.1333 80.3159 77.1333ZM84.8926 77V67.4023H86.27V71.1475H86.3779C86.5472 70.7793 86.7969 70.4915 87.127 70.2842C87.457 70.0768 87.8739 69.9731 88.3774 69.9731C88.8895 69.9731 89.3232 70.0726 89.6787 70.2715C90.0342 70.4704 90.305 70.7624 90.4912 71.1475C90.6774 71.5283 90.7705 71.9917 90.7705 72.5376V77H89.3867V72.8613C89.3867 72.2858 89.2661 71.8584 89.0249 71.5791C88.7879 71.2956 88.4155 71.1538 87.9077 71.1538C87.5734 71.1538 87.2835 71.2279 87.0381 71.376C86.7926 71.5199 86.6022 71.7272 86.4668 71.998C86.3356 72.2646 86.27 72.5841 86.27 72.9565V77H84.8926Z" fill="#1A1A1A"/>
<path d="M128 78.4741C124.382 78.4741 121.443 75.5352 121.443 71.917C121.443 68.2988 124.382 65.3599 128 65.3599C131.618 65.3599 134.557 68.2988 134.557 71.917C134.557 75.5352 131.618 78.4741 128 78.4741ZM125.918 74.6084C126.089 74.6084 126.235 74.5449 126.356 74.4307L128 72.7739L129.657 74.4307C129.765 74.5449 129.917 74.6084 130.088 74.6084C130.425 74.6084 130.691 74.3418 130.691 73.999C130.691 73.8403 130.628 73.6943 130.514 73.5801L128.857 71.9233L130.52 70.2603C130.641 70.1396 130.691 70 130.691 69.8413C130.691 69.5049 130.431 69.2446 130.101 69.2446C129.93 69.2446 129.796 69.3018 129.676 69.4224L128 71.0854L126.337 69.4287C126.223 69.3145 126.089 69.2573 125.918 69.2573C125.582 69.2573 125.321 69.5112 125.321 69.8477C125.321 70.0063 125.385 70.1523 125.499 70.2666L127.156 71.9233L125.499 73.5864C125.385 73.7007 125.321 73.8467 125.321 73.999C125.321 74.3418 125.582 74.6084 125.918 74.6084Z" fill="#727272"/>
<g filter="url(#filter9_d_480_760)">
<rect x="20" y="20" width="120" height="24" rx="12" fill="white" style="mix-blend-mode:multiply" shape-rendering="crispEdges"/>
</g>
<rect x="20" y="20" width="120" height="24" rx="12" fill="white"/>
<path d="M29.7349 30.7617C29.7349 27.9116 32.0518 25.5947 34.9019 25.5947C37.752 25.5947 40.0688 27.9116 40.0688 30.7617C40.0688 31.8726 39.707 32.9009 39.104 33.7324L42.0049 36.6396C42.1763 36.8174 42.2651 37.0522 42.2651 37.3062C42.2651 37.833 41.8779 38.2393 41.3384 38.2393C41.0908 38.2393 40.8433 38.1567 40.6655 37.9727L37.7456 35.0527C36.9331 35.605 35.9619 35.9287 34.9019 35.9287C32.0518 35.9287 29.7349 33.6118 29.7349 30.7617ZM31.0552 30.7617C31.0552 32.8882 32.7754 34.6084 34.9019 34.6084C37.0283 34.6084 38.7485 32.8882 38.7485 30.7617C38.7485 28.6353 37.0283 26.915 34.9019 26.915C32.7754 26.915 31.0552 28.6353 31.0552 30.7617Z" fill="black"/>
<path d="M50.2466 37.2222C49.5568 37.2222 48.9559 37.1143 48.4438 36.8984C47.9318 36.6784 47.5277 36.3737 47.2314 35.9844C46.9352 35.5951 46.766 35.1444 46.7236 34.6323L46.7173 34.5498H48.1201L48.1265 34.6196C48.1561 34.8947 48.264 35.1338 48.4502 35.3369C48.6406 35.54 48.8945 35.6987 49.2119 35.813C49.5335 35.9272 49.8996 35.9844 50.3101 35.9844C50.6951 35.9844 51.0379 35.923 51.3384 35.8003C51.6388 35.6776 51.8737 35.5083 52.043 35.2925C52.2165 35.0767 52.3032 34.8291 52.3032 34.5498V34.5435C52.3032 34.1922 52.1699 33.9002 51.9033 33.6675C51.6367 33.4347 51.2008 33.2528 50.5957 33.1216L49.5928 32.9121C48.666 32.7132 47.991 32.3979 47.5679 31.9663C47.1447 31.5304 46.9331 30.974 46.9331 30.2969V30.2905C46.9373 29.7616 47.0791 29.2961 47.3584 28.894C47.6419 28.492 48.0334 28.1789 48.5327 27.9546C49.0321 27.7303 49.6055 27.6182 50.2529 27.6182C50.9004 27.6182 51.4653 27.7303 51.9478 27.9546C52.4344 28.1746 52.8174 28.4751 53.0967 28.856C53.3802 29.2368 53.5389 29.6663 53.5728 30.1445L53.5791 30.2271H52.189L52.1763 30.1445C52.1382 29.8949 52.0345 29.6727 51.8652 29.478C51.7002 29.2834 51.478 29.131 51.1987 29.021C50.9237 28.9067 50.6021 28.8517 50.2339 28.856C49.8784 28.856 49.561 28.911 49.2817 29.021C49.0024 29.1268 48.7803 29.2812 48.6152 29.4844C48.4544 29.6875 48.374 29.9329 48.374 30.2207V30.2271C48.374 30.5656 48.5031 30.8491 48.7612 31.0776C49.0236 31.3019 49.4489 31.4775 50.0371 31.6045L51.04 31.8267C51.679 31.9621 52.1974 32.1419 52.5952 32.3662C52.993 32.5905 53.2829 32.8677 53.4648 33.1978C53.651 33.5236 53.7441 33.9129 53.7441 34.3657V34.3721C53.7441 34.9561 53.6003 35.4618 53.3125 35.8892C53.029 36.3123 52.6248 36.6403 52.1001 36.873C51.5754 37.1058 50.9575 37.2222 50.2466 37.2222ZM58.3525 37.1333C57.6797 37.1333 57.1021 36.9894 56.6196 36.7017C56.1372 36.4097 55.7648 35.9971 55.5024 35.4639C55.2443 34.9307 55.1152 34.3001 55.1152 33.5723V33.5659C55.1152 32.8465 55.2443 32.2181 55.5024 31.6807C55.7648 31.1432 56.133 30.7243 56.6069 30.4238C57.0851 30.1234 57.6437 29.9731 58.2827 29.9731C58.9259 29.9731 59.4782 30.117 59.9395 30.4048C60.4049 30.6925 60.7625 31.0967 61.0122 31.6172C61.2619 32.1335 61.3867 32.7386 61.3867 33.4326V33.915H55.8135V32.9312H60.7012L60.041 33.8452V33.293C60.041 32.8021 59.9648 32.3958 59.8125 32.0742C59.6644 31.7484 59.4591 31.505 59.1968 31.3442C58.9344 31.1834 58.6318 31.103 58.2891 31.103C57.9463 31.103 57.6395 31.1877 57.3687 31.3569C57.1021 31.522 56.8905 31.7674 56.7339 32.0933C56.5815 32.4191 56.5054 32.819 56.5054 33.293V33.8452C56.5054 34.298 56.5815 34.6852 56.7339 35.0068C56.8862 35.3285 57.1021 35.5739 57.3813 35.7432C57.6649 35.9124 57.9992 35.9971 58.3843 35.9971C58.6805 35.9971 58.9344 35.9569 59.146 35.8765C59.3618 35.7918 59.5374 35.6882 59.6729 35.5654C59.8125 35.4427 59.9077 35.3221 59.9585 35.2036L59.9839 35.1528H61.3169L61.3042 35.21C61.245 35.4385 61.1413 35.667 60.9932 35.8955C60.8451 36.1198 60.6483 36.325 60.4028 36.5112C60.1616 36.6974 59.8696 36.8477 59.5269 36.9619C59.1883 37.0762 58.7969 37.1333 58.3525 37.1333ZM64.916 37.1143C64.4801 37.1143 64.0887 37.0317 63.7417 36.8667C63.3989 36.6974 63.1281 36.4583 62.9292 36.1494C62.7303 35.8405 62.6309 35.4787 62.6309 35.064V35.0513C62.6309 34.6366 62.7303 34.2832 62.9292 33.9912C63.1323 33.6992 63.4243 33.4707 63.8052 33.3057C64.1903 33.1364 64.6558 33.0348 65.2017 33.001L67.7471 32.8486V33.8198L65.3921 33.9722C64.9181 34.0018 64.569 34.1034 64.3447 34.2769C64.1204 34.4461 64.0083 34.6852 64.0083 34.9941V35.0068C64.0083 35.32 64.1289 35.5675 64.3701 35.7495C64.6113 35.9272 64.916 36.0161 65.2842 36.0161C65.627 36.0161 65.9316 35.9484 66.1982 35.813C66.4691 35.6733 66.6807 35.4871 66.833 35.2544C66.9854 35.0174 67.0615 34.7508 67.0615 34.4546V32.2837C67.0615 31.9028 66.943 31.613 66.7061 31.4141C66.4733 31.2109 66.1263 31.1094 65.665 31.1094C65.2799 31.1094 64.9647 31.1771 64.7192 31.3125C64.478 31.4479 64.3172 31.6383 64.2368 31.8838L64.2241 31.9028H62.8975L62.9038 31.8584C62.9588 31.4775 63.109 31.1475 63.3545 30.8682C63.6042 30.5846 63.93 30.3646 64.332 30.208C64.7383 30.0514 65.2017 29.9731 65.7222 29.9731C66.3019 29.9731 66.7928 30.0662 67.1948 30.2524C67.6011 30.4344 67.9079 30.6989 68.1152 31.0459C68.3268 31.3887 68.4326 31.8013 68.4326 32.2837V37H67.0615V36.0225H66.96C66.8245 36.2552 66.6553 36.4541 66.4521 36.6191C66.249 36.7799 66.0184 36.9027 65.7603 36.9873C65.5021 37.0719 65.2207 37.1143 64.916 37.1143ZM70.375 37V30.1064H71.7524V31.1475H71.8604C71.9831 30.7793 72.1989 30.4937 72.5078 30.2905C72.821 30.0874 73.2061 29.9858 73.6631 29.9858C73.7773 29.9858 73.8895 29.9922 73.9995 30.0049C74.1095 30.0176 74.1984 30.0324 74.2661 30.0493V31.3188C74.1434 31.2935 74.0207 31.2744 73.8979 31.2617C73.7795 31.249 73.6546 31.2427 73.5234 31.2427C73.1722 31.2427 72.8633 31.3104 72.5967 31.4458C72.3343 31.5812 72.127 31.7716 71.9746 32.0171C71.8265 32.2583 71.7524 32.5461 71.7524 32.8804V37H70.375ZM78.3159 37.1333C77.6473 37.1333 77.0697 36.9894 76.583 36.7017C76.1006 36.4097 75.7282 35.995 75.4658 35.4575C75.2035 34.9201 75.0723 34.279 75.0723 33.5342V33.5215C75.0723 32.7894 75.2013 32.1589 75.4595 31.6299C75.7218 31.1009 76.0942 30.6925 76.5767 30.4048C77.0633 30.117 77.641 29.9731 78.3096 29.9731C78.8893 29.9731 79.3866 30.0747 79.8013 30.2778C80.2202 30.4767 80.5524 30.7518 80.7979 31.103C81.0475 31.45 81.2041 31.8457 81.2676 32.29L81.2739 32.3218H79.9473L79.9409 32.3091C79.8647 31.9705 79.6891 31.6891 79.4141 31.4648C79.139 31.2363 78.7729 31.1221 78.3159 31.1221C77.9351 31.1221 77.6071 31.2194 77.332 31.4141C77.057 31.6045 76.8454 31.8796 76.6973 32.2393C76.5534 32.599 76.4814 33.0264 76.4814 33.5215V33.5342C76.4814 34.042 76.5555 34.4779 76.7036 34.8418C76.8517 35.2057 77.0633 35.4871 77.3384 35.686C77.6134 35.8807 77.9393 35.978 78.3159 35.978C78.7476 35.978 79.0967 35.8828 79.3633 35.6924C79.6341 35.502 79.8245 35.2205 79.9346 34.8481L79.9473 34.8164L81.2676 34.8101L81.2549 34.8672C81.1745 35.3158 81.0116 35.7093 80.7661 36.0479C80.5207 36.3864 80.1927 36.653 79.7822 36.8477C79.376 37.0381 78.8872 37.1333 78.3159 37.1333ZM82.8926 37V27.4023H84.27V31.1475H84.3779C84.5472 30.7793 84.7969 30.4915 85.127 30.2842C85.457 30.0768 85.8739 29.9731 86.3774 29.9731C86.8895 29.9731 87.3232 30.0726 87.6787 30.2715C88.0342 30.4704 88.305 30.7624 88.4912 31.1475C88.6774 31.5283 88.7705 31.9917 88.7705 32.5376V37H87.3867V32.8613C87.3867 32.2858 87.2661 31.8584 87.0249 31.5791C86.7879 31.2956 86.4155 31.1538 85.9077 31.1538C85.5734 31.1538 85.2835 31.2279 85.0381 31.376C84.7926 31.5199 84.6022 31.7272 84.4668 31.998C84.3356 32.2646 84.27 32.5841 84.27 32.9565V37H82.8926Z" fill="#1A1A1A"/>
<defs>
<filter id="filter0_d_480_760" x="19" y="239" width="122" height="26" filterUnits="userSpaceOnUse" color-interpolation-filters="sRGB">
<feFlood flood-opacity="0" result="BackgroundImageFix"/>
<feColorMatrix in="SourceAlpha" type="matrix" values="0 0 0 0 0 0 0 0 0 0 0 0 0 0 0 0 0 0 127 0" result="hardAlpha"/>
<feMorphology radius="1" operator="dilate" in="SourceAlpha" result="effect1_dropShadow_480_760"/>
<feOffset/>
<feComposite in2="hardAlpha" operator="out"/>
<feColorMatrix type="matrix" values="0 0 0 0 0 0 0 0 0 0 0 0 0 0 0 0 0 0 0.04 0"/>
<feBlend mode="normal" in2="BackgroundImageFix" result="effect1_dropShadow_480_760"/>
<feBlend mode="normal" in="SourceGraphic" in2="effect1_dropShadow_480_760" result="shape"/>
</filter>
<filter id="filter1_d_480_760" x="19" y="199" width="122" height="26" filterUnits="userSpaceOnUse" color-interpolation-filters="sRGB">
<feFlood flood-opacity="0" result="BackgroundImageFix"/>
<feColorMatrix in="SourceAlpha" type="matrix" values="0 0 0 0 0 0 0 0 0 0 0 0 0 0 0 0 0 0 127 0" result="hardAlpha"/>
<feMorphology radius="1" operator="dilate" in="SourceAlpha" result="effect1_dropShadow_480_760"/>
<feOffset/>
<feComposite in2="hardAlpha" operator="out"/>
<feColorMatrix type="matrix" values="0 0 0 0 0 0 0 0 0 0 0 0 0 0 0 0 0 0 0.08 0"/>
<feBlend mode="normal" in2="BackgroundImageFix" result="effect1_dropShadow_480_760"/>
<feBlend mode="normal" in="SourceGraphic" in2="effect1_dropShadow_480_760" result="shape"/>
</filter>
<filter id="filter2_d_480_760" x="16.5" y="196.5" width="127" height="31" filterUnits="userSpaceOnUse" color-interpolation-filters="sRGB">
<feFlood flood-opacity="0" result="BackgroundImageFix"/>
<feColorMatrix in="SourceAlpha" type="matrix" values="0 0 0 0 0 0 0 0 0 0 0 0 0 0 0 0 0 0 127 0" result="hardAlpha"/>
<feMorphology radius="3.5" operator="dilate" in="SourceAlpha" result="effect1_dropShadow_480_760"/>
<feOffset/>
<feComposite in2="hardAlpha" operator="out"/>
<feColorMatrix type="matrix" values="0 0 0 0 0 0 0 0 0 0.478431 0 0 0 0 1 0 0 0 0.25 0"/>
<feBlend mode="normal" in2="BackgroundImageFix" result="effect1_dropShadow_480_760"/>
<feBlend mode="normal" in="SourceGraphic" in2="effect1_dropShadow_480_760" result="shape"/>
</filter>
<filter id="filter3_d_480_760" x="19" y="199" width="122" height="26" filterUnits="userSpaceOnUse" color-interpolation-filters="sRGB">
<feFlood flood-opacity="0" result="BackgroundImageFix"/>
<feColorMatrix in="SourceAlpha" type="matrix" values="0 0 0 0 0 0 0 0 0 0 0 0 0 0 0 0 0 0 127 0" result="hardAlpha"/>
<feMorphology radius="1" operator="dilate" in="SourceAlpha" result="effect1_dropShadow_480_760"/>
<feOffset/>
<feComposite in2="hardAlpha" operator="out"/>
<feColorMatrix type="matrix" values="0 0 0 0 0 0 0 0 0 0.478431 0 0 0 0 1 0 0 0 0.15 0"/>
<feBlend mode="normal" in2="BackgroundImageFix" result="effect1_dropShadow_480_760"/>
<feBlend mode="normal" in="SourceGraphic" in2="effect1_dropShadow_480_760" result="shape"/>
</filter>
<filter id="filter4_d_480_760" x="19" y="159" width="122" height="26" filterUnits="userSpaceOnUse" color-interpolation-filters="sRGB">
<feFlood flood-opacity="0" result="BackgroundImageFix"/>
<feColorMatrix in="SourceAlpha" type="matrix" values="0 0 0 0 0 0 0 0 0 0 0 0 0 0 0 0 0 0 127 0" result="hardAlpha"/>
<feMorphology radius="1" operator="dilate" in="SourceAlpha" result="effect1_dropShadow_480_760"/>
<feOffset/>
<feComposite in2="hardAlpha" operator="out"/>
<feColorMatrix type="matrix" values="0 0 0 0 0 0 0 0 0 0 0 0 0 0 0 0 0 0 0.08 0"/>
<feBlend mode="normal" in2="BackgroundImageFix" result="effect1_dropShadow_480_760"/>
<feBlend mode="normal" in="SourceGraphic" in2="effect1_dropShadow_480_760" result="shape"/>
</filter>
<filter id="filter5_d_480_760" x="19" y="99" width="122" height="26" filterUnits="userSpaceOnUse" color-interpolation-filters="sRGB">
<feFlood flood-opacity="0" result="BackgroundImageFix"/>
<feColorMatrix in="SourceAlpha" type="matrix" values="0 0 0 0 0 0 0 0 0 0 0 0 0 0 0 0 0 0 127 0" result="hardAlpha"/>
<feMorphology radius="1" operator="dilate" in="SourceAlpha" result="effect1_dropShadow_480_760"/>
<feOffset/>
<feComposite in2="hardAlpha" operator="out"/>
<feColorMatrix type="matrix" values="0 0 0 0 0 0 0 0 0 0 0 0 0 0 0 0 0 0 0.04 0"/>
<feBlend mode="normal" in2="BackgroundImageFix" result="effect1_dropShadow_480_760"/>
<feBlend mode="normal" in="SourceGraphic" in2="effect1_dropShadow_480_760" result="shape"/>
</filter>
<filter id="filter6_d_480_760" x="19" y="59" width="122" height="26" filterUnits="userSpaceOnUse" color-interpolation-filters="sRGB">
<feFlood flood-opacity="0" result="BackgroundImageFix"/>
<feColorMatrix in="SourceAlpha" type="matrix" values="0 0 0 0 0 0 0 0 0 0 0 0 0 0 0 0 0 0 127 0" result="hardAlpha"/>
<feMorphology radius="1" operator="dilate" in="SourceAlpha" result="effect1_dropShadow_480_760"/>
<feOffset/>
<feComposite in2="hardAlpha" operator="out"/>
<feColorMatrix type="matrix" values="0 0 0 0 0 0 0 0 0 0 0 0 0 0 0 0 0 0 0.08 0"/>
<feBlend mode="normal" in2="BackgroundImageFix" result="effect1_dropShadow_480_760"/>
<feBlend mode="normal" in="SourceGraphic" in2="effect1_dropShadow_480_760" result="shape"/>
</filter>
<filter id="filter7_d_480_760" x="16.5" y="56.5" width="127" height="31" filterUnits="userSpaceOnUse" color-interpolation-filters="sRGB">
<feFlood flood-opacity="0" result="BackgroundImageFix"/>
<feColorMatrix in="SourceAlpha" type="matrix" values="0 0 0 0 0 0 0 0 0 0 0 0 0 0 0 0 0 0 127 0" result="hardAlpha"/>
<feMorphology radius="3.5" operator="dilate" in="SourceAlpha" result="effect1_dropShadow_480_760"/>
<feOffset/>
<feComposite in2="hardAlpha" operator="out"/>
<feColorMatrix type="matrix" values="0 0 0 0 0 0 0 0 0 0.478431 0 0 0 0 1 0 0 0 0.25 0"/>
<feBlend mode="normal" in2="BackgroundImageFix" result="effect1_dropShadow_480_760"/>
<feBlend mode="normal" in="SourceGraphic" in2="effect1_dropShadow_480_760" result="shape"/>
</filter>
<filter id="filter8_d_480_760" x="19" y="59" width="122" height="26" filterUnits="userSpaceOnUse" color-interpolation-filters="sRGB">
<feFlood flood-opacity="0" result="BackgroundImageFix"/>
<feColorMatrix in="SourceAlpha" type="matrix" values="0 0 0 0 0 0 0 0 0 0 0 0 0 0 0 0 0 0 127 0" result="hardAlpha"/>
<feMorphology radius="1" operator="dilate" in="SourceAlpha" result="effect1_dropShadow_480_760"/>
<feOffset/>
<feComposite in2="hardAlpha" operator="out"/>
<feColorMatrix type="matrix" values="0 0 0 0 0 0 0 0 0 0.478431 0 0 0 0 1 0 0 0 0.15 0"/>
<feBlend mode="normal" in2="BackgroundImageFix" result="effect1_dropShadow_480_760"/>
<feBlend mode="normal" in="SourceGraphic" in2="effect1_dropShadow_480_760" result="shape"/>
</filter>
<filter id="filter9_d_480_760" x="19" y="19" width="122" height="26" filterUnits="userSpaceOnUse" color-interpolation-filters="sRGB">
<feFlood flood-opacity="0" result="BackgroundImageFix"/>
<feColorMatrix in="SourceAlpha" type="matrix" values="0 0 0 0 0 0 0 0 0 0 0 0 0 0 0 0 0 0 127 0" result="hardAlpha"/>
<feMorphology radius="1" operator="dilate" in="SourceAlpha" result="effect1_dropShadow_480_760"/>
<feOffset/>
<feComposite in2="hardAlpha" operator="out"/>
<feColorMatrix type="matrix" values="0 0 0 0 0 0 0 0 0 0 0 0 0 0 0 0 0 0 0.08 0"/>
<feBlend mode="normal" in2="BackgroundImageFix" result="effect1_dropShadow_480_760"/>
<feBlend mode="normal" in="SourceGraphic" in2="effect1_dropShadow_480_760" result="shape"/>
</filter>
</defs>
</svg>
