<svg width="80" height="108" viewBox="0 0 80 108" fill="none" xmlns="http://www.w3.org/2000/svg">
<rect x="0.5" y="0.5" width="79" height="107" rx="4.5" stroke="#9747FF" stroke-dasharray="10 5"/>
<foreignObject x="-44" y="-41" width="161" height="145"><div xmlns="http://www.w3.org/1999/xhtml" style="backdrop-filter:blur(30px);clip-path:url(#bgblur_0_552_10839_clip_path);height:100%;width:100%"></div></foreignObject><g data-figma-bg-blur-radius="60">
<path d="M16 31.5C16 24.5964 21.5964 19 28.5 19H44.5C51.4036 19 57 24.5964 57 31.5C57 38.4036 51.4036 44 44.5 44H28.5C21.5964 44 16 38.4036 16 31.5Z" fill="white" fill-opacity="0.08" style="mix-blend-mode:plus-lighter"/>
</g>
<g filter="url(#filter1_d_552_10839)">
<path d="M39.5085 26.2488C39.6199 26.2488 39.7924 26.2621 40.0258 26.2886C40.2646 26.3098 40.5352 26.3682 40.8376 26.4637C41.1401 26.5592 41.4478 26.7131 41.7609 26.9253C42.0739 27.1376 42.3631 27.4347 42.6284 27.8167C42.6019 27.8327 42.5011 27.9043 42.326 28.0316C42.1562 28.159 41.9625 28.3447 41.745 28.5888C41.5274 28.8275 41.3364 29.1326 41.1719 29.5041C41.0127 29.8702 40.9332 30.3079 40.9332 30.8173C40.9332 31.4009 41.034 31.8944 41.2356 32.2977C41.4425 32.7009 41.6813 33.0272 41.9519 33.2766C42.2278 33.526 42.4719 33.709 42.6841 33.8258C42.9017 33.9372 43.0184 33.9956 43.0343 34.0009C43.029 34.0221 42.9892 34.1415 42.9149 34.359C42.8407 34.5713 42.7239 34.8472 42.5647 35.1868C42.4109 35.521 42.2092 35.8712 41.9599 36.2374C41.7317 36.561 41.4956 36.8714 41.2515 37.1686C41.0127 37.4657 40.7501 37.7071 40.4636 37.8928C40.1824 38.0838 39.864 38.1793 39.5085 38.1793C39.2379 38.1793 39.0071 38.1475 38.8161 38.0838C38.625 38.0202 38.442 37.9459 38.2669 37.861C38.0971 37.7814 37.9087 37.7098 37.7018 37.6461C37.4949 37.5824 37.2375 37.5506 36.9298 37.5506C36.5265 37.5506 36.1896 37.6036 35.919 37.7098C35.6537 37.8212 35.4017 37.93 35.1629 38.0361C34.9241 38.1422 34.6429 38.1953 34.3192 38.1953C33.8258 38.1953 33.3907 37.9989 33.014 37.6063C32.6425 37.2137 32.2605 36.7441 31.8679 36.1976C31.5654 35.7625 31.2895 35.2611 31.0401 34.6933C30.7908 34.1256 30.5918 33.5233 30.4432 32.8866C30.2946 32.2499 30.2204 31.6132 30.2204 30.9765C30.2204 29.9577 30.414 29.1008 30.8014 28.4057C31.1887 27.7106 31.6848 27.1853 32.2897 26.8298C32.8946 26.4743 33.5233 26.2966 34.176 26.2966C34.5209 26.2966 34.8445 26.3523 35.147 26.4637C35.4547 26.5751 35.7412 26.6892 36.0065 26.806C36.2718 26.9174 36.5133 26.9731 36.7308 26.9731C36.9377 26.9731 37.1818 26.9147 37.463 26.798C37.7443 26.676 38.0547 26.5539 38.3942 26.4319C38.7391 26.3098 39.1105 26.2488 39.5085 26.2488ZM38.9514 24.9595C38.6861 25.2831 38.3518 25.5511 37.9485 25.7633C37.5506 25.9756 37.1739 26.0817 36.8184 26.0817C36.7441 26.0817 36.6724 26.0737 36.6035 26.0578C36.5982 26.0366 36.5902 25.9994 36.5796 25.9464C36.5743 25.8933 36.5716 25.835 36.5716 25.7713C36.5716 25.368 36.6592 24.9754 36.8343 24.5934C37.0094 24.2113 37.211 23.893 37.4392 23.6383C37.7204 23.304 38.0759 23.0254 38.5057 22.8026C38.9408 22.5797 39.3573 22.4604 39.7552 22.4444C39.7711 22.5346 39.7791 22.6381 39.7791 22.7548C39.7791 23.1634 39.7022 23.5613 39.5483 23.9487C39.3944 24.3307 39.1954 24.6676 38.9514 24.9595Z" fill="white"/>
</g>
<g filter="url(#filter2_d_552_10839)">
<path d="M39.5085 70.2488C39.6199 70.2488 39.7924 70.2621 40.0258 70.2886C40.2646 70.3098 40.5352 70.3682 40.8376 70.4637C41.1401 70.5592 41.4478 70.7131 41.7609 70.9253C42.0739 71.1376 42.3631 71.4347 42.6284 71.8167C42.6019 71.8327 42.5011 71.9043 42.326 72.0316C42.1562 72.159 41.9625 72.3447 41.745 72.5888C41.5274 72.8275 41.3364 73.1326 41.1719 73.5041C41.0127 73.8702 40.9332 74.3079 40.9332 74.8173C40.9332 75.4009 41.034 75.8944 41.2356 76.2977C41.4425 76.7009 41.6813 77.0272 41.9519 77.2766C42.2278 77.526 42.4719 77.709 42.6841 77.8258C42.9017 77.9372 43.0184 77.9956 43.0343 78.0009C43.029 78.0221 42.9892 78.1415 42.9149 78.359C42.8407 78.5713 42.7239 78.8472 42.5647 79.1868C42.4109 79.521 42.2092 79.8712 41.9599 80.2374C41.7317 80.561 41.4956 80.8714 41.2515 81.1686C41.0127 81.4657 40.7501 81.7071 40.4636 81.8928C40.1824 82.0838 39.864 82.1793 39.5085 82.1793C39.2379 82.1793 39.0071 82.1475 38.8161 82.0838C38.625 82.0202 38.442 81.9459 38.2669 81.861C38.0971 81.7814 37.9087 81.7098 37.7018 81.6461C37.4949 81.5824 37.2375 81.5506 36.9298 81.5506C36.5265 81.5506 36.1896 81.6036 35.919 81.7098C35.6537 81.8212 35.4017 81.93 35.1629 82.0361C34.9241 82.1422 34.6429 82.1953 34.3192 82.1953C33.8258 82.1953 33.3907 81.9989 33.014 81.6063C32.6425 81.2137 32.2605 80.7441 31.8679 80.1976C31.5654 79.7625 31.2895 79.2611 31.0401 78.6933C30.7908 78.1256 30.5918 77.5233 30.4432 76.8866C30.2946 76.2499 30.2204 75.6132 30.2204 74.9765C30.2204 73.9577 30.414 73.1008 30.8014 72.4057C31.1887 71.7106 31.6848 71.1853 32.2897 70.8298C32.8946 70.4743 33.5233 70.2966 34.176 70.2966C34.5209 70.2966 34.8445 70.3523 35.147 70.4637C35.4547 70.5751 35.7412 70.6892 36.0065 70.806C36.2718 70.9174 36.5133 70.9731 36.7308 70.9731C36.9377 70.9731 37.1818 70.9147 37.463 70.798C37.7443 70.676 38.0547 70.5539 38.3942 70.4319C38.7391 70.3098 39.1105 70.2488 39.5085 70.2488ZM38.9514 68.9595C38.6861 69.2831 38.3518 69.5511 37.9485 69.7633C37.5506 69.9756 37.1739 70.0817 36.8184 70.0817C36.7441 70.0817 36.6724 70.0737 36.6035 70.0578C36.5982 70.0366 36.5902 69.9994 36.5796 69.9464C36.5743 69.8933 36.5716 69.835 36.5716 69.7713C36.5716 69.368 36.6592 68.9754 36.8343 68.5934C37.0094 68.2113 37.211 67.893 37.4392 67.6383C37.7204 67.304 38.0759 67.0254 38.5057 66.8026C38.9408 66.5797 39.3573 66.4604 39.7552 66.4444C39.7711 66.5346 39.7791 66.6381 39.7791 66.7548C39.7791 67.1634 39.7022 67.5613 39.5483 67.9487C39.3944 68.3307 39.1954 68.6676 38.9514 68.9595Z" fill="white"/>
</g>
<defs>
<clipPath id="bgblur_0_552_10839_clip_path" transform="translate(44 41)"><path d="M16 31.5C16 24.5964 21.5964 19 28.5 19H44.5C51.4036 19 57 24.5964 57 31.5C57 38.4036 51.4036 44 44.5 44H28.5C21.5964 44 16 38.4036 16 31.5Z"/>
</clipPath><filter id="filter1_d_552_10839" x="24.2204" y="17.4443" width="24.814" height="27.751" filterUnits="userSpaceOnUse" color-interpolation-filters="sRGB">
<feFlood flood-opacity="0" result="BackgroundImageFix"/>
<feColorMatrix in="SourceAlpha" type="matrix" values="0 0 0 0 0 0 0 0 0 0 0 0 0 0 0 0 0 0 127 0" result="hardAlpha"/>
<feOffset dy="1"/>
<feGaussianBlur stdDeviation="3"/>
<feComposite in2="hardAlpha" operator="out"/>
<feColorMatrix type="matrix" values="0 0 0 0 0.8 0 0 0 0 0.8 0 0 0 0 0.8 0 0 0 1 0"/>
<feBlend mode="plus-darker" in2="BackgroundImageFix" result="effect1_dropShadow_552_10839"/>
<feBlend mode="normal" in="SourceGraphic" in2="effect1_dropShadow_552_10839" result="shape"/>
</filter>
<filter id="filter2_d_552_10839" x="24.2204" y="61.4443" width="24.814" height="27.751" filterUnits="userSpaceOnUse" color-interpolation-filters="sRGB">
<feFlood flood-opacity="0" result="BackgroundImageFix"/>
<feColorMatrix in="SourceAlpha" type="matrix" values="0 0 0 0 0 0 0 0 0 0 0 0 0 0 0 0 0 0 127 0" result="hardAlpha"/>
<feOffset dy="1"/>
<feGaussianBlur stdDeviation="3"/>
<feComposite in2="hardAlpha" operator="out"/>
<feColorMatrix type="matrix" values="0 0 0 0 0.8 0 0 0 0 0.8 0 0 0 0 0.8 0 0 0 1 0"/>
<feBlend mode="plus-darker" in2="BackgroundImageFix" result="effect1_dropShadow_552_10839"/>
<feBlend mode="normal" in="SourceGraphic" in2="effect1_dropShadow_552_10839" result="shape"/>
</filter>
</defs>
</svg>
